0
SECTION
2
HEADER
9
$INSUNITS
70
4
9
$ACADVER
1
AC1014
9
$HANDSEED
5
FFFF
0
ENDSEC
0
SECTION
2
TABLES
0
TABLE
2
VPORT
5
8
100
AcDbSymbolTable
0
ENDTAB
0
TABLE
2
LTYPE
5
5
100
AcDbSymbolTable
0
LTYPE
5
14
100
AcDbSymbolTableRecord
100
AcDbLinetypeTableRecord
2
BYBLOCK
70
0
0
LTYPE
5
15
100
AcDbSymbolTableRecord
100
AcDbLinetypeTableRecord
2
BYLAYER
70
0
0
ENDTAB
0
TABLE
2
LAYER
5
2
100
AcDbSymbolTable
70
2
0
LAYER
5
50
100
AcDbSymbolTableRecord
100
AcDbLayerTableRecord
2
0
70
0
6
CONTINUOUS
0
ENDTAB
0
TABLE
2
STYLE
5
3
100
AcDbSymbolTable
70
1
0
STYLE
5
11
100
AcDbSymbolTableRecord
100
AcDbTextStyleTableRecord
2
STANDARD
70
0
0
ENDTAB
0
TABLE
2
VIEW
5
6
100
AcDbSymbolTable
70
0
0
ENDTAB
0
TABLE
2
UCS
5
7
100
AcDbSymbolTable
70
0
0
ENDTAB
0
TABLE
2
APPID
5
9
100
AcDbSymbolTable
70
2
0
APPID
5
12
100
AcDbSymbolTableRecord
100
AcDbRegAppTableRecord
2
ACAD
70
0
0
ENDTAB
0
TABLE
2
DIMSTYLE
5
A
100
AcDbSymbolTable
70
1
0
ENDTAB
0
TABLE
2
BLOCK_RECORD
5
1
100
AcDbSymbolTable
70
1
0
BLOCK_RECORD
5
1F
100
AcDbSymbolTableRecord
100
AcDbBlockTableRecord
2
*MODEL_SPACE
0
BLOCK_RECORD
5
1B
100
AcDbSymbolTableRecord
100
AcDbBlockTableRecord
2
*PAPER_SPACE
0
ENDTAB
0
ENDSEC
0
SECTION
2
BLOCKS
0
BLOCK
5
20
100
AcDbEntity
100
AcDbBlockBegin
2
*MODEL_SPACE
0
ENDBLK
5
21
100
AcDbEntity
100
AcDbBlockEnd
0
BLOCK
5
1C
100
AcDbEntity
100
AcDbBlockBegin
2
*PAPER_SPACE
0
ENDBLK
5
1D
100
AcDbEntity
100
AcDbBlockEnd
0
ENDSEC
0
SECTION
2
ENTITIES
0
LWPOLYLINE
5
100
100
AcDbEntity
8
0
100
AcDbPolyline
90
24
70
1
43
0.0
10
-96.187301587301604
20
-25.108401300321638
42
0.45045840027418849
10
-96.693650793650804
20
-28.364630110823761
42
-0.17479935657166831
10
-96.474999999999994
20
-28.970953735938615
10
-96.474999999999994
20
-29.339211518938868
42
-0.36397023426620179
10
-97.260034231216395
20
-30.274778884300456
10
-118.10348581272868
20
-33.950041769211566
42
-0.27916895063730379
10
-119.02104916134985
20
-33.594213037048249
42
0.073368132619625007
10
-119.68247417313451
20
-32.955482327791152
42
-0.27916895063730068
10
-120.07010864310789
20
-32.050896177635032
10
-118.51962917558308
20
-21.018661519230353
42
-0.37388467948480575
10
-117.72741472058982
20
-20.3299999999984
10
-116.30445594833273
20
-20.329999999998396
42
0.99999999999999989
10
-116.30445594833273
20
-16.819999999998423
10
-117.00925105526062
20
-16.819999999998402
42
-0.45572625553258361
10
-117.80146551025388
20
-15.908661519230359
10
-117.15274644922984
20
-11.292785554086318
42
-0.37388467948480564
10
-116.21199178392533
20
-10.474999999998378
10
-115.41446313814261
20
-10.474999999998378
42
-0.20045495940508296
10
-114.73873752909795
20
-10.75724637680999
42
0.49759182616025488
10
-110.78509006064874
20
-10.231884057969435
42
-0.27018712018468183
10
-109.95842963168271
20
-9.7499999999984226
10
-96.700000000000003
20
-9.7499999999984084
42
-0.41421356237309576
10
-95.75
20
-10.699999999998418
10
-95.750000000000014
20
-24.308626120901479
42
-0.2555380211767323
0
LWPOLYLINE
5
101
100
AcDbEntity
8
0
100
AcDbPolyline
90
24
70
1
43
0.0
10
-94.25
20
-24.308626120901501
10
-94.249999999999986
20
-10.699999999998411
42
-0.41421356237309576
10
-93.299999999999983
20
-9.7499999999984084
10
-80.041570368317309
20
-9.7499999999983959
42
-0.27018712018468516
10
-79.214909939351273
20
-10.231884057969417
42
0.49759182616025316
10
-75.261262470902082
20
-10.757246376810023
42
-0.20045495940507729
10
-74.585536861857435
20
-10.474999999998429
10
-73.586042701570932
20
-10.474999999998428
42
-0.3738846794847997
10
-72.645288036266436
20
-11.292785554086365
10
-71.996568975242397
20
-15.908661519230357
42
-0.45572625553258472
10
-72.788783430235654
20
-16.819999999998409
10
-73.69554405166727
20
-16.819999999998409
42
0.99999999999999989
10
-73.69554405166727
20
-20.32999999999841
10
-72.070619764906439
20
-20.329999999998407
42
-0.37388467948480464
10
-71.278405309913182
20
-21.018661519230353
10
-69.745444863719982
20
-31.926241863686087
42
-0.29385957555342546
10
-70.175816935769845
20
-32.859711330488921
42
0.10072750593613959
10
-71.079609063825984
20
-33.732493243311737
42
-0.29385957555344089
10
-72.027529654960503
20
-34.130025529744998
10
-92.739965768783605
20
-30.477864206677623
42
-0.36397023426617847
10
-93.525000000000006
20
-29.542296841316023
10
-93.524999999999991
20
-28.970953735938526
42
-0.17479935657165674
10
-93.306349206349196
20
-28.364630110823711
42
0.45045840027417672
10
-93.81269841269841
20
-25.108401300321663
42
-0.25553802117672747
0
CIRCLE
5
102
100
AcDbEntity
8
0
100
AcDbCircle
10
-77.039487757861679
20
-8.9999999999984244
30
0
40
1.0749999999999993
210
-2.1323070268152763e-62
220
2.4651903288156619e-32
230
1
0
LWPOLYLINE
5
103
100
AcDbEntity
8
0
100
AcDbPolyline
90
56
70
1
43
0.0
10
-68.427136625155669
20
-29.810017934211821
10
-71.333212387213379
20
-9.1322144459117016
42
-0.06992681194350002
10
-71.333212387213379
20
-8.8677855540875772
10
-68.427136625155669
20
11.810017934212542
42
-0.35860467121046025
10
-67.537553467186115
20
12.626424317102522
42
0.49643949002797577
10
-66.014343864619661
20
14.875430314711755
42
-0.23748361147908442
10
-65.895092678806634
20
15.721324701424065
42
0.17401660944984651
10
-65.344283132615715
20
17.776973913102605
42
-0.2374836114790789
10
-65.02461049560506
20
18.569165533820641
42
1.0666473536294219
10
-67.430834466179746
20
20.975389504395313
42
-0.23748361147907177
10
-68.223026086897775
20
20.655716867384655
42
0.17401660944984843
10
-70.278675298576317
20
20.104907321193714
42
-0.23748361147906719
10
-71.124569685288634
20
19.985656135380697
42
0.52007934684041068
10
-73.375665787476279
20
18.334369105714657
42
-0.36999980292364293
10
-74.16048542189327
20
17.378610458394942
10
-94.835034231216397
20
13.733129689337227
42
-0.087488663525916291
10
-95.164965768783588
20
13.733129689337225
10
-115.83951457810672
20
17.378610458394942
42
-0.36999980292365664
10
-116.62433421252372
20
18.334369105714647
42
0.52007934684041546
10
-118.87543031471139
20
19.985656135380687
42
-0.23748361147908137
10
-119.72132470142368
20
20.104907321193725
42
0.17401660944984704
10
-121.77697391310225
20
20.655716867384658
42
-0.23748361147907435
10
-122.56916553382025
20
20.975389504395309
42
1.0666473536294334
10
-124.97538950439493
20
18.569165533820627
42
-0.23748361147907762
10
-124.6557168673843
20
17.776973913102609
42
0.17401660944984493
10
-124.10490732119335
20
15.721324701424068
42
-0.23748361147904795
10
-123.98565613538032
20
14.875430314711746
42
0.49643949002796728
10
-122.46244653281394
20
12.626424317102526
42
-0.35860467121047207
10
-121.57286337484433
20
11.810017934212542
10
-118.66678761278664
20
-8.8677855540875772
42
-0.069926811943500353
10
-118.66678761278664
20
-9.1322144459116998
10
-121.57286337484433
20
-29.810017934211821
42
-0.35860467121045869
10
-122.46244653281389
20
-30.626424317101801
42
0.49643949002797377
10
-123.98565613538032
20
-32.875430314711011
42
-0.23748361147908958
10
-124.10490732119335
20
-33.721324701423342
42
0.17401660944984254
10
-124.6557168673843
20
-35.776973913101877
42
-0.23748361147910529
10
-124.97538950439497
20
-36.569165533819927
42
1.0666473536294168
10
-122.56916553382025
20
-38.975389504394592
42
-0.23748361147907598
10
-121.77697391310221
20
-38.655716867383937
42
0.17401660944984113
10
-119.72132470142367
20
-38.104907321192989
42
-0.23748361147907188
10
-118.87543031471138
20
-37.985656135379969
42
0.52007934684040691
10
-116.62433421252372
20
-36.334369105713932
42
-0.36999980292364665
10
-115.8395145781067
20
-35.37861045839422
10
-95.164965768783603
20
-31.733129689336508
42
-0.087488663525932181
10
-94.835034231216412
20
-31.733129689336504
10
-74.16048542189327
20
-35.37861045839422
42
-0.36999980292364559
10
-73.375665787476265
20
-36.334369105713932
42
0.52007934684041224
10
-71.124569685288634
20
-37.985656135379969
42
-0.23748361147907668
10
-70.278675298576331
20
-38.104907321192997
42
0.17401660944984662
10
-68.223026086897775
20
-38.65571686738393
42
-0.23748361147907635
10
-67.430834466179746
20
-38.975389504394599
42
1.0666473536294236
10
-65.02461049560506
20
-36.569165533819913
42
-0.23748361147906613
10
-65.344283132615701
20
-35.776973913101884
42
0.17401660944984462
10
-65.895092678806634
20
-33.721324701423342
42
-0.23748361147906377
10
-66.014343864619676
20
-32.875430314711032
42
0.49643949002797566
10
-67.537553467186115
20
-30.62642431710178
42
-0.35860467121044576
0
LWPOLYLINE
5
104
100
AcDbEntity
8
0
100
AcDbPolyline
90
20
70
1
43
0.0
10
-110.78509006064874
20
-7.7681159420274071
42
0.49759182616038661
10
-114.73873752909869
20
-7.2427536231876033
42
-0.20045495940483224
10
-115.41446313814232
20
-7.5249999999994879
10
-116.21199178392408
20
-7.5250000000005803
42
-0.37388467948519433
10
-117.15274644922987
20
-6.7072144459126335
10
-117.80849255198932
20
-2.0413384807664583
42
-0.45572625553258445
10
-117.01627809699607
20
-1.1299999999984058
10
-116.30445594833273
20
-1.1299999999984054
42
0.99999999999999989
10
-116.30445594833273
20
2.3800000000015924
10
-117.73444176232529
20
2.3800000000015906
42
-0.37388467948480342
10
-118.52665621731853
20
3.0686615192335296
10
-120.07010864310789
20
14.050896177635732
42
-0.27916895063730557
10
-119.68247417313449
20
14.955482327791882
42
0.087031655169096458
10
-118.92039093617402
20
15.73249324331244
42
-0.29385957555344799
10
-117.97247034503953
20
16.130025529745712
10
-101.9850342312087
20
13.311009190524473
42
-0.36397023426620234
10
-101.19999999999229
20
12.375441825162866
10
-101.19999999999229
20
-7.2999999999984162
42
-0.41421356237309503
10
-102.14999999999229
20
-8.2499999999984173
10
-109.95842963168269
20
-8.2499999999984297
42
-0.27018712018468422
0
LWPOLYLINE
5
105
100
AcDbEntity
8
0
100
AcDbPolyline
90
16
70
1
43
0.0
10
-99.750000000007731
20
-7.2999999999984153
10
-99.750000000007688
20
11.793562788827657
42
-0.4663076581549957
10
-98.693716640107453
20
12.679889766538645
10
-97.268716640099754
20
12.428623819027727
42
-0.36397023426618041
10
-96.525000000000006
20
11.542296841316745
10
-96.525000000000006
20
10.97095373593929
42
-0.17479935657165857
10
-96.732142857142861
20
10.396541880567305
42
2.1280171108460744
10
-93.267857142857125
20
10.396541880567291
42
-0.17479935657164794
10
-93.47499999999998
20
10.970953735939236
10
-93.47499999999998
20
11.542296841316739
42
-0.36397023426621705
10
-92.731283359900232
20
12.428623819027731
10
-91.306283359892518
20
12.679889766538645
42
-0.4663076581549957
10
-90.249999999992298
20
11.793562788827659
10
-90.249999999992298
20
-7.2999999999984055
42
-0.41421356237309503
10
-91.149999999992289
20
-8.1999999999984059
10
-98.850000000007711
20
-8.1999999999984325
42
-0.41421356237309503
0
LWPOLYLINE
5
106
100
AcDbEntity
8
0
100
AcDbPolyline
90
4
70
1
43
0.0
10
-116.30445594833273
20
-19.3299999999984
42
0.99999999999999989
10
-116.30445594833273
20
-17.819999999998419
10
-117.55445594833273
20
-17.819999999986369
42
0.99999999999999989
10
-117.55445594833273
20
-19.329999999998403
0
LWPOLYLINE
5
107
100
AcDbEntity
8
0
100
AcDbPolyline
90
4
70
1
43
0.0
10
-116.30445594833273
20
-0.13000000000957718
42
0.99999999999999989
10
-116.30445594833273
20
1.3800000000127641
10
-117.55445594833273
20
1.3800000000127641
42
0.99999999999999989
10
-117.55445594833273
20
-0.13000000000957748
0
CIRCLE
5
108
100
AcDbEntity
8
0
100
AcDbCircle
10
-118.32894906774163
20
-36.370607143333487
30
0
40
0.75499999999999901
210
-2.7906656105578323e-62
220
9.5090654608903649e-108
230
1
0
CIRCLE
5
109
100
AcDbEntity
8
0
100
AcDbCircle
10
-122.37060714333384
20
-32.328949067741256
30
0
40
0.75499999999999901
210
-2.7906656105578323e-62
220
9.5090654608903649e-108
230
1
0
CIRCLE
5
110
100
AcDbEntity
8
0
100
AcDbCircle
10
-123.84995667241112
20
-37.849956672410777
30
0
40
0.75499999999999901
210
-2.7906656105578323e-62
220
9.5090654608903649e-108
230
1
0
CIRCLE
5
111
100
AcDbEntity
8
0
100
AcDbCircle
10
-121.51650429449546
20
-35.516504294495078
30
0
40
2.0000000000000018
210
3.6462980143718491e-63
220
-1.2424593751899079e-108
230
1
0
CIRCLE
5
112
100
AcDbEntity
8
0
100
AcDbCircle
10
-118.3289490677416
20
18.370607143334212
30
0
40
0.75499999999999901
210
4.733949270866088e-63
220
-2.5977578254159677e-108
230
1
0
CIRCLE
5
113
100
AcDbEntity
8
0
100
AcDbCircle
10
-122.37060714333384
20
14.328949067741972
30
0
40
0.75499999999999901
210
4.733949270866088e-63
220
-2.5977578254159677e-108
230
1
0
CIRCLE
5
114
100
AcDbEntity
8
0
100
AcDbCircle
10
-123.84995667241112
20
19.849956672411501
30
0
40
0.75499999999999901
210
4.733949270866088e-63
220
-2.5977578254159677e-108
230
1
0
CIRCLE
5
115
100
AcDbEntity
8
0
100
AcDbCircle
10
-121.51650429449553
20
17.516504294495896
30
0
40
2.0000000000000018
210
-2.8106880527448935e-62
220
1.5423669469287298e-107
230
1
0
CIRCLE
5
116
100
AcDbEntity
8
0
100
AcDbCircle
10
-112.96051224213832
20
-8.9999999999984208
30
0
40
1.0749999999999993
210
1.0430108273668017e-62
220
2.4651903288156619e-32
230
1
0
LWPOLYLINE
5
117
100
AcDbEntity
8
0
100
AcDbPolyline
90
4
70
1
43
0.0
10
-73.69554405166727
20
1.3800000000015826
42
0.99999999999999989
10
-73.69554405166727
20
-0.12999999999839584
10
-72.44554405166727
20
-0.13000000001044537
42
0.99999999999999989
10
-72.44554405166727
20
1.3800000000015853
0
LWPOLYLINE
5
118
100
AcDbEntity
8
0
100
AcDbPolyline
90
4
70
1
43
0.0
10
-73.69554405166727
20
-17.819999999987239
10
-72.44554405166727
20
-17.819999999986369
42
-0.99999999999999989
10
-72.44554405166727
20
-19.33000000001045
10
-73.69554405166727
20
-19.33000000000958
42
-0.99999999999999989
0
CIRCLE
5
119
100
AcDbEntity
8
0
100
AcDbCircle
10
-95.000000000000014
20
-26.960512242136744
30
0
40
1.0749999999999997
210
1.0430108273668062e-62
220
-3.5540117011245351e-108
230
1
0
CIRCLE
5
120
100
AcDbEntity
8
0
100
AcDbCircle
10
-68.483495705504481
20
-35.516504294495171
30
0
40
2.0000000000000018
210
-2.8106880527448935e-62
220
1.5423669469287298e-107
230
1
0
CIRCLE
5
121
100
AcDbEntity
8
0
100
AcDbCircle
10
-66.150043327588875
20
-37.849956672410777
30
0
40
0.75499999999999901
210
4.733949270866088e-63
220
-2.5977578254159677e-108
230
1
0
CIRCLE
5
122
100
AcDbEntity
8
0
100
AcDbCircle
10
-67.629392856666158
20
-32.328949067741249
30
0
40
0.75499999999999901
210
4.733949270866088e-63
220
-2.5977578254159677e-108
230
1
0
CIRCLE
5
123
100
AcDbEntity
8
0
100
AcDbCircle
10
-71.671050932258396
20
-36.370607143333487
30
0
40
0.75499999999999901
210
4.733949270866088e-63
220
-2.5977578254159677e-108
230
1
0
CIRCLE
5
124
100
AcDbEntity
8
0
100
AcDbCircle
10
-95
20
8.9605122421374652
30
0
40
1.0749999999999997
210
-2.1323070268152763e-62
220
1.1701049056838389e-107
230
1
0
CIRCLE
5
125
100
AcDbEntity
8
0
100
AcDbCircle
10
-68.483495705504424
20
17.516504294495952
30
0
40
2.0000000000000018
210
3.6462980143718491e-63
220
-1.2424593751899079e-108
230
1
0
CIRCLE
5
126
100
AcDbEntity
8
0
100
AcDbCircle
10
-66.150043327588875
20
19.849956672411501
30
0
40
0.75499999999999901
210
-2.7906656105578323e-62
220
9.5090654608903649e-108
230
1
0
CIRCLE
5
127
100
AcDbEntity
8
0
100
AcDbCircle
10
-67.629392856666158
20
14.328949067741972
30
0
40
0.75499999999999901
210
-2.7906656105578323e-62
220
9.5090654608903649e-108
230
1
0
CIRCLE
5
128
100
AcDbEntity
8
0
100
AcDbCircle
10
-71.671050932258396
20
18.370607143334212
30
0
40
0.75499999999999901
210
-2.7906656105578323e-62
220
9.5090654608903649e-108
230
1
0
LWPOLYLINE
5
129
100
AcDbEntity
8
0
100
AcDbPolyline
90
20
70
1
43
0.0
10
-80.041570368317281
20
-8.2499999999983924
10
-87.850000000007711
20
-8.2499999999984013
42
-0.41421356237309503
10
-88.800000000007714
20
-7.2999999999983949
10
-88.800000000007714
20
12.172356502785725
42
-0.36397023426620195
10
-88.014965768791299
20
13.107923868147321
10
-71.896514187271336
20
15.9500417692123
42
-0.27916895063730524
10
-70.978950838650164
20
15.594213037048981
42
0.087031655169098346
10
-70.175816935769845
20
14.859711330489645
42
-0.29385957555343006
10
-69.745444863719982
20
13.926241863686805
10
-71.271378268177713
20
3.0686615192335336
42
-0.37388467948480464
10
-72.063592723170984
20
2.3800000000015857
10
-73.69554405166727
20
2.3800000000015817
42
0.99999999999999989
10
-73.69554405166727
20
-1.1299999999983958
10
-72.781756388500185
20
-1.1299999999984025
42
-0.45572625553258472
10
-71.989541933506928
20
-2.0413384807664579
10
-72.645288036266436
20
-6.7072144459129124
42
-0.3738846794848722
10
-73.586042701571131
20
-7.525000000000853
10
-74.585536861910384
20
-7.5249999999435415
42
-0.20045495939961885
10
-75.261262470941375
20
-7.2427536231470668
42
0.49759182615327163
10
-79.214909939351244
20
-7.7681159420273822
42
-0.27018712018468155
0
ENDSEC
0
SECTION
2
OBJECTS
0
DICTIONARY
5
C
100
AcDbDictionary
3
ACAD_GROUP
350
D
3
ACAD_MLINESTYLE
350
17
0
DICTIONARY
5
D
100
AcDbDictionary
0
DICTIONARY
5
1A
330
C
100
AcDbDictionary
0
DICTIONARY
5
17
100
AcDbDictionary
0
ENDSEC
0
EOF
