999
FreeCAD v1.0 38641 +468 (Git)
  0
SECTION
  2
HEADER
  9
$ACADVER
  1
AC1014
  9
$ACADMAINTVER
 70
     9
  9
$DWGCODEPAGE
  3
ANSI_1252
  9
$TEXTSTYLE
  7
STANDARD
  9
$DIMSTYLE
  2
STANDARD
  9
$DIMTXSTY
  7
STANDARD
  9
$CMLSTYLE
  2
STANDARD
  9
$LUNITS
 70
2
  9
$INSUNITS
 70
4
  9
$PEXTMAX
 10
50
 20
50
 30
50
  9
$PEXTMIN
 10
0
 20
0
 30
0
  9
$HANDSEED
  5
FFFF
  0
ENDSEC
  0
SECTION
  2
CLASSES
  0
CLASS
  1
ACDBDICTIONARYWDFLT
  2
AcDbDictionaryWithDefault
  3
ObjectDBX Classes
 90
        0
280
     0
281
     0
  0
CLASS
  1
XRECORD
  2
AcDbXrecord
  3
ObjectDBX Classes
 90
        0
280
     0
281
     0
  0
CLASS
  1
LWPOLYLINE
  2
AcDbPolyline
  3
ObjectDBX Classes
 90
        0
280
     0
281
     1
  0
ENDSEC
  0
SECTION
  2
TABLES
  0
TABLE
  2
VPORT
  5
20
330
0
100
AcDbSymbolTable
 70
     1
  0
VPORT
  5
21
330
20
100
AcDbSymbolTableRecord
100
AcDbViewportTableRecord
  2
*ACTIVE
 70
     0
  0
ENDTAB
  0
TABLE
  2
LTYPE
  5
22
330
0
100
AcDbSymbolTable
 70
     1
  0
LTYPE
  5
23
330
21
100
AcDbSymbolTableRecord
100
AcDbLinetypeTableRecord
  2
BYBLOCK
 70
     0
  3

 72
    65
 73
     0
 40
0.0
  0
LTYPE
  5
24
330
21
100
AcDbSymbolTableRecord
100
AcDbLinetypeTableRecord
  2
BYLAYER
 70
     0
  3

 72
    65
 73
     0
 40
0.0
  0
LTYPE
  5
25
330
21
100
AcDbSymbolTableRecord
100
AcDbLinetypeTableRecord
  2
CONTINUOUS
 70
     0
  3
Solid line
 72
    65
 73
     0
 40
0.0
  0
ENDTAB
  0
TABLE
  2
LAYER
  5
C90
330
0
100
AcDbSymbolTable
 70
3
  0
LAYER
  5
C91
330
C90
100
AcDbSymbolTableRecord
100
AcDbLayerTableRecord
  2
0
 70
   0
 62
   7
  6
CONTINUOUS
  0
LAYER
  5
C92
330
C90
100
AcDbSymbolTableRecord
100
AcDbLayerTableRecord
  2
none
 70
    0
 62
    7
  6
CONTINUOUS
  0
LAYER
  5
C93
330
C90
100
AcDbSymbolTableRecord
100
AcDbLayerTableRecord
  2
Body
 70
    0
 62
    7
  6
CONTINUOUS
  0
ENDTAB
  0
TABLE
  2
STYLE
  5
70
330
0
100
AcDbSymbolTable
 70
     2
  0
STYLE
  5
71
330
70
100
AcDbSymbolTableRecord
100
AcDbTextStyleTableRecord
  2
STANDARD
 70
     0
 40
0.0
 41
1.0
 50
0.0
 71
     0
 42
2.5
  3
arial.ttf
  4

  0
STYLE
  5
72
330
70
100
AcDbSymbolTableRecord
100
AcDbTextStyleTableRecord
  2
ANNOTATIVE
 70
     0
 40
0.0
 41
1.0
 50
0.0
 71
     0
 42
2.5
  3
arial.ttf
  4

  0
ENDTAB
  0
TABLE
  2
VIEW
  5
73
330
0
100
AcDbSymbolTable
 70
     0
  0
ENDTAB
  0
TABLE
  2
UCS
  5
74
330
0
100
AcDbSymbolTable
 70
     0
  0
ENDTAB
  0
TABLE
  2
APPID
  5
75
330
0
100
AcDbSymbolTable
 70
     2
  0
APPID
  5
76
330
75
100
AcDbSymbolTableRecord
100
AcDbRegAppTableRecord
  2
ACAD
 70
     0
  0
APPID
  5
77
330
75
100
AcDbSymbolTableRecord
100
AcDbRegAppTableRecord
  2
ACADANNOTATIVE
 70
     0
  0
ENDTAB
  0
TABLE
  2
DIMSTYLE
  5
78
330
0
100
AcDbSymbolTable
 70
     2
  0
DIMSTYLE
105
79
330
78
100
AcDbSymbolTableRecord
100
AcDbDimStyleTableRecord
  2
STANDARD
 70
     0
  3

  4

  5

  6

  7

 40
0.0
 41
2.5
 42
0.625
 43
3.75
 44
1.25
 45
0.0
 46
0.0
 47
0.0
 48
0.0
140
2.5
141
2.5
142
0.0
143
0.03937007874016
144
1.0
145
0.0
146
1.0
147
0.625
 71
     0
 72
     0
 73
     0
 74
     0
 75
     0
 76
     0
 77
     1
 78
     8
170
     0
171
     3
172
     1
173
     0
174
     0
175
     0
176
     0
177
     0
178
     0
270
     2
271
     2
272
     2
273
     2
274
     3
340
71
275
     0
280
     0
281
     0
282
     0
283
     0
284
     8
285
     0
286
     0
287
     3
288
     0
  0
ENDTAB
  0
TABLE
  2
BLOCK_RECORD
  5
A01
330
0
100
AcDbSymbolTable
  70
5
  0
BLOCK_RECORD
  5
A02
330
A01
100
AcDbSymbolTableRecord
100
AcDbBlockTableRecord
  2
*MODEL_SPACE
  0
BLOCK_RECORD
  5
A03
330
A01
100
AcDbSymbolTableRecord
100
AcDbBlockTableRecord
  2
*PAPER_SPACE
  0
ENDTAB
  0
ENDSEC
  0
SECTION
  2
BLOCKS
  0
BLOCK
  5
A04
330
A02
100
AcDbEntity
  8
0
100
AcDbBlockBegin
  2
*MODEL_SPACE
 70
   0
 10
0
 20
0
 30
0
  3
*MODEL_SPACE
  1
 
  0
ENDBLK
  5
A05
330
A02
100
AcDbEntity
  8
0
100
AcDbBlockEnd
  0
BLOCK
  5
A06
330
A03
100
AcDbEntity
 67
1
  8
0
100
AcDbBlockBegin
  2
*PAPER_SPACE
 70
   0
 10
0
 20
0
 30
0
  3
*PAPER_SPACE
  1
 
  0
ENDBLK
  5
A07
330
A03
100
AcDbEntity
 67
    1
  8
0
100
AcDbBlockEnd
  0
ENDSEC
  0
SECTION
  2
ENTITIES
  0
ARC
  5
A08
330
A02
100
AcDbEntity
  8
Body
100
AcDbCircle
 10
16.263455967
 20
-16.263455967
 30
0.000000000
 40
5.000000000
100
AcDbArc
 50
160.376933525
 51
-163.176524783
  0
ARC
  5
A09
330
A02
100
AcDbEntity
  8
Body
100
AcDbCircle
 10
9.669999669
 20
-13.912640356
 30
0.000000000
 40
2.000000000
100
AcDbArc
 50
-19.623066475
 51
45.000000000
  0
ARC
  5
A0A
330
A02
100
AcDbEntity
  8
Body
100
AcDbCircle
 10
10.520249997
 20
-18.000000000
 30
0.000000000
 40
1.000000000
100
AcDbArc
 50
-90.000000000
 51
16.823475217
  0
LINE
  5
A0B
330
A02
100
AcDbEntity
  8
Body
100
AcDbLine
 10
6.085786438
 20
-7.500000000
 30
0.000000000
 11
11.084213231
 21
-12.498426793
 31
0.000000000
  0
LINE
  5
A0C
330
A02
100
AcDbEntity
  8
Body
100
AcDbLine
 10
3.499860730
 20
-19.000000000
 30
0.000000000
 11
10.520249997
 21
-19.000000000
 31
0.000000000
  0
LINE
  5
A0D
330
A02
100
AcDbEntity
  8
Body
100
AcDbLine
 10
-6.085786438
 20
-7.500000000
 30
0.000000000
 11
6.085786438
 21
-7.500000000
 31
0.000000000
  0
ARC
  5
A0E
330
A02
100
AcDbEntity
  8
Body
100
AcDbCircle
 10
3.499860730
 20
-18.000000000
 30
0.000000000
 40
1.000000000
100
AcDbArc
 50
-179.488867062
 51
-90.000000000
  0
LINE
  5
A0F
330
A02
100
AcDbEntity
  8
Body
100
AcDbLine
 10
-11.084213231
 20
-12.498426793
 30
0.000000000
 11
-6.085786438
 21
-7.500000000
 31
0.000000000
  0
ARC
  5
A10
330
A02
100
AcDbEntity
  8
Body
100
AcDbCircle
 10
0.000000000
 20
-18.031222920
 30
0.000000000
 40
2.500000000
100
AcDbArc
 50
0.511132938
 51
179.488867062
  0
ARC
  5
A11
330
A02
100
AcDbEntity
  8
Body
100
AcDbCircle
 10
-9.669999669
 20
-13.912640356
 30
0.000000000
 40
2.000000000
100
AcDbArc
 50
135.000000000
 51
-160.376933525
  0
ARC
  5
A12
330
A02
100
AcDbEntity
  8
Body
100
AcDbCircle
 10
-3.499860730
 20
-18.000000000
 30
0.000000000
 40
1.000000000
100
AcDbArc
 50
-90.000000000
 51
-0.511132938
  0
ARC
  5
A13
330
A02
100
AcDbEntity
  8
Body
100
AcDbCircle
 10
-16.263455967
 20
-16.263455967
 30
0.000000000
 40
5.000000000
100
AcDbArc
 50
0.000000000
 51
19.623066475
  0
LINE
  5
A14
330
A02
100
AcDbEntity
  8
Body
100
AcDbLine
 10
-10.520249997
 20
-19.000000000
 30
0.000000000
 11
-3.499860730
 21
-19.000000000
 31
0.000000000
  0
ARC
  5
A15
330
A02
100
AcDbEntity
  8
Body
100
AcDbCircle
 10
-16.263455967
 20
-16.263455967
 30
0.000000000
 40
5.000000000
100
AcDbArc
 50
-16.823475217
 51
0.000000000
  0
ARC
  5
A16
330
A02
100
AcDbEntity
  8
Body
100
AcDbCircle
 10
-10.520249997
 20
-18.000000000
 30
0.000000000
 40
1.000000000
100
AcDbArc
 50
163.176524783
 51
-90.000000000
  0
LINE
  5
A17
330
A02
100
AcDbEntity
  8
Body
100
AcDbLine
 10
6.500000000
 20
-21.500000000
 30
0.000000000
 11
16.500000000
 21
-21.500000000
 31
0.000000000
  0
ARC
  5
A18
330
A02
100
AcDbEntity
  8
Body
100
AcDbCircle
 10
6.500000000
 20
-24.500000000
 30
0.000000000
 40
3.000000000
100
AcDbArc
 50
90.000000000
 51
180.000000000
  0
ARC
  5
A19
330
A02
100
AcDbEntity
  8
Body
100
AcDbCircle
 10
16.500000000
 20
-16.500000000
 30
0.000000000
 40
5.000000000
100
AcDbArc
 50
-90.000000000
 51
0.000000000
  0
LINE
  5
A1A
330
A02
100
AcDbEntity
  8
Body
100
AcDbLine
 10
3.500000000
 20
-24.500000000
 30
0.000000000
 11
3.500000000
 21
-28.000000000
 31
0.000000000
  0
LINE
  5
A1B
330
A02
100
AcDbEntity
  8
Body
100
AcDbLine
 10
21.500000000
 20
-16.500000000
 30
0.000000000
 11
21.500000000
 21
16.500000000
 31
0.000000000
  0
ARC
  5
A1C
330
A02
100
AcDbEntity
  8
Body
100
AcDbCircle
 10
0.000000000
 20
-28.000000000
 30
0.000000000
 40
3.500000000
100
AcDbArc
 50
180.000000000
 51
0.000000000
  0
ARC
  5
A1D
330
A02
100
AcDbEntity
  8
Body
100
AcDbCircle
 10
16.500000000
 20
16.500000000
 30
0.000000000
 40
5.000000000
100
AcDbArc
 50
0.000000000
 51
90.000000000
  0
LINE
  5
A1E
330
A02
100
AcDbEntity
  8
Body
100
AcDbLine
 10
-3.500000000
 20
-24.500000000
 30
0.000000000
 11
-3.500000000
 21
-28.000000000
 31
0.000000000
  0
LINE
  5
A1F
330
A02
100
AcDbEntity
  8
Body
100
AcDbLine
 10
16.500000000
 20
21.500000000
 30
0.000000000
 11
-16.500000000
 21
21.500000000
 31
0.000000000
  0
ARC
  5
A20
330
A02
100
AcDbEntity
  8
Body
100
AcDbCircle
 10
-6.500000000
 20
-24.500000000
 30
0.000000000
 40
3.000000000
100
AcDbArc
 50
0.000000000
 51
90.000000000
  0
ARC
  5
A21
330
A02
100
AcDbEntity
  8
Body
100
AcDbCircle
 10
-16.500000000
 20
16.500000000
 30
0.000000000
 40
5.000000000
100
AcDbArc
 50
90.000000000
 51
180.000000000
  0
LINE
  5
A22
330
A02
100
AcDbEntity
  8
Body
100
AcDbLine
 10
-16.500000000
 20
-21.500000000
 30
0.000000000
 11
-6.500000000
 21
-21.500000000
 31
0.000000000
  0
LINE
  5
A23
330
A02
100
AcDbEntity
  8
Body
100
AcDbLine
 10
-21.500000000
 20
16.500000000
 30
0.000000000
 11
-21.500000000
 21
-16.500000000
 31
0.000000000
  0
ARC
  5
A24
330
A02
100
AcDbEntity
  8
Body
100
AcDbCircle
 10
-16.500000000
 20
-16.500000000
 30
0.000000000
 40
5.000000000
100
AcDbArc
 50
-180.000000000
 51
-90.000000000
  0
CIRCLE
  5
A25
330
A02
100
AcDbEntity
  8
Body
100
AcDbCircle
 10
18.596908345
 20
-18.596908345
 30
0.000000000
 40
0.800000000
  0
CIRCLE
  5
A26
330
A02
100
AcDbEntity
  8
Body
100
AcDbCircle
 10
13.075900741
 20
-17.117558816
 30
0.000000000
 40
0.800000000
  0
CIRCLE
  5
A27
330
A02
100
AcDbEntity
  8
Body
100
AcDbCircle
 10
16.263455967
 20
-16.263455967
 30
0.000000000
 40
1.750000000
  0
CIRCLE
  5
A28
330
A02
100
AcDbEntity
  8
Body
100
AcDbCircle
 10
17.117558816
 20
-13.075900741
 30
0.000000000
 40
0.800000000
  0
LINE
  5
A29
330
A02
100
AcDbEntity
  8
Body
100
AcDbLine
 10
-0.900000000
 20
-27.750000000
 30
0.000000000
 11
0.900000000
 21
-27.750000000
 31
0.000000000
  0
ARC
  5
A2A
330
A02
100
AcDbEntity
  8
Body
100
AcDbCircle
 10
-0.900000000
 20
-28.500000000
 30
0.000000000
 40
0.750000000
100
AcDbArc
 50
90.000000000
 51
-90.000000000
  0
ARC
  5
A2B
330
A02
100
AcDbEntity
  8
Body
100
AcDbCircle
 10
0.900000000
 20
-28.500000000
 30
0.000000000
 40
0.750000000
100
AcDbArc
 50
-90.000000000
 51
90.000000000
  0
LINE
  5
A2C
330
A02
100
AcDbEntity
  8
Body
100
AcDbLine
 10
-0.900000000
 20
-29.250000000
 30
0.000000000
 11
0.900000000
 21
-29.250000000
 31
0.000000000
  0
LINE
  5
A2D
330
A02
100
AcDbEntity
  8
Body
100
AcDbLine
 10
-0.900000000
 20
-24.750000000
 30
0.000000000
 11
0.900000000
 21
-24.750000000
 31
0.000000000
  0
ARC
  5
A2E
330
A02
100
AcDbEntity
  8
Body
100
AcDbCircle
 10
-0.900000000
 20
-25.500000000
 30
0.000000000
 40
0.750000000
100
AcDbArc
 50
90.000000000
 51
-90.000000000
  0
ARC
  5
A2F
330
A02
100
AcDbEntity
  8
Body
100
AcDbCircle
 10
0.900000000
 20
-25.500000000
 30
0.000000000
 40
0.750000000
100
AcDbArc
 50
-90.000000000
 51
90.000000000
  0
LINE
  5
A30
330
A02
100
AcDbEntity
  8
Body
100
AcDbLine
 10
-0.900000000
 20
-26.250000000
 30
0.000000000
 11
0.900000000
 21
-26.250000000
 31
0.000000000
  0
ARC
  5
A31
330
A02
100
AcDbEntity
  8
Body
100
AcDbCircle
 10
-0.900000000
 20
-22.500000000
 30
0.000000000
 40
0.750000000
100
AcDbArc
 50
90.000000000
 51
-90.000000000
  0
LINE
  5
A32
330
A02
100
AcDbEntity
  8
Body
100
AcDbLine
 10
-0.900000000
 20
-21.750000000
 30
0.000000000
 11
0.900000000
 21
-21.750000000
 31
0.000000000
  0
LINE
  5
A33
330
A02
100
AcDbEntity
  8
Body
100
AcDbLine
 10
-0.900000000
 20
-23.250000000
 30
0.000000000
 11
0.900000000
 21
-23.250000000
 31
0.000000000
  0
ARC
  5
A34
330
A02
100
AcDbEntity
  8
Body
100
AcDbCircle
 10
0.900000000
 20
-22.500000000
 30
0.000000000
 40
0.750000000
100
AcDbArc
 50
-90.000000000
 51
90.000000000
  0
CIRCLE
  5
A35
330
A02
100
AcDbEntity
  8
Body
100
AcDbCircle
 10
0.000000000
 20
-18.031222920
 30
0.000000000
 40
1.200000000
  0
CIRCLE
  5
A36
330
A02
100
AcDbEntity
  8
Body
100
AcDbCircle
 10
-13.075900741
 20
-17.117558816
 30
0.000000000
 40
0.800000000
  0
CIRCLE
  5
A37
330
A02
100
AcDbEntity
  8
Body
100
AcDbCircle
 10
-18.596908345
 20
-18.596908345
 30
0.000000000
 40
0.800000000
  0
CIRCLE
  5
A38
330
A02
100
AcDbEntity
  8
Body
100
AcDbCircle
 10
-16.263455967
 20
-16.263455967
 30
0.000000000
 40
1.750000000
  0
CIRCLE
  5
A39
330
A02
100
AcDbEntity
  8
Body
100
AcDbCircle
 10
-17.117558816
 20
-13.075900741
 30
0.000000000
 40
0.800000000
  0
CIRCLE
  5
A3A
330
A02
100
AcDbEntity
  8
Body
100
AcDbCircle
 10
18.031222920
 20
0.000000000
 30
0.000000000
 40
1.200000000
  0
CIRCLE
  5
A3B
330
A02
100
AcDbEntity
  8
Body
100
AcDbCircle
 10
17.117558816
 20
13.075900741
 30
0.000000000
 40
0.800000000
  0
CIRCLE
  5
A3C
330
A02
100
AcDbEntity
  8
Body
100
AcDbCircle
 10
16.263455967
 20
16.263455967
 30
0.000000000
 40
1.750000000
  0
CIRCLE
  5
A3D
330
A02
100
AcDbEntity
  8
Body
100
AcDbCircle
 10
18.596908345
 20
18.596908345
 30
0.000000000
 40
0.800000000
  0
CIRCLE
  5
A3E
330
A02
100
AcDbEntity
  8
Body
100
AcDbCircle
 10
13.075900741
 20
17.117558816
 30
0.000000000
 40
0.800000000
  0
LINE
  5
A3F
330
A02
100
AcDbEntity
  8
Body
100
AcDbLine
 10
-5.500000000
 20
5.500000000
 30
0.000000000
 11
-5.500000000
 21
-5.500000000
 31
0.000000000
  0
LINE
  5
A40
330
A02
100
AcDbEntity
  8
Body
100
AcDbLine
 10
5.500000000
 20
5.500000000
 30
0.000000000
 11
-5.500000000
 21
5.500000000
 31
0.000000000
  0
LINE
  5
A41
330
A02
100
AcDbEntity
  8
Body
100
AcDbLine
 10
5.500000000
 20
-5.500000000
 30
0.000000000
 11
5.500000000
 21
5.500000000
 31
0.000000000
  0
LINE
  5
A42
330
A02
100
AcDbEntity
  8
Body
100
AcDbLine
 10
-5.500000000
 20
-5.500000000
 30
0.000000000
 11
5.500000000
 21
-5.500000000
 31
0.000000000
  0
CIRCLE
  5
A43
330
A02
100
AcDbEntity
  8
Body
100
AcDbCircle
 10
-18.031222920
 20
0.000000000
 30
0.000000000
 40
1.200000000
  0
CIRCLE
  5
A44
330
A02
100
AcDbEntity
  8
Body
100
AcDbCircle
 10
0.000000000
 20
18.031222920
 30
0.000000000
 40
1.200000000
  0
CIRCLE
  5
A45
330
A02
100
AcDbEntity
  8
Body
100
AcDbCircle
 10
-17.117558816
 20
13.075900741
 30
0.000000000
 40
0.800000000
  0
CIRCLE
  5
A46
330
A02
100
AcDbEntity
  8
Body
100
AcDbCircle
 10
-13.075900741
 20
17.117558816
 30
0.000000000
 40
0.800000000
  0
CIRCLE
  5
A47
330
A02
100
AcDbEntity
  8
Body
100
AcDbCircle
 10
-16.263455967
 20
16.263455967
 30
0.000000000
 40
1.750000000
  0
CIRCLE
  5
A48
330
A02
100
AcDbEntity
  8
Body
100
AcDbCircle
 10
-18.596908345
 20
18.596908345
 30
0.000000000
 40
0.800000000
  0
ARC
  5
A49
330
A02
100
AcDbEntity
  8
Body
100
AcDbCircle
 10
16.263455967
 20
16.263455967
 30
0.000000000
 40
5.000000000
100
AcDbArc
 50
-109.623066475
 51
-73.176524783
  0
ARC
  5
A4A
330
A02
100
AcDbEntity
  8
Body
100
AcDbCircle
 10
13.912640356
 20
9.669999669
 30
0.000000000
 40
2.000000000
100
AcDbArc
 50
70.376933525
 51
135.000000000
  0
ARC
  5
A4B
330
A02
100
AcDbEntity
  8
Body
100
AcDbCircle
 10
18.000000000
 20
10.520249997
 30
0.000000000
 40
1.000000000
100
AcDbArc
 50
0.000000000
 51
106.823475217
  0
LINE
  5
A4C
330
A02
100
AcDbEntity
  8
Body
100
AcDbLine
 10
7.500000000
 20
6.085786438
 30
0.000000000
 11
12.498426793
 21
11.084213231
 31
0.000000000
  0
LINE
  5
A4D
330
A02
100
AcDbEntity
  8
Body
100
AcDbLine
 10
19.000000000
 20
3.499860730
 30
0.000000000
 11
19.000000000
 21
10.520249997
 31
0.000000000
  0
LINE
  5
A4E
330
A02
100
AcDbEntity
  8
Body
100
AcDbLine
 10
7.500000000
 20
-6.085786438
 30
0.000000000
 11
7.500000000
 21
6.085786438
 31
0.000000000
  0
ARC
  5
A4F
330
A02
100
AcDbEntity
  8
Body
100
AcDbCircle
 10
18.000000000
 20
3.499860730
 30
0.000000000
 40
1.000000000
100
AcDbArc
 50
-89.488867062
 51
-0.000000000
  0
LINE
  5
A50
330
A02
100
AcDbEntity
  8
Body
100
AcDbLine
 10
12.498426793
 20
-11.084213231
 30
0.000000000
 11
7.500000000
 21
-6.085786438
 31
0.000000000
  0
ARC
  5
A51
330
A02
100
AcDbEntity
  8
Body
100
AcDbCircle
 10
18.031222920
 20
0.000000000
 30
0.000000000
 40
2.500000000
100
AcDbArc
 50
90.511132938
 51
-90.511132938
  0
ARC
  5
A52
330
A02
100
AcDbEntity
  8
Body
100
AcDbCircle
 10
13.912640356
 20
-9.669999669
 30
0.000000000
 40
2.000000000
100
AcDbArc
 50
-135.000000000
 51
-70.376933525
  0
ARC
  5
A53
330
A02
100
AcDbEntity
  8
Body
100
AcDbCircle
 10
18.000000000
 20
-3.499860730
 30
0.000000000
 40
1.000000000
100
AcDbArc
 50
-0.000000000
 51
89.488867062
  0
ARC
  5
A54
330
A02
100
AcDbEntity
  8
Body
100
AcDbCircle
 10
16.263455967
 20
-16.263455967
 30
0.000000000
 40
5.000000000
100
AcDbArc
 50
73.176524783
 51
109.623066475
  0
LINE
  5
A55
330
A02
100
AcDbEntity
  8
Body
100
AcDbLine
 10
19.000000000
 20
-10.520249997
 30
0.000000000
 11
19.000000000
 21
-3.499860730
 31
0.000000000
  0
ARC
  5
A56
330
A02
100
AcDbEntity
  8
Body
100
AcDbCircle
 10
18.000000000
 20
-10.520249997
 30
0.000000000
 40
1.000000000
100
AcDbArc
 50
-106.823475217
 51
-0.000000000
  0
ARC
  5
A57
330
A02
100
AcDbEntity
  8
Body
100
AcDbCircle
 10
-16.263455967
 20
16.263455967
 30
0.000000000
 40
5.000000000
100
AcDbArc
 50
-19.623066475
 51
0.000000000
  0
ARC
  5
A58
330
A02
100
AcDbEntity
  8
Body
100
AcDbCircle
 10
-9.669999669
 20
13.912640356
 30
0.000000000
 40
2.000000000
100
AcDbArc
 50
160.376933525
 51
-135.000000000
  0
ARC
  5
A59
330
A02
100
AcDbEntity
  8
Body
100
AcDbCircle
 10
-16.263455967
 20
16.263455967
 30
0.000000000
 40
5.000000000
100
AcDbArc
 50
0.000000000
 51
16.823475217
  0
LINE
  5
A5A
330
A02
100
AcDbEntity
  8
Body
100
AcDbLine
 10
-6.085786438
 20
7.500000000
 30
0.000000000
 11
-11.084213231
 21
12.498426793
 31
0.000000000
  0
ARC
  5
A5B
330
A02
100
AcDbEntity
  8
Body
100
AcDbCircle
 10
-10.520249997
 20
18.000000000
 30
0.000000000
 40
1.000000000
100
AcDbArc
 50
90.000000000
 51
-163.176524783
  0
LINE
  5
A5C
330
A02
100
AcDbEntity
  8
Body
100
AcDbLine
 10
6.085786438
 20
7.500000000
 30
0.000000000
 11
-6.085786438
 21
7.500000000
 31
0.000000000
  0
LINE
  5
A5D
330
A02
100
AcDbEntity
  8
Body
100
AcDbLine
 10
-3.499860730
 20
19.000000000
 30
0.000000000
 11
-10.520249997
 21
19.000000000
 31
0.000000000
  0
LINE
  5
A5E
330
A02
100
AcDbEntity
  8
Body
100
AcDbLine
 10
11.084213231
 20
12.498426793
 30
0.000000000
 11
6.085786438
 21
7.500000000
 31
0.000000000
  0
ARC
  5
A5F
330
A02
100
AcDbEntity
  8
Body
100
AcDbCircle
 10
-3.499860730
 20
18.000000000
 30
0.000000000
 40
1.000000000
100
AcDbArc
 50
0.511132938
 51
90.000000000
  0
ARC
  5
A60
330
A02
100
AcDbEntity
  8
Body
100
AcDbCircle
 10
9.669999669
 20
13.912640356
 30
0.000000000
 40
2.000000000
100
AcDbArc
 50
-45.000000000
 51
19.623066475
  0
ARC
  5
A61
330
A02
100
AcDbEntity
  8
Body
100
AcDbCircle
 10
0.000000000
 20
18.031222920
 30
0.000000000
 40
2.500000000
100
AcDbArc
 50
-179.488867062
 51
-0.511132938
  0
ARC
  5
A62
330
A02
100
AcDbEntity
  8
Body
100
AcDbCircle
 10
16.263455967
 20
16.263455967
 30
0.000000000
 40
5.000000000
100
AcDbArc
 50
163.176524783
 51
-160.376933525
  0
ARC
  5
A63
330
A02
100
AcDbEntity
  8
Body
100
AcDbCircle
 10
3.499860730
 20
18.000000000
 30
0.000000000
 40
1.000000000
100
AcDbArc
 50
90.000000000
 51
179.488867062
  0
ARC
  5
A64
330
A02
100
AcDbEntity
  8
Body
100
AcDbCircle
 10
10.520249997
 20
18.000000000
 30
0.000000000
 40
1.000000000
100
AcDbArc
 50
-16.823475217
 51
90.000000000
  0
LINE
  5
A65
330
A02
100
AcDbEntity
  8
Body
100
AcDbLine
 10
10.520249997
 20
19.000000000
 30
0.000000000
 11
3.499860730
 21
19.000000000
 31
0.000000000
  0
ARC
  5
A66
330
A02
100
AcDbEntity
  8
Body
100
AcDbCircle
 10
-16.263455967
 20
-16.263455967
 30
0.000000000
 40
5.000000000
100
AcDbArc
 50
70.376933525
 51
106.823475217
  0
ARC
  5
A67
330
A02
100
AcDbEntity
  8
Body
100
AcDbCircle
 10
-13.912640356
 20
-9.669999669
 30
0.000000000
 40
2.000000000
100
AcDbArc
 50
-109.623066475
 51
-45.000000000
  0
ARC
  5
A68
330
A02
100
AcDbEntity
  8
Body
100
AcDbCircle
 10
-18.000000000
 20
-10.520249997
 30
0.000000000
 40
1.000000000
100
AcDbArc
 50
180.000000000
 51
-73.176524783
  0
LINE
  5
A69
330
A02
100
AcDbEntity
  8
Body
100
AcDbLine
 10
-7.500000000
 20
-6.085786438
 30
0.000000000
 11
-12.498426793
 21
-11.084213231
 31
0.000000000
  0
LINE
  5
A6A
330
A02
100
AcDbEntity
  8
Body
100
AcDbLine
 10
-19.000000000
 20
-3.499860730
 30
0.000000000
 11
-19.000000000
 21
-10.520249997
 31
0.000000000
  0
LINE
  5
A6B
330
A02
100
AcDbEntity
  8
Body
100
AcDbLine
 10
-7.500000000
 20
6.085786438
 30
0.000000000
 11
-7.500000000
 21
-6.085786438
 31
0.000000000
  0
ARC
  5
A6C
330
A02
100
AcDbEntity
  8
Body
100
AcDbCircle
 10
-18.000000000
 20
-3.499860730
 30
0.000000000
 40
1.000000000
100
AcDbArc
 50
90.511132938
 51
180.000000000
  0
LINE
  5
A6D
330
A02
100
AcDbEntity
  8
Body
100
AcDbLine
 10
-12.498426793
 20
11.084213231
 30
0.000000000
 11
-7.500000000
 21
6.085786438
 31
0.000000000
  0
ARC
  5
A6E
330
A02
100
AcDbEntity
  8
Body
100
AcDbCircle
 10
-18.031222920
 20
0.000000000
 30
0.000000000
 40
2.500000000
100
AcDbArc
 50
-89.488867062
 51
-0.000000000
  0
ARC
  5
A6F
330
A02
100
AcDbEntity
  8
Body
100
AcDbCircle
 10
-13.912640356
 20
9.669999669
 30
0.000000000
 40
2.000000000
100
AcDbArc
 50
45.000000000
 51
109.623066475
  0
ARC
  5
A70
330
A02
100
AcDbEntity
  8
Body
100
AcDbCircle
 10
-18.031222920
 20
0.000000000
 30
0.000000000
 40
2.500000000
100
AcDbArc
 50
0.000000000
 51
89.488867062
  0
ARC
  5
A71
330
A02
100
AcDbEntity
  8
Body
100
AcDbCircle
 10
-16.263455967
 20
16.263455967
 30
0.000000000
 40
5.000000000
100
AcDbArc
 50
-106.823475217
 51
-70.376933525
  0
ARC
  5
A72
330
A02
100
AcDbEntity
  8
Body
100
AcDbCircle
 10
-18.000000000
 20
3.499860730
 30
0.000000000
 40
1.000000000
100
AcDbArc
 50
180.000000000
 51
-90.511132938
  0
ARC
  5
A73
330
A02
100
AcDbEntity
  8
Body
100
AcDbCircle
 10
-18.000000000
 20
10.520249997
 30
0.000000000
 40
1.000000000
100
AcDbArc
 50
73.176524783
 51
180.000000000
  0
LINE
  5
A74
330
A02
100
AcDbEntity
  8
Body
100
AcDbLine
 10
-19.000000000
 20
10.520249997
 30
0.000000000
 11
-19.000000000
 21
3.499860730
 31
0.000000000
  0
ARC
  5
A75
330
A02
100
AcDbEntity
  8
Body
100
AcDbCircle
 10
16.263455967
 20
-16.263455967
 30
0.000000000
 40
5.000000000
100
AcDbArc
 50
160.376933525
 51
-163.176524783
  0
LINE
  5
A76
330
A02
100
AcDbEntity
  8
Body
100
AcDbLine
 10
11.553844325
 20
-14.584301959
 30
1.500000000
 11
11.553844325
 21
-14.584301959
 31
0.000000000
  0
LINE
  5
A77
330
A02
100
AcDbEntity
  8
Body
100
AcDbLine
 10
11.477450992
 20
-17.710575995
 30
1.500000000
 11
11.477450992
 21
-17.710575995
 31
0.000000000
  0
ARC
  5
A78
330
A02
100
AcDbEntity
  8
Body
100
AcDbCircle
 10
16.263455967
 20
-16.263455967
 30
1.500000000
 40
5.000000000
100
AcDbArc
 50
160.376933525
 51
-163.176524783
  0
ARC
  5
A79
330
A02
100
AcDbEntity
  8
Body
100
AcDbCircle
 10
9.669999669
 20
-13.912640356
 30
1.500000000
 40
2.000000000
100
AcDbArc
 50
-19.623066475
 51
45.000000000
  0
LINE
  5
A7A
330
A02
100
AcDbEntity
  8
Body
100
AcDbLine
 10
11.553844325
 20
-14.584301959
 30
1.500000000
 11
11.553844325
 21
-14.584301959
 31
0.000000000
  0
LINE
  5
A7B
330
A02
100
AcDbEntity
  8
Body
100
AcDbLine
 10
11.084213231
 20
-12.498426793
 30
1.500000000
 11
11.084213231
 21
-12.498426793
 31
0.000000000
  0
ARC
  5
A7C
330
A02
100
AcDbEntity
  8
Body
100
AcDbCircle
 10
9.669999669
 20
-13.912640356
 30
0.000000000
 40
2.000000000
100
AcDbArc
 50
-19.623066475
 51
45.000000000
  0
ARC
  5
A7D
330
A02
100
AcDbEntity
  8
Body
100
AcDbCircle
 10
10.520249997
 20
-18.000000000
 30
1.500000000
 40
1.000000000
100
AcDbArc
 50
-90.000000000
 51
16.823475217
  0
LINE
  5
A7E
330
A02
100
AcDbEntity
  8
Body
100
AcDbLine
 10
10.520249997
 20
-19.000000000
 30
1.500000000
 11
10.520249997
 21
-19.000000000
 31
0.000000000
  0
LINE
  5
A7F
330
A02
100
AcDbEntity
  8
Body
100
AcDbLine
 10
11.477450992
 20
-17.710575995
 30
1.500000000
 11
11.477450992
 21
-17.710575995
 31
0.000000000
  0
ARC
  5
A80
330
A02
100
AcDbEntity
  8
Body
100
AcDbCircle
 10
10.520249997
 20
-18.000000000
 30
0.000000000
 40
1.000000000
100
AcDbArc
 50
-90.000000000
 51
16.823475217
  0
LINE
  5
A81
330
A02
100
AcDbEntity
  8
Body
100
AcDbLine
 10
6.085786438
 20
-7.500000000
 30
0.000000000
 11
11.084213231
 21
-12.498426793
 31
0.000000000
  0
LINE
  5
A82
330
A02
100
AcDbEntity
  8
Body
100
AcDbLine
 10
11.084213231
 20
-12.498426793
 30
1.500000000
 11
11.084213231
 21
-12.498426793
 31
0.000000000
  0
LINE
  5
A83
330
A02
100
AcDbEntity
  8
Body
100
AcDbLine
 10
6.085786438
 20
-7.500000000
 30
0.000000000
 11
6.085786438
 21
-7.500000000
 31
1.500000000
  0
LINE
  5
A84
330
A02
100
AcDbEntity
  8
Body
100
AcDbLine
 10
6.085786438
 20
-7.500000000
 30
1.500000000
 11
11.084213231
 21
-12.498426793
 31
1.500000000
  0
LINE
  5
A85
330
A02
100
AcDbEntity
  8
Body
100
AcDbLine
 10
3.499860730
 20
-19.000000000
 30
0.000000000
 11
10.520249997
 21
-19.000000000
 31
0.000000000
  0
LINE
  5
A86
330
A02
100
AcDbEntity
  8
Body
100
AcDbLine
 10
10.520249997
 20
-19.000000000
 30
1.500000000
 11
10.520249997
 21
-19.000000000
 31
0.000000000
  0
LINE
  5
A87
330
A02
100
AcDbEntity
  8
Body
100
AcDbLine
 10
3.499860730
 20
-19.000000000
 30
1.500000000
 11
3.499860730
 21
-19.000000000
 31
0.000000000
  0
LINE
  5
A88
330
A02
100
AcDbEntity
  8
Body
100
AcDbLine
 10
10.520249997
 20
-19.000000000
 30
1.500000000
 11
3.499860730
 21
-19.000000000
 31
1.500000000
  0
LINE
  5
A89
330
A02
100
AcDbEntity
  8
Body
100
AcDbLine
 10
-6.085786438
 20
-7.500000000
 30
0.000000000
 11
6.085786438
 21
-7.500000000
 31
0.000000000
  0
LINE
  5
A8A
330
A02
100
AcDbEntity
  8
Body
100
AcDbLine
 10
6.085786438
 20
-7.500000000
 30
0.000000000
 11
6.085786438
 21
-7.500000000
 31
1.500000000
  0
LINE
  5
A8B
330
A02
100
AcDbEntity
  8
Body
100
AcDbLine
 10
-6.085786438
 20
-7.500000000
 30
1.500000000
 11
6.085786438
 21
-7.500000000
 31
1.500000000
  0
LINE
  5
A8C
330
A02
100
AcDbEntity
  8
Body
100
AcDbLine
 10
-6.085786438
 20
-7.500000000
 30
1.500000000
 11
-6.085786438
 21
-7.500000000
 31
0.000000000
  0
ARC
  5
A8D
330
A02
100
AcDbEntity
  8
Body
100
AcDbCircle
 10
3.499860730
 20
-18.000000000
 30
1.500000000
 40
1.000000000
100
AcDbArc
 50
-179.488867062
 51
-90.000000000
  0
LINE
  5
A8E
330
A02
100
AcDbEntity
  8
Body
100
AcDbLine
 10
3.499860730
 20
-19.000000000
 30
1.500000000
 11
3.499860730
 21
-19.000000000
 31
0.000000000
  0
LINE
  5
A8F
330
A02
100
AcDbEntity
  8
Body
100
AcDbLine
 10
2.499900521
 20
-18.008920834
 30
1.500000000
 11
2.499900521
 21
-18.008920834
 31
0.000000000
  0
ARC
  5
A90
330
A02
100
AcDbEntity
  8
Body
100
AcDbCircle
 10
3.499860730
 20
-18.000000000
 30
0.000000000
 40
1.000000000
100
AcDbArc
 50
-179.488867062
 51
-90.000000000
  0
LINE
  5
A91
330
A02
100
AcDbEntity
  8
Body
100
AcDbLine
 10
-11.084213231
 20
-12.498426793
 30
0.000000000
 11
-6.085786438
 21
-7.500000000
 31
0.000000000
  0
LINE
  5
A92
330
A02
100
AcDbEntity
  8
Body
100
AcDbLine
 10
-11.084213231
 20
-12.498426793
 30
1.500000000
 11
-11.084213231
 21
-12.498426793
 31
0.000000000
  0
LINE
  5
A93
330
A02
100
AcDbEntity
  8
Body
100
AcDbLine
 10
-6.085786438
 20
-7.500000000
 30
1.500000000
 11
-6.085786438
 21
-7.500000000
 31
0.000000000
  0
LINE
  5
A94
330
A02
100
AcDbEntity
  8
Body
100
AcDbLine
 10
-11.084213231
 20
-12.498426793
 30
1.500000000
 11
-6.085786438
 21
-7.500000000
 31
1.500000000
  0
ARC
  5
A95
330
A02
100
AcDbEntity
  8
Body
100
AcDbCircle
 10
0.000000000
 20
-18.031222920
 30
0.000000000
 40
2.500000000
100
AcDbArc
 50
0.511132938
 51
179.488867062
  0
LINE
  5
A96
330
A02
100
AcDbEntity
  8
Body
100
AcDbLine
 10
2.499900521
 20
-18.008920834
 30
1.500000000
 11
2.499900521
 21
-18.008920834
 31
0.000000000
  0
LINE
  5
A97
330
A02
100
AcDbEntity
  8
Body
100
AcDbLine
 10
-2.499900521
 20
-18.008920834
 30
1.500000000
 11
-2.499900521
 21
-18.008920834
 31
0.000000000
  0
ARC
  5
A98
330
A02
100
AcDbEntity
  8
Body
100
AcDbCircle
 10
0.000000000
 20
-18.031222920
 30
1.500000000
 40
2.500000000
100
AcDbArc
 50
0.511132938
 51
179.488867062
  0
ARC
  5
A99
330
A02
100
AcDbEntity
  8
Body
100
AcDbCircle
 10
-9.669999669
 20
-13.912640356
 30
1.500000000
 40
2.000000000
100
AcDbArc
 50
135.000000000
 51
-160.376933525
  0
LINE
  5
A9A
330
A02
100
AcDbEntity
  8
Body
100
AcDbLine
 10
-11.084213231
 20
-12.498426793
 30
1.500000000
 11
-11.084213231
 21
-12.498426793
 31
0.000000000
  0
LINE
  5
A9B
330
A02
100
AcDbEntity
  8
Body
100
AcDbLine
 10
-11.553844325
 20
-14.584301959
 30
1.500000000
 11
-11.553844325
 21
-14.584301959
 31
0.000000000
  0
ARC
  5
A9C
330
A02
100
AcDbEntity
  8
Body
100
AcDbCircle
 10
-9.669999669
 20
-13.912640356
 30
0.000000000
 40
2.000000000
100
AcDbArc
 50
135.000000000
 51
-160.376933525
  0
ARC
  5
A9D
330
A02
100
AcDbEntity
  8
Body
100
AcDbCircle
 10
-3.499860730
 20
-18.000000000
 30
1.500000000
 40
1.000000000
100
AcDbArc
 50
-90.000000000
 51
-0.511132938
  0
LINE
  5
A9E
330
A02
100
AcDbEntity
  8
Body
100
AcDbLine
 10
-2.499900521
 20
-18.008920834
 30
1.500000000
 11
-2.499900521
 21
-18.008920834
 31
0.000000000
  0
LINE
  5
A9F
330
A02
100
AcDbEntity
  8
Body
100
AcDbLine
 10
-3.499860730
 20
-19.000000000
 30
1.500000000
 11
-3.499860730
 21
-19.000000000
 31
0.000000000
  0
ARC
  5
AA0
330
A02
100
AcDbEntity
  8
Body
100
AcDbCircle
 10
-3.499860730
 20
-18.000000000
 30
0.000000000
 40
1.000000000
100
AcDbArc
 50
-90.000000000
 51
-0.511132938
  0
ARC
  5
AA1
330
A02
100
AcDbEntity
  8
Body
100
AcDbCircle
 10
-16.263455967
 20
-16.263455967
 30
0.000000000
 40
5.000000000
100
AcDbArc
 50
0.000000000
 51
19.623066475
  0
LINE
  5
AA2
330
A02
100
AcDbEntity
  8
Body
100
AcDbLine
 10
-11.553844325
 20
-14.584301959
 30
1.500000000
 11
-11.553844325
 21
-14.584301959
 31
0.000000000
  0
ARC
  5
AA3
330
A02
100
AcDbEntity
  8
Body
100
AcDbCircle
 10
-16.263455967
 20
-16.263455967
 30
0.000000000
 40
5.000000000
100
AcDbArc
 50
-16.823475217
 51
0.000000000
  0
ARC
  5
AA4
330
A02
100
AcDbEntity
  8
Body
100
AcDbCircle
 10
-16.263455967
 20
-16.263455967
 30
1.500000000
 40
5.000000000
100
AcDbArc
 50
0.000000000
 51
19.623066475
  0
LINE
  5
AA5
330
A02
100
AcDbEntity
  8
Body
100
AcDbLine
 10
-11.477450992
 20
-17.710575995
 30
1.500000000
 11
-11.477450992
 21
-17.710575995
 31
0.000000000
  0
ARC
  5
AA6
330
A02
100
AcDbEntity
  8
Body
100
AcDbCircle
 10
-16.263455967
 20
-16.263455967
 30
1.500000000
 40
5.000000000
100
AcDbArc
 50
-16.823475217
 51
0.000000000
  0
LINE
  5
AA7
330
A02
100
AcDbEntity
  8
Body
100
AcDbLine
 10
-10.520249997
 20
-19.000000000
 30
0.000000000
 11
-3.499860730
 21
-19.000000000
 31
0.000000000
  0
LINE
  5
AA8
330
A02
100
AcDbEntity
  8
Body
100
AcDbLine
 10
-10.520249997
 20
-19.000000000
 30
1.500000000
 11
-10.520249997
 21
-19.000000000
 31
0.000000000
  0
LINE
  5
AA9
330
A02
100
AcDbEntity
  8
Body
100
AcDbLine
 10
-3.499860730
 20
-19.000000000
 30
1.500000000
 11
-3.499860730
 21
-19.000000000
 31
0.000000000
  0
LINE
  5
AAA
330
A02
100
AcDbEntity
  8
Body
100
AcDbLine
 10
-3.499860730
 20
-19.000000000
 30
1.500000000
 11
-10.520249997
 21
-19.000000000
 31
1.500000000
  0
ARC
  5
AAB
330
A02
100
AcDbEntity
  8
Body
100
AcDbCircle
 10
-10.520249997
 20
-18.000000000
 30
1.500000000
 40
1.000000000
100
AcDbArc
 50
163.176524783
 51
-90.000000000
  0
LINE
  5
AAC
330
A02
100
AcDbEntity
  8
Body
100
AcDbLine
 10
-10.520249997
 20
-19.000000000
 30
1.500000000
 11
-10.520249997
 21
-19.000000000
 31
0.000000000
  0
LINE
  5
AAD
330
A02
100
AcDbEntity
  8
Body
100
AcDbLine
 10
-11.477450992
 20
-17.710575995
 30
1.500000000
 11
-11.477450992
 21
-17.710575995
 31
0.000000000
  0
ARC
  5
AAE
330
A02
100
AcDbEntity
  8
Body
100
AcDbCircle
 10
-10.520249997
 20
-18.000000000
 30
0.000000000
 40
1.000000000
100
AcDbArc
 50
163.176524783
 51
-90.000000000
  0
LINE
  5
AAF
330
A02
100
AcDbEntity
  8
Body
100
AcDbLine
 10
6.500000000
 20
-21.500000000
 30
0.000000000
 11
16.500000000
 21
-21.500000000
 31
0.000000000
  0
LINE
  5
AB0
330
A02
100
AcDbEntity
  8
Body
100
AcDbLine
 10
6.500000000
 20
-21.500000000
 30
1.500000000
 11
6.500000000
 21
-21.500000000
 31
0.000000000
  0
LINE
  5
AB1
330
A02
100
AcDbEntity
  8
Body
100
AcDbLine
 10
16.500000000
 20
-21.500000000
 30
0.000000000
 11
16.500000000
 21
-21.500000000
 31
1.500000000
  0
LINE
  5
AB2
330
A02
100
AcDbEntity
  8
Body
100
AcDbLine
 10
6.500000000
 20
-21.500000000
 30
1.500000000
 11
16.500000000
 21
-21.500000000
 31
1.500000000
  0
ARC
  5
AB3
330
A02
100
AcDbEntity
  8
Body
100
AcDbCircle
 10
6.500000000
 20
-24.500000000
 30
1.500000000
 40
3.000000000
100
AcDbArc
 50
90.000000000
 51
180.000000000
  0
LINE
  5
AB4
330
A02
100
AcDbEntity
  8
Body
100
AcDbLine
 10
6.500000000
 20
-21.500000000
 30
1.500000000
 11
6.500000000
 21
-21.500000000
 31
0.000000000
  0
LINE
  5
AB5
330
A02
100
AcDbEntity
  8
Body
100
AcDbLine
 10
3.500000000
 20
-24.500000000
 30
1.500000000
 11
3.500000000
 21
-24.500000000
 31
0.000000000
  0
ARC
  5
AB6
330
A02
100
AcDbEntity
  8
Body
100
AcDbCircle
 10
6.500000000
 20
-24.500000000
 30
0.000000000
 40
3.000000000
100
AcDbArc
 50
90.000000000
 51
180.000000000
  0
LINE
  5
AB7
330
A02
100
AcDbEntity
  8
Body
100
AcDbLine
 10
16.500000000
 20
-21.500000000
 30
0.000000000
 11
16.500000000
 21
-21.500000000
 31
1.500000000
  0
LINE
  5
AB8
330
A02
100
AcDbEntity
  8
Body
100
AcDbLine
 10
21.500000000
 20
-16.500000000
 30
0.000000000
 11
21.500000000
 21
-16.500000000
 31
1.500000000
  0
ARC
  5
AB9
330
A02
100
AcDbEntity
  8
Body
100
AcDbCircle
 10
16.500000000
 20
-16.500000000
 30
0.000000000
 40
5.000000000
100
AcDbArc
 50
-90.000000000
 51
0.000000000
  0
ARC
  5
ABA
330
A02
100
AcDbEntity
  8
Body
100
AcDbCircle
 10
16.500000000
 20
-16.500000000
 30
1.500000000
 40
5.000000000
100
AcDbArc
 50
-90.000000000
 51
0.000000000
  0
LINE
  5
ABB
330
A02
100
AcDbEntity
  8
Body
100
AcDbLine
 10
3.500000000
 20
-24.500000000
 30
0.000000000
 11
3.500000000
 21
-28.000000000
 31
0.000000000
  0
LINE
  5
ABC
330
A02
100
AcDbEntity
  8
Body
100
AcDbLine
 10
3.500000000
 20
-24.500000000
 30
1.500000000
 11
3.500000000
 21
-24.500000000
 31
0.000000000
  0
LINE
  5
ABD
330
A02
100
AcDbEntity
  8
Body
100
AcDbLine
 10
3.500000000
 20
-28.000000000
 30
0.000000000
 11
3.500000000
 21
-28.000000000
 31
1.500000000
  0
LINE
  5
ABE
330
A02
100
AcDbEntity
  8
Body
100
AcDbLine
 10
3.500000000
 20
-24.500000000
 30
1.500000000
 11
3.500000000
 21
-28.000000000
 31
1.500000000
  0
LINE
  5
ABF
330
A02
100
AcDbEntity
  8
Body
100
AcDbLine
 10
21.500000000
 20
-16.500000000
 30
0.000000000
 11
21.500000000
 21
-16.500000000
 31
1.500000000
  0
LINE
  5
AC0
330
A02
100
AcDbEntity
  8
Body
100
AcDbLine
 10
21.500000000
 20
16.500000000
 30
0.000000000
 11
21.500000000
 21
16.500000000
 31
1.500000000
  0
LINE
  5
AC1
330
A02
100
AcDbEntity
  8
Body
100
AcDbLine
 10
21.500000000
 20
-16.500000000
 30
0.000000000
 11
21.500000000
 21
16.500000000
 31
0.000000000
  0
LINE
  5
AC2
330
A02
100
AcDbEntity
  8
Body
100
AcDbLine
 10
21.500000000
 20
-16.500000000
 30
1.500000000
 11
21.500000000
 21
16.500000000
 31
1.500000000
  0
LINE
  5
AC3
330
A02
100
AcDbEntity
  8
Body
100
AcDbLine
 10
-3.500000000
 20
-28.000000000
 30
0.000000000
 11
-3.500000000
 21
-28.000000000
 31
1.500000000
  0
LINE
  5
AC4
330
A02
100
AcDbEntity
  8
Body
100
AcDbLine
 10
3.500000000
 20
-28.000000000
 30
0.000000000
 11
3.500000000
 21
-28.000000000
 31
1.500000000
  0
ARC
  5
AC5
330
A02
100
AcDbEntity
  8
Body
100
AcDbCircle
 10
0.000000000
 20
-28.000000000
 30
0.000000000
 40
3.500000000
100
AcDbArc
 50
180.000000000
 51
0.000000000
  0
ARC
  5
AC6
330
A02
100
AcDbEntity
  8
Body
100
AcDbCircle
 10
0.000000000
 20
-28.000000000
 30
1.500000000
 40
3.500000000
100
AcDbArc
 50
180.000000000
 51
0.000000000
  0
LINE
  5
AC7
330
A02
100
AcDbEntity
  8
Body
100
AcDbLine
 10
21.500000000
 20
16.500000000
 30
0.000000000
 11
21.500000000
 21
16.500000000
 31
1.500000000
  0
LINE
  5
AC8
330
A02
100
AcDbEntity
  8
Body
100
AcDbLine
 10
16.500000000
 20
21.500000000
 30
0.000000000
 11
16.500000000
 21
21.500000000
 31
1.500000000
  0
ARC
  5
AC9
330
A02
100
AcDbEntity
  8
Body
100
AcDbCircle
 10
16.500000000
 20
16.500000000
 30
0.000000000
 40
5.000000000
100
AcDbArc
 50
0.000000000
 51
90.000000000
  0
ARC
  5
ACA
330
A02
100
AcDbEntity
  8
Body
100
AcDbCircle
 10
16.500000000
 20
16.500000000
 30
1.500000000
 40
5.000000000
100
AcDbArc
 50
0.000000000
 51
90.000000000
  0
LINE
  5
ACB
330
A02
100
AcDbEntity
  8
Body
100
AcDbLine
 10
-3.500000000
 20
-24.500000000
 30
0.000000000
 11
-3.500000000
 21
-28.000000000
 31
0.000000000
  0
LINE
  5
ACC
330
A02
100
AcDbEntity
  8
Body
100
AcDbLine
 10
-3.500000000
 20
-24.500000000
 30
1.500000000
 11
-3.500000000
 21
-24.500000000
 31
0.000000000
  0
LINE
  5
ACD
330
A02
100
AcDbEntity
  8
Body
100
AcDbLine
 10
-3.500000000
 20
-28.000000000
 30
0.000000000
 11
-3.500000000
 21
-28.000000000
 31
1.500000000
  0
LINE
  5
ACE
330
A02
100
AcDbEntity
  8
Body
100
AcDbLine
 10
-3.500000000
 20
-24.500000000
 30
1.500000000
 11
-3.500000000
 21
-28.000000000
 31
1.500000000
  0
LINE
  5
ACF
330
A02
100
AcDbEntity
  8
Body
100
AcDbLine
 10
16.500000000
 20
21.500000000
 30
0.000000000
 11
16.500000000
 21
21.500000000
 31
1.500000000
  0
LINE
  5
AD0
330
A02
100
AcDbEntity
  8
Body
100
AcDbLine
 10
-16.500000000
 20
21.500000000
 30
0.000000000
 11
-16.500000000
 21
21.500000000
 31
1.500000000
  0
LINE
  5
AD1
330
A02
100
AcDbEntity
  8
Body
100
AcDbLine
 10
16.500000000
 20
21.500000000
 30
0.000000000
 11
-16.500000000
 21
21.500000000
 31
0.000000000
  0
LINE
  5
AD2
330
A02
100
AcDbEntity
  8
Body
100
AcDbLine
 10
16.500000000
 20
21.500000000
 30
1.500000000
 11
-16.500000000
 21
21.500000000
 31
1.500000000
  0
ARC
  5
AD3
330
A02
100
AcDbEntity
  8
Body
100
AcDbCircle
 10
-6.500000000
 20
-24.500000000
 30
1.500000000
 40
3.000000000
100
AcDbArc
 50
0.000000000
 51
90.000000000
  0
LINE
  5
AD4
330
A02
100
AcDbEntity
  8
Body
100
AcDbLine
 10
-3.500000000
 20
-24.500000000
 30
1.500000000
 11
-3.500000000
 21
-24.500000000
 31
0.000000000
  0
LINE
  5
AD5
330
A02
100
AcDbEntity
  8
Body
100
AcDbLine
 10
-6.500000000
 20
-21.500000000
 30
1.500000000
 11
-6.500000000
 21
-21.500000000
 31
0.000000000
  0
ARC
  5
AD6
330
A02
100
AcDbEntity
  8
Body
100
AcDbCircle
 10
-6.500000000
 20
-24.500000000
 30
0.000000000
 40
3.000000000
100
AcDbArc
 50
0.000000000
 51
90.000000000
  0
LINE
  5
AD7
330
A02
100
AcDbEntity
  8
Body
100
AcDbLine
 10
-16.500000000
 20
21.500000000
 30
0.000000000
 11
-16.500000000
 21
21.500000000
 31
1.500000000
  0
LINE
  5
AD8
330
A02
100
AcDbEntity
  8
Body
100
AcDbLine
 10
-21.500000000
 20
16.500000000
 30
0.000000000
 11
-21.500000000
 21
16.500000000
 31
1.500000000
  0
ARC
  5
AD9
330
A02
100
AcDbEntity
  8
Body
100
AcDbCircle
 10
-16.500000000
 20
16.500000000
 30
0.000000000
 40
5.000000000
100
AcDbArc
 50
90.000000000
 51
180.000000000
  0
ARC
  5
ADA
330
A02
100
AcDbEntity
  8
Body
100
AcDbCircle
 10
-16.500000000
 20
16.500000000
 30
1.500000000
 40
5.000000000
100
AcDbArc
 50
90.000000000
 51
180.000000000
  0
LINE
  5
ADB
330
A02
100
AcDbEntity
  8
Body
100
AcDbLine
 10
-16.500000000
 20
-21.500000000
 30
0.000000000
 11
-6.500000000
 21
-21.500000000
 31
0.000000000
  0
LINE
  5
ADC
330
A02
100
AcDbEntity
  8
Body
100
AcDbLine
 10
-6.500000000
 20
-21.500000000
 30
1.500000000
 11
-6.500000000
 21
-21.500000000
 31
0.000000000
  0
LINE
  5
ADD
330
A02
100
AcDbEntity
  8
Body
100
AcDbLine
 10
-16.500000000
 20
-21.500000000
 30
0.000000000
 11
-16.500000000
 21
-21.500000000
 31
1.500000000
  0
LINE
  5
ADE
330
A02
100
AcDbEntity
  8
Body
100
AcDbLine
 10
-16.500000000
 20
-21.500000000
 30
1.500000000
 11
-6.500000000
 21
-21.500000000
 31
1.500000000
  0
LINE
  5
ADF
330
A02
100
AcDbEntity
  8
Body
100
AcDbLine
 10
-21.500000000
 20
16.500000000
 30
0.000000000
 11
-21.500000000
 21
16.500000000
 31
1.500000000
  0
LINE
  5
AE0
330
A02
100
AcDbEntity
  8
Body
100
AcDbLine
 10
-21.500000000
 20
-16.500000000
 30
0.000000000
 11
-21.500000000
 21
-16.500000000
 31
1.500000000
  0
LINE
  5
AE1
330
A02
100
AcDbEntity
  8
Body
100
AcDbLine
 10
-21.500000000
 20
16.500000000
 30
0.000000000
 11
-21.500000000
 21
-16.500000000
 31
0.000000000
  0
LINE
  5
AE2
330
A02
100
AcDbEntity
  8
Body
100
AcDbLine
 10
-21.500000000
 20
16.500000000
 30
1.500000000
 11
-21.500000000
 21
-16.500000000
 31
1.500000000
  0
LINE
  5
AE3
330
A02
100
AcDbEntity
  8
Body
100
AcDbLine
 10
-21.500000000
 20
-16.500000000
 30
0.000000000
 11
-21.500000000
 21
-16.500000000
 31
1.500000000
  0
LINE
  5
AE4
330
A02
100
AcDbEntity
  8
Body
100
AcDbLine
 10
-16.500000000
 20
-21.500000000
 30
0.000000000
 11
-16.500000000
 21
-21.500000000
 31
1.500000000
  0
ARC
  5
AE5
330
A02
100
AcDbEntity
  8
Body
100
AcDbCircle
 10
-16.500000000
 20
-16.500000000
 30
0.000000000
 40
5.000000000
100
AcDbArc
 50
-180.000000000
 51
-90.000000000
  0
ARC
  5
AE6
330
A02
100
AcDbEntity
  8
Body
100
AcDbCircle
 10
-16.500000000
 20
-16.500000000
 30
1.500000000
 40
5.000000000
100
AcDbArc
 50
-180.000000000
 51
-90.000000000
  0
LINE
  5
AE7
330
A02
100
AcDbEntity
  8
Body
100
AcDbLine
 10
17.796908345
 20
-18.596908345
 30
0.000000000
 11
17.796908345
 21
-18.596908345
 31
1.500000000
  0
CIRCLE
  5
AE8
330
A02
100
AcDbEntity
  8
Body
100
AcDbCircle
 10
18.596908345
 20
-18.596908345
 30
1.500000000
 40
0.800000000
  0
LINE
  5
AE9
330
A02
100
AcDbEntity
  8
Body
100
AcDbLine
 10
17.796908345
 20
-18.596908345
 30
0.000000000
 11
17.796908345
 21
-18.596908345
 31
1.500000000
  0
CIRCLE
  5
AEA
330
A02
100
AcDbEntity
  8
Body
100
AcDbCircle
 10
18.596908345
 20
-18.596908345
 30
0.000000000
 40
0.800000000
  0
LINE
  5
AEB
330
A02
100
AcDbEntity
  8
Body
100
AcDbLine
 10
12.275900741
 20
-17.117558816
 30
0.000000000
 11
12.275900741
 21
-17.117558816
 31
1.500000000
  0
CIRCLE
  5
AEC
330
A02
100
AcDbEntity
  8
Body
100
AcDbCircle
 10
13.075900741
 20
-17.117558816
 30
1.500000000
 40
0.800000000
  0
LINE
  5
AED
330
A02
100
AcDbEntity
  8
Body
100
AcDbLine
 10
12.275900741
 20
-17.117558816
 30
0.000000000
 11
12.275900741
 21
-17.117558816
 31
1.500000000
  0
CIRCLE
  5
AEE
330
A02
100
AcDbEntity
  8
Body
100
AcDbCircle
 10
13.075900741
 20
-17.117558816
 30
0.000000000
 40
0.800000000
  0
CIRCLE
  5
AEF
330
A02
100
AcDbEntity
  8
Body
100
AcDbCircle
 10
16.263455967
 20
-16.263455967
 30
0.000000000
 40
1.750000000
  0
LINE
  5
AF0
330
A02
100
AcDbEntity
  8
Body
100
AcDbLine
 10
18.013455967
 20
-16.263455967
 30
0.000000000
 11
18.013455967
 21
-16.263455967
 31
1.500000000
  0
CIRCLE
  5
AF1
330
A02
100
AcDbEntity
  8
Body
100
AcDbCircle
 10
16.263455967
 20
-16.263455967
 30
1.500000000
 40
1.750000000
  0
LINE
  5
AF2
330
A02
100
AcDbEntity
  8
Body
100
AcDbLine
 10
18.013455967
 20
-16.263455967
 30
0.000000000
 11
18.013455967
 21
-16.263455967
 31
1.500000000
  0
LINE
  5
AF3
330
A02
100
AcDbEntity
  8
Body
100
AcDbLine
 10
16.317558816
 20
-13.075900741
 30
0.000000000
 11
16.317558816
 21
-13.075900741
 31
1.500000000
  0
CIRCLE
  5
AF4
330
A02
100
AcDbEntity
  8
Body
100
AcDbCircle
 10
17.117558816
 20
-13.075900741
 30
1.500000000
 40
0.800000000
  0
LINE
  5
AF5
330
A02
100
AcDbEntity
  8
Body
100
AcDbLine
 10
16.317558816
 20
-13.075900741
 30
0.000000000
 11
16.317558816
 21
-13.075900741
 31
1.500000000
  0
CIRCLE
  5
AF6
330
A02
100
AcDbEntity
  8
Body
100
AcDbCircle
 10
17.117558816
 20
-13.075900741
 30
0.000000000
 40
0.800000000
  0
LINE
  5
AF7
330
A02
100
AcDbEntity
  8
Body
100
AcDbLine
 10
-0.900000000
 20
-27.750000000
 30
0.000000000
 11
0.900000000
 21
-27.750000000
 31
0.000000000
  0
LINE
  5
AF8
330
A02
100
AcDbEntity
  8
Body
100
AcDbLine
 10
0.900000000
 20
-27.750000000
 30
0.000000000
 11
0.900000000
 21
-27.750000000
 31
1.500000000
  0
LINE
  5
AF9
330
A02
100
AcDbEntity
  8
Body
100
AcDbLine
 10
0.900000000
 20
-27.750000000
 30
1.500000000
 11
-0.900000000
 21
-27.750000000
 31
1.500000000
  0
LINE
  5
AFA
330
A02
100
AcDbEntity
  8
Body
100
AcDbLine
 10
-0.900000000
 20
-27.750000000
 30
0.000000000
 11
-0.900000000
 21
-27.750000000
 31
1.500000000
  0
ARC
  5
AFB
330
A02
100
AcDbEntity
  8
Body
100
AcDbCircle
 10
-0.900000000
 20
-28.500000000
 30
0.000000000
 40
0.750000000
100
AcDbArc
 50
90.000000000
 51
-90.000000000
  0
LINE
  5
AFC
330
A02
100
AcDbEntity
  8
Body
100
AcDbLine
 10
-0.900000000
 20
-29.250000000
 30
0.000000000
 11
-0.900000000
 21
-29.250000000
 31
1.500000000
  0
ARC
  5
AFD
330
A02
100
AcDbEntity
  8
Body
100
AcDbCircle
 10
-0.900000000
 20
-28.500000000
 30
1.500000000
 40
0.750000000
100
AcDbArc
 50
90.000000000
 51
-90.000000000
  0
LINE
  5
AFE
330
A02
100
AcDbEntity
  8
Body
100
AcDbLine
 10
-0.900000000
 20
-27.750000000
 30
0.000000000
 11
-0.900000000
 21
-27.750000000
 31
1.500000000
  0
ARC
  5
AFF
330
A02
100
AcDbEntity
  8
Body
100
AcDbCircle
 10
0.900000000
 20
-28.500000000
 30
0.000000000
 40
0.750000000
100
AcDbArc
 50
-90.000000000
 51
90.000000000
  0
LINE
  5
B00
330
A02
100
AcDbEntity
  8
Body
100
AcDbLine
 10
0.900000000
 20
-27.750000000
 30
0.000000000
 11
0.900000000
 21
-27.750000000
 31
1.500000000
  0
ARC
  5
B01
330
A02
100
AcDbEntity
  8
Body
100
AcDbCircle
 10
0.900000000
 20
-28.500000000
 30
1.500000000
 40
0.750000000
100
AcDbArc
 50
-90.000000000
 51
90.000000000
  0
LINE
  5
B02
330
A02
100
AcDbEntity
  8
Body
100
AcDbLine
 10
0.900000000
 20
-29.250000000
 30
0.000000000
 11
0.900000000
 21
-29.250000000
 31
1.500000000
  0
LINE
  5
B03
330
A02
100
AcDbEntity
  8
Body
100
AcDbLine
 10
-0.900000000
 20
-29.250000000
 30
0.000000000
 11
0.900000000
 21
-29.250000000
 31
0.000000000
  0
LINE
  5
B04
330
A02
100
AcDbEntity
  8
Body
100
AcDbLine
 10
0.900000000
 20
-29.250000000
 30
0.000000000
 11
0.900000000
 21
-29.250000000
 31
1.500000000
  0
LINE
  5
B05
330
A02
100
AcDbEntity
  8
Body
100
AcDbLine
 10
0.900000000
 20
-29.250000000
 30
1.500000000
 11
-0.900000000
 21
-29.250000000
 31
1.500000000
  0
LINE
  5
B06
330
A02
100
AcDbEntity
  8
Body
100
AcDbLine
 10
-0.900000000
 20
-29.250000000
 30
0.000000000
 11
-0.900000000
 21
-29.250000000
 31
1.500000000
  0
LINE
  5
B07
330
A02
100
AcDbEntity
  8
Body
100
AcDbLine
 10
-0.900000000
 20
-24.750000000
 30
0.000000000
 11
0.900000000
 21
-24.750000000
 31
0.000000000
  0
LINE
  5
B08
330
A02
100
AcDbEntity
  8
Body
100
AcDbLine
 10
0.900000000
 20
-24.750000000
 30
0.000000000
 11
0.900000000
 21
-24.750000000
 31
1.500000000
  0
LINE
  5
B09
330
A02
100
AcDbEntity
  8
Body
100
AcDbLine
 10
0.900000000
 20
-24.750000000
 30
1.500000000
 11
-0.900000000
 21
-24.750000000
 31
1.500000000
  0
LINE
  5
B0A
330
A02
100
AcDbEntity
  8
Body
100
AcDbLine
 10
-0.900000000
 20
-24.750000000
 30
0.000000000
 11
-0.900000000
 21
-24.750000000
 31
1.500000000
  0
ARC
  5
B0B
330
A02
100
AcDbEntity
  8
Body
100
AcDbCircle
 10
-0.900000000
 20
-25.500000000
 30
0.000000000
 40
0.750000000
100
AcDbArc
 50
90.000000000
 51
-90.000000000
  0
LINE
  5
B0C
330
A02
100
AcDbEntity
  8
Body
100
AcDbLine
 10
-0.900000000
 20
-26.250000000
 30
0.000000000
 11
-0.900000000
 21
-26.250000000
 31
1.500000000
  0
ARC
  5
B0D
330
A02
100
AcDbEntity
  8
Body
100
AcDbCircle
 10
-0.900000000
 20
-25.500000000
 30
1.500000000
 40
0.750000000
100
AcDbArc
 50
90.000000000
 51
-90.000000000
  0
LINE
  5
B0E
330
A02
100
AcDbEntity
  8
Body
100
AcDbLine
 10
-0.900000000
 20
-24.750000000
 30
0.000000000
 11
-0.900000000
 21
-24.750000000
 31
1.500000000
  0
ARC
  5
B0F
330
A02
100
AcDbEntity
  8
Body
100
AcDbCircle
 10
0.900000000
 20
-25.500000000
 30
0.000000000
 40
0.750000000
100
AcDbArc
 50
-90.000000000
 51
90.000000000
  0
LINE
  5
B10
330
A02
100
AcDbEntity
  8
Body
100
AcDbLine
 10
0.900000000
 20
-24.750000000
 30
0.000000000
 11
0.900000000
 21
-24.750000000
 31
1.500000000
  0
ARC
  5
B11
330
A02
100
AcDbEntity
  8
Body
100
AcDbCircle
 10
0.900000000
 20
-25.500000000
 30
1.500000000
 40
0.750000000
100
AcDbArc
 50
-90.000000000
 51
90.000000000
  0
LINE
  5
B12
330
A02
100
AcDbEntity
  8
Body
100
AcDbLine
 10
0.900000000
 20
-26.250000000
 30
0.000000000
 11
0.900000000
 21
-26.250000000
 31
1.500000000
  0
LINE
  5
B13
330
A02
100
AcDbEntity
  8
Body
100
AcDbLine
 10
-0.900000000
 20
-26.250000000
 30
0.000000000
 11
0.900000000
 21
-26.250000000
 31
0.000000000
  0
LINE
  5
B14
330
A02
100
AcDbEntity
  8
Body
100
AcDbLine
 10
0.900000000
 20
-26.250000000
 30
0.000000000
 11
0.900000000
 21
-26.250000000
 31
1.500000000
  0
LINE
  5
B15
330
A02
100
AcDbEntity
  8
Body
100
AcDbLine
 10
0.900000000
 20
-26.250000000
 30
1.500000000
 11
-0.900000000
 21
-26.250000000
 31
1.500000000
  0
LINE
  5
B16
330
A02
100
AcDbEntity
  8
Body
100
AcDbLine
 10
-0.900000000
 20
-26.250000000
 30
0.000000000
 11
-0.900000000
 21
-26.250000000
 31
1.500000000
  0
ARC
  5
B17
330
A02
100
AcDbEntity
  8
Body
100
AcDbCircle
 10
-0.900000000
 20
-22.500000000
 30
0.000000000
 40
0.750000000
100
AcDbArc
 50
90.000000000
 51
-90.000000000
  0
LINE
  5
B18
330
A02
100
AcDbEntity
  8
Body
100
AcDbLine
 10
-0.900000000
 20
-23.250000000
 30
0.000000000
 11
-0.900000000
 21
-23.250000000
 31
1.500000000
  0
ARC
  5
B19
330
A02
100
AcDbEntity
  8
Body
100
AcDbCircle
 10
-0.900000000
 20
-22.500000000
 30
1.500000000
 40
0.750000000
100
AcDbArc
 50
90.000000000
 51
-90.000000000
  0
LINE
  5
B1A
330
A02
100
AcDbEntity
  8
Body
100
AcDbLine
 10
-0.900000000
 20
-21.750000000
 30
0.000000000
 11
-0.900000000
 21
-21.750000000
 31
1.500000000
  0
LINE
  5
B1B
330
A02
100
AcDbEntity
  8
Body
100
AcDbLine
 10
-0.900000000
 20
-21.750000000
 30
0.000000000
 11
0.900000000
 21
-21.750000000
 31
0.000000000
  0
LINE
  5
B1C
330
A02
100
AcDbEntity
  8
Body
100
AcDbLine
 10
0.900000000
 20
-21.750000000
 30
0.000000000
 11
0.900000000
 21
-21.750000000
 31
1.500000000
  0
LINE
  5
B1D
330
A02
100
AcDbEntity
  8
Body
100
AcDbLine
 10
0.900000000
 20
-21.750000000
 30
1.500000000
 11
-0.900000000
 21
-21.750000000
 31
1.500000000
  0
LINE
  5
B1E
330
A02
100
AcDbEntity
  8
Body
100
AcDbLine
 10
-0.900000000
 20
-21.750000000
 30
0.000000000
 11
-0.900000000
 21
-21.750000000
 31
1.500000000
  0
LINE
  5
B1F
330
A02
100
AcDbEntity
  8
Body
100
AcDbLine
 10
-0.900000000
 20
-23.250000000
 30
0.000000000
 11
0.900000000
 21
-23.250000000
 31
0.000000000
  0
LINE
  5
B20
330
A02
100
AcDbEntity
  8
Body
100
AcDbLine
 10
0.900000000
 20
-23.250000000
 30
0.000000000
 11
0.900000000
 21
-23.250000000
 31
1.500000000
  0
LINE
  5
B21
330
A02
100
AcDbEntity
  8
Body
100
AcDbLine
 10
0.900000000
 20
-23.250000000
 30
1.500000000
 11
-0.900000000
 21
-23.250000000
 31
1.500000000
  0
LINE
  5
B22
330
A02
100
AcDbEntity
  8
Body
100
AcDbLine
 10
-0.900000000
 20
-23.250000000
 30
0.000000000
 11
-0.900000000
 21
-23.250000000
 31
1.500000000
  0
ARC
  5
B23
330
A02
100
AcDbEntity
  8
Body
100
AcDbCircle
 10
0.900000000
 20
-22.500000000
 30
0.000000000
 40
0.750000000
100
AcDbArc
 50
-90.000000000
 51
90.000000000
  0
LINE
  5
B24
330
A02
100
AcDbEntity
  8
Body
100
AcDbLine
 10
0.900000000
 20
-21.750000000
 30
0.000000000
 11
0.900000000
 21
-21.750000000
 31
1.500000000
  0
ARC
  5
B25
330
A02
100
AcDbEntity
  8
Body
100
AcDbCircle
 10
0.900000000
 20
-22.500000000
 30
1.500000000
 40
0.750000000
100
AcDbArc
 50
-90.000000000
 51
90.000000000
  0
LINE
  5
B26
330
A02
100
AcDbEntity
  8
Body
100
AcDbLine
 10
0.900000000
 20
-23.250000000
 30
0.000000000
 11
0.900000000
 21
-23.250000000
 31
1.500000000
  0
LINE
  5
B27
330
A02
100
AcDbEntity
  8
Body
100
AcDbLine
 10
-1.200000000
 20
-18.031222920
 30
0.000000000
 11
-1.200000000
 21
-18.031222920
 31
1.500000000
  0
CIRCLE
  5
B28
330
A02
100
AcDbEntity
  8
Body
100
AcDbCircle
 10
0.000000000
 20
-18.031222920
 30
1.500000000
 40
1.200000000
  0
LINE
  5
B29
330
A02
100
AcDbEntity
  8
Body
100
AcDbLine
 10
-1.200000000
 20
-18.031222920
 30
0.000000000
 11
-1.200000000
 21
-18.031222920
 31
1.500000000
  0
CIRCLE
  5
B2A
330
A02
100
AcDbEntity
  8
Body
100
AcDbCircle
 10
0.000000000
 20
-18.031222920
 30
0.000000000
 40
1.200000000
  0
LINE
  5
B2B
330
A02
100
AcDbEntity
  8
Body
100
AcDbLine
 10
-13.875900741
 20
-17.117558816
 30
0.000000000
 11
-13.875900741
 21
-17.117558816
 31
1.500000000
  0
CIRCLE
  5
B2C
330
A02
100
AcDbEntity
  8
Body
100
AcDbCircle
 10
-13.075900741
 20
-17.117558816
 30
1.500000000
 40
0.800000000
  0
LINE
  5
B2D
330
A02
100
AcDbEntity
  8
Body
100
AcDbLine
 10
-13.875900741
 20
-17.117558816
 30
0.000000000
 11
-13.875900741
 21
-17.117558816
 31
1.500000000
  0
CIRCLE
  5
B2E
330
A02
100
AcDbEntity
  8
Body
100
AcDbCircle
 10
-13.075900741
 20
-17.117558816
 30
0.000000000
 40
0.800000000
  0
LINE
  5
B2F
330
A02
100
AcDbEntity
  8
Body
100
AcDbLine
 10
-19.396908345
 20
-18.596908345
 30
0.000000000
 11
-19.396908345
 21
-18.596908345
 31
1.500000000
  0
CIRCLE
  5
B30
330
A02
100
AcDbEntity
  8
Body
100
AcDbCircle
 10
-18.596908345
 20
-18.596908345
 30
1.500000000
 40
0.800000000
  0
LINE
  5
B31
330
A02
100
AcDbEntity
  8
Body
100
AcDbLine
 10
-19.396908345
 20
-18.596908345
 30
0.000000000
 11
-19.396908345
 21
-18.596908345
 31
1.500000000
  0
CIRCLE
  5
B32
330
A02
100
AcDbEntity
  8
Body
100
AcDbCircle
 10
-18.596908345
 20
-18.596908345
 30
0.000000000
 40
0.800000000
  0
CIRCLE
  5
B33
330
A02
100
AcDbEntity
  8
Body
100
AcDbCircle
 10
-16.263455967
 20
-16.263455967
 30
0.000000000
 40
1.750000000
  0
LINE
  5
B34
330
A02
100
AcDbEntity
  8
Body
100
AcDbLine
 10
-14.513455967
 20
-16.263455967
 30
0.000000000
 11
-14.513455967
 21
-16.263455967
 31
1.500000000
  0
CIRCLE
  5
B35
330
A02
100
AcDbEntity
  8
Body
100
AcDbCircle
 10
-16.263455967
 20
-16.263455967
 30
1.500000000
 40
1.750000000
  0
LINE
  5
B36
330
A02
100
AcDbEntity
  8
Body
100
AcDbLine
 10
-14.513455967
 20
-16.263455967
 30
0.000000000
 11
-14.513455967
 21
-16.263455967
 31
1.500000000
  0
LINE
  5
B37
330
A02
100
AcDbEntity
  8
Body
100
AcDbLine
 10
-17.917558816
 20
-13.075900741
 30
0.000000000
 11
-17.917558816
 21
-13.075900741
 31
1.500000000
  0
CIRCLE
  5
B38
330
A02
100
AcDbEntity
  8
Body
100
AcDbCircle
 10
-17.117558816
 20
-13.075900741
 30
1.500000000
 40
0.800000000
  0
LINE
  5
B39
330
A02
100
AcDbEntity
  8
Body
100
AcDbLine
 10
-17.917558816
 20
-13.075900741
 30
0.000000000
 11
-17.917558816
 21
-13.075900741
 31
1.500000000
  0
CIRCLE
  5
B3A
330
A02
100
AcDbEntity
  8
Body
100
AcDbCircle
 10
-17.117558816
 20
-13.075900741
 30
0.000000000
 40
0.800000000
  0
LINE
  5
B3B
330
A02
100
AcDbEntity
  8
Body
100
AcDbLine
 10
16.831222920
 20
0.000000000
 30
0.000000000
 11
16.831222920
 21
0.000000000
 31
1.500000000
  0
CIRCLE
  5
B3C
330
A02
100
AcDbEntity
  8
Body
100
AcDbCircle
 10
18.031222920
 20
0.000000000
 30
1.500000000
 40
1.200000000
  0
LINE
  5
B3D
330
A02
100
AcDbEntity
  8
Body
100
AcDbLine
 10
16.831222920
 20
0.000000000
 30
0.000000000
 11
16.831222920
 21
0.000000000
 31
1.500000000
  0
CIRCLE
  5
B3E
330
A02
100
AcDbEntity
  8
Body
100
AcDbCircle
 10
18.031222920
 20
0.000000000
 30
0.000000000
 40
1.200000000
  0
LINE
  5
B3F
330
A02
100
AcDbEntity
  8
Body
100
AcDbLine
 10
16.317558816
 20
13.075900741
 30
0.000000000
 11
16.317558816
 21
13.075900741
 31
1.500000000
  0
CIRCLE
  5
B40
330
A02
100
AcDbEntity
  8
Body
100
AcDbCircle
 10
17.117558816
 20
13.075900741
 30
1.500000000
 40
0.800000000
  0
LINE
  5
B41
330
A02
100
AcDbEntity
  8
Body
100
AcDbLine
 10
16.317558816
 20
13.075900741
 30
0.000000000
 11
16.317558816
 21
13.075900741
 31
1.500000000
  0
CIRCLE
  5
B42
330
A02
100
AcDbEntity
  8
Body
100
AcDbCircle
 10
17.117558816
 20
13.075900741
 30
0.000000000
 40
0.800000000
  0
CIRCLE
  5
B43
330
A02
100
AcDbEntity
  8
Body
100
AcDbCircle
 10
16.263455967
 20
16.263455967
 30
0.000000000
 40
1.750000000
  0
LINE
  5
B44
330
A02
100
AcDbEntity
  8
Body
100
AcDbLine
 10
18.013455967
 20
16.263455967
 30
0.000000000
 11
18.013455967
 21
16.263455967
 31
1.500000000
  0
CIRCLE
  5
B45
330
A02
100
AcDbEntity
  8
Body
100
AcDbCircle
 10
16.263455967
 20
16.263455967
 30
1.500000000
 40
1.750000000
  0
LINE
  5
B46
330
A02
100
AcDbEntity
  8
Body
100
AcDbLine
 10
18.013455967
 20
16.263455967
 30
0.000000000
 11
18.013455967
 21
16.263455967
 31
1.500000000
  0
LINE
  5
B47
330
A02
100
AcDbEntity
  8
Body
100
AcDbLine
 10
17.796908345
 20
18.596908345
 30
0.000000000
 11
17.796908345
 21
18.596908345
 31
1.500000000
  0
CIRCLE
  5
B48
330
A02
100
AcDbEntity
  8
Body
100
AcDbCircle
 10
18.596908345
 20
18.596908345
 30
1.500000000
 40
0.800000000
  0
LINE
  5
B49
330
A02
100
AcDbEntity
  8
Body
100
AcDbLine
 10
17.796908345
 20
18.596908345
 30
0.000000000
 11
17.796908345
 21
18.596908345
 31
1.500000000
  0
CIRCLE
  5
B4A
330
A02
100
AcDbEntity
  8
Body
100
AcDbCircle
 10
18.596908345
 20
18.596908345
 30
0.000000000
 40
0.800000000
  0
LINE
  5
B4B
330
A02
100
AcDbEntity
  8
Body
100
AcDbLine
 10
12.275900741
 20
17.117558816
 30
0.000000000
 11
12.275900741
 21
17.117558816
 31
1.500000000
  0
CIRCLE
  5
B4C
330
A02
100
AcDbEntity
  8
Body
100
AcDbCircle
 10
13.075900741
 20
17.117558816
 30
1.500000000
 40
0.800000000
  0
LINE
  5
B4D
330
A02
100
AcDbEntity
  8
Body
100
AcDbLine
 10
12.275900741
 20
17.117558816
 30
0.000000000
 11
12.275900741
 21
17.117558816
 31
1.500000000
  0
CIRCLE
  5
B4E
330
A02
100
AcDbEntity
  8
Body
100
AcDbCircle
 10
13.075900741
 20
17.117558816
 30
0.000000000
 40
0.800000000
  0
LINE
  5
B4F
330
A02
100
AcDbEntity
  8
Body
100
AcDbLine
 10
-5.500000000
 20
5.500000000
 30
0.000000000
 11
-5.500000000
 21
-5.500000000
 31
0.000000000
  0
LINE
  5
B50
330
A02
100
AcDbEntity
  8
Body
100
AcDbLine
 10
-5.500000000
 20
-5.500000000
 30
0.000000000
 11
-5.500000000
 21
-5.500000000
 31
1.500000000
  0
LINE
  5
B51
330
A02
100
AcDbEntity
  8
Body
100
AcDbLine
 10
-5.500000000
 20
-5.500000000
 30
1.500000000
 11
-5.500000000
 21
5.500000000
 31
1.500000000
  0
LINE
  5
B52
330
A02
100
AcDbEntity
  8
Body
100
AcDbLine
 10
-5.500000000
 20
5.500000000
 30
0.000000000
 11
-5.500000000
 21
5.500000000
 31
1.500000000
  0
LINE
  5
B53
330
A02
100
AcDbEntity
  8
Body
100
AcDbLine
 10
5.500000000
 20
5.500000000
 30
0.000000000
 11
-5.500000000
 21
5.500000000
 31
0.000000000
  0
LINE
  5
B54
330
A02
100
AcDbEntity
  8
Body
100
AcDbLine
 10
-5.500000000
 20
5.500000000
 30
0.000000000
 11
-5.500000000
 21
5.500000000
 31
1.500000000
  0
LINE
  5
B55
330
A02
100
AcDbEntity
  8
Body
100
AcDbLine
 10
-5.500000000
 20
5.500000000
 30
1.500000000
 11
5.500000000
 21
5.500000000
 31
1.500000000
  0
LINE
  5
B56
330
A02
100
AcDbEntity
  8
Body
100
AcDbLine
 10
5.500000000
 20
5.500000000
 30
0.000000000
 11
5.500000000
 21
5.500000000
 31
1.500000000
  0
LINE
  5
B57
330
A02
100
AcDbEntity
  8
Body
100
AcDbLine
 10
5.500000000
 20
-5.500000000
 30
0.000000000
 11
5.500000000
 21
5.500000000
 31
0.000000000
  0
LINE
  5
B58
330
A02
100
AcDbEntity
  8
Body
100
AcDbLine
 10
5.500000000
 20
5.500000000
 30
0.000000000
 11
5.500000000
 21
5.500000000
 31
1.500000000
  0
LINE
  5
B59
330
A02
100
AcDbEntity
  8
Body
100
AcDbLine
 10
5.500000000
 20
5.500000000
 30
1.500000000
 11
5.500000000
 21
-5.500000000
 31
1.500000000
  0
LINE
  5
B5A
330
A02
100
AcDbEntity
  8
Body
100
AcDbLine
 10
5.500000000
 20
-5.500000000
 30
0.000000000
 11
5.500000000
 21
-5.500000000
 31
1.500000000
  0
LINE
  5
B5B
330
A02
100
AcDbEntity
  8
Body
100
AcDbLine
 10
-5.500000000
 20
-5.500000000
 30
0.000000000
 11
5.500000000
 21
-5.500000000
 31
0.000000000
  0
LINE
  5
B5C
330
A02
100
AcDbEntity
  8
Body
100
AcDbLine
 10
5.500000000
 20
-5.500000000
 30
0.000000000
 11
5.500000000
 21
-5.500000000
 31
1.500000000
  0
LINE
  5
B5D
330
A02
100
AcDbEntity
  8
Body
100
AcDbLine
 10
5.500000000
 20
-5.500000000
 30
1.500000000
 11
-5.500000000
 21
-5.500000000
 31
1.500000000
  0
LINE
  5
B5E
330
A02
100
AcDbEntity
  8
Body
100
AcDbLine
 10
-5.500000000
 20
-5.500000000
 30
0.000000000
 11
-5.500000000
 21
-5.500000000
 31
1.500000000
  0
LINE
  5
B5F
330
A02
100
AcDbEntity
  8
Body
100
AcDbLine
 10
-19.231222920
 20
0.000000000
 30
0.000000000
 11
-19.231222920
 21
0.000000000
 31
1.500000000
  0
CIRCLE
  5
B60
330
A02
100
AcDbEntity
  8
Body
100
AcDbCircle
 10
-18.031222920
 20
0.000000000
 30
1.500000000
 40
1.200000000
  0
LINE
  5
B61
330
A02
100
AcDbEntity
  8
Body
100
AcDbLine
 10
-19.231222920
 20
0.000000000
 30
0.000000000
 11
-19.231222920
 21
0.000000000
 31
1.500000000
  0
CIRCLE
  5
B62
330
A02
100
AcDbEntity
  8
Body
100
AcDbCircle
 10
-18.031222920
 20
0.000000000
 30
0.000000000
 40
1.200000000
  0
LINE
  5
B63
330
A02
100
AcDbEntity
  8
Body
100
AcDbLine
 10
-1.200000000
 20
18.031222920
 30
0.000000000
 11
-1.200000000
 21
18.031222920
 31
1.500000000
  0
CIRCLE
  5
B64
330
A02
100
AcDbEntity
  8
Body
100
AcDbCircle
 10
0.000000000
 20
18.031222920
 30
1.500000000
 40
1.200000000
  0
LINE
  5
B65
330
A02
100
AcDbEntity
  8
Body
100
AcDbLine
 10
-1.200000000
 20
18.031222920
 30
0.000000000
 11
-1.200000000
 21
18.031222920
 31
1.500000000
  0
CIRCLE
  5
B66
330
A02
100
AcDbEntity
  8
Body
100
AcDbCircle
 10
0.000000000
 20
18.031222920
 30
0.000000000
 40
1.200000000
  0
LINE
  5
B67
330
A02
100
AcDbEntity
  8
Body
100
AcDbLine
 10
-17.917558816
 20
13.075900741
 30
0.000000000
 11
-17.917558816
 21
13.075900741
 31
1.500000000
  0
CIRCLE
  5
B68
330
A02
100
AcDbEntity
  8
Body
100
AcDbCircle
 10
-17.117558816
 20
13.075900741
 30
1.500000000
 40
0.800000000
  0
LINE
  5
B69
330
A02
100
AcDbEntity
  8
Body
100
AcDbLine
 10
-17.917558816
 20
13.075900741
 30
0.000000000
 11
-17.917558816
 21
13.075900741
 31
1.500000000
  0
CIRCLE
  5
B6A
330
A02
100
AcDbEntity
  8
Body
100
AcDbCircle
 10
-17.117558816
 20
13.075900741
 30
0.000000000
 40
0.800000000
  0
LINE
  5
B6B
330
A02
100
AcDbEntity
  8
Body
100
AcDbLine
 10
-13.875900741
 20
17.117558816
 30
0.000000000
 11
-13.875900741
 21
17.117558816
 31
1.500000000
  0
CIRCLE
  5
B6C
330
A02
100
AcDbEntity
  8
Body
100
AcDbCircle
 10
-13.075900741
 20
17.117558816
 30
1.500000000
 40
0.800000000
  0
LINE
  5
B6D
330
A02
100
AcDbEntity
  8
Body
100
AcDbLine
 10
-13.875900741
 20
17.117558816
 30
0.000000000
 11
-13.875900741
 21
17.117558816
 31
1.500000000
  0
CIRCLE
  5
B6E
330
A02
100
AcDbEntity
  8
Body
100
AcDbCircle
 10
-13.075900741
 20
17.117558816
 30
0.000000000
 40
0.800000000
  0
CIRCLE
  5
B6F
330
A02
100
AcDbEntity
  8
Body
100
AcDbCircle
 10
-16.263455967
 20
16.263455967
 30
0.000000000
 40
1.750000000
  0
LINE
  5
B70
330
A02
100
AcDbEntity
  8
Body
100
AcDbLine
 10
-14.513455967
 20
16.263455967
 30
0.000000000
 11
-14.513455967
 21
16.263455967
 31
1.500000000
  0
CIRCLE
  5
B71
330
A02
100
AcDbEntity
  8
Body
100
AcDbCircle
 10
-16.263455967
 20
16.263455967
 30
1.500000000
 40
1.750000000
  0
LINE
  5
B72
330
A02
100
AcDbEntity
  8
Body
100
AcDbLine
 10
-14.513455967
 20
16.263455967
 30
0.000000000
 11
-14.513455967
 21
16.263455967
 31
1.500000000
  0
LINE
  5
B73
330
A02
100
AcDbEntity
  8
Body
100
AcDbLine
 10
-19.396908345
 20
18.596908345
 30
0.000000000
 11
-19.396908345
 21
18.596908345
 31
1.500000000
  0
CIRCLE
  5
B74
330
A02
100
AcDbEntity
  8
Body
100
AcDbCircle
 10
-18.596908345
 20
18.596908345
 30
1.500000000
 40
0.800000000
  0
LINE
  5
B75
330
A02
100
AcDbEntity
  8
Body
100
AcDbLine
 10
-19.396908345
 20
18.596908345
 30
0.000000000
 11
-19.396908345
 21
18.596908345
 31
1.500000000
  0
CIRCLE
  5
B76
330
A02
100
AcDbEntity
  8
Body
100
AcDbCircle
 10
-18.596908345
 20
18.596908345
 30
0.000000000
 40
0.800000000
  0
ARC
  5
B77
330
A02
100
AcDbEntity
  8
Body
100
AcDbCircle
 10
16.263455967
 20
16.263455967
 30
0.000000000
 40
5.000000000
100
AcDbArc
 50
-109.623066475
 51
-73.176524783
  0
LINE
  5
B78
330
A02
100
AcDbEntity
  8
Body
100
AcDbLine
 10
14.584301959
 20
11.553844325
 30
1.500000000
 11
14.584301959
 21
11.553844325
 31
0.000000000
  0
LINE
  5
B79
330
A02
100
AcDbEntity
  8
Body
100
AcDbLine
 10
17.710575995
 20
11.477450992
 30
1.500000000
 11
17.710575995
 21
11.477450992
 31
0.000000000
  0
ARC
  5
B7A
330
A02
100
AcDbEntity
  8
Body
100
AcDbCircle
 10
16.263455967
 20
16.263455967
 30
1.500000000
 40
5.000000000
100
AcDbArc
 50
-109.623066475
 51
-73.176524783
  0
ARC
  5
B7B
330
A02
100
AcDbEntity
  8
Body
100
AcDbCircle
 10
13.912640356
 20
9.669999669
 30
1.500000000
 40
2.000000000
100
AcDbArc
 50
70.376933525
 51
135.000000000
  0
LINE
  5
B7C
330
A02
100
AcDbEntity
  8
Body
100
AcDbLine
 10
14.584301959
 20
11.553844325
 30
1.500000000
 11
14.584301959
 21
11.553844325
 31
0.000000000
  0
LINE
  5
B7D
330
A02
100
AcDbEntity
  8
Body
100
AcDbLine
 10
12.498426793
 20
11.084213231
 30
1.500000000
 11
12.498426793
 21
11.084213231
 31
0.000000000
  0
ARC
  5
B7E
330
A02
100
AcDbEntity
  8
Body
100
AcDbCircle
 10
13.912640356
 20
9.669999669
 30
0.000000000
 40
2.000000000
100
AcDbArc
 50
70.376933525
 51
135.000000000
  0
ARC
  5
B7F
330
A02
100
AcDbEntity
  8
Body
100
AcDbCircle
 10
18.000000000
 20
10.520249997
 30
1.500000000
 40
1.000000000
100
AcDbArc
 50
0.000000000
 51
106.823475217
  0
LINE
  5
B80
330
A02
100
AcDbEntity
  8
Body
100
AcDbLine
 10
19.000000000
 20
10.520249997
 30
1.500000000
 11
19.000000000
 21
10.520249997
 31
0.000000000
  0
LINE
  5
B81
330
A02
100
AcDbEntity
  8
Body
100
AcDbLine
 10
17.710575995
 20
11.477450992
 30
1.500000000
 11
17.710575995
 21
11.477450992
 31
0.000000000
  0
ARC
  5
B82
330
A02
100
AcDbEntity
  8
Body
100
AcDbCircle
 10
18.000000000
 20
10.520249997
 30
0.000000000
 40
1.000000000
100
AcDbArc
 50
0.000000000
 51
106.823475217
  0
LINE
  5
B83
330
A02
100
AcDbEntity
  8
Body
100
AcDbLine
 10
7.500000000
 20
6.085786438
 30
0.000000000
 11
12.498426793
 21
11.084213231
 31
0.000000000
  0
LINE
  5
B84
330
A02
100
AcDbEntity
  8
Body
100
AcDbLine
 10
12.498426793
 20
11.084213231
 30
1.500000000
 11
12.498426793
 21
11.084213231
 31
0.000000000
  0
LINE
  5
B85
330
A02
100
AcDbEntity
  8
Body
100
AcDbLine
 10
7.500000000
 20
6.085786438
 30
0.000000000
 11
7.500000000
 21
6.085786438
 31
1.500000000
  0
LINE
  5
B86
330
A02
100
AcDbEntity
  8
Body
100
AcDbLine
 10
7.500000000
 20
6.085786438
 30
1.500000000
 11
12.498426793
 21
11.084213231
 31
1.500000000
  0
LINE
  5
B87
330
A02
100
AcDbEntity
  8
Body
100
AcDbLine
 10
19.000000000
 20
3.499860730
 30
0.000000000
 11
19.000000000
 21
10.520249997
 31
0.000000000
  0
LINE
  5
B88
330
A02
100
AcDbEntity
  8
Body
100
AcDbLine
 10
19.000000000
 20
10.520249997
 30
1.500000000
 11
19.000000000
 21
10.520249997
 31
0.000000000
  0
LINE
  5
B89
330
A02
100
AcDbEntity
  8
Body
100
AcDbLine
 10
19.000000000
 20
3.499860730
 30
1.500000000
 11
19.000000000
 21
3.499860730
 31
0.000000000
  0
LINE
  5
B8A
330
A02
100
AcDbEntity
  8
Body
100
AcDbLine
 10
19.000000000
 20
10.520249997
 30
1.500000000
 11
19.000000000
 21
3.499860730
 31
1.500000000
  0
LINE
  5
B8B
330
A02
100
AcDbEntity
  8
Body
100
AcDbLine
 10
7.500000000
 20
-6.085786438
 30
0.000000000
 11
7.500000000
 21
6.085786438
 31
0.000000000
  0
LINE
  5
B8C
330
A02
100
AcDbEntity
  8
Body
100
AcDbLine
 10
7.500000000
 20
6.085786438
 30
0.000000000
 11
7.500000000
 21
6.085786438
 31
1.500000000
  0
LINE
  5
B8D
330
A02
100
AcDbEntity
  8
Body
100
AcDbLine
 10
7.500000000
 20
-6.085786438
 30
1.500000000
 11
7.500000000
 21
6.085786438
 31
1.500000000
  0
LINE
  5
B8E
330
A02
100
AcDbEntity
  8
Body
100
AcDbLine
 10
7.500000000
 20
-6.085786438
 30
1.500000000
 11
7.500000000
 21
-6.085786438
 31
0.000000000
  0
ARC
  5
B8F
330
A02
100
AcDbEntity
  8
Body
100
AcDbCircle
 10
18.000000000
 20
3.499860730
 30
1.500000000
 40
1.000000000
100
AcDbArc
 50
-89.488867062
 51
-0.000000000
  0
LINE
  5
B90
330
A02
100
AcDbEntity
  8
Body
100
AcDbLine
 10
19.000000000
 20
3.499860730
 30
1.500000000
 11
19.000000000
 21
3.499860730
 31
0.000000000
  0
LINE
  5
B91
330
A02
100
AcDbEntity
  8
Body
100
AcDbLine
 10
18.008920834
 20
2.499900521
 30
1.500000000
 11
18.008920834
 21
2.499900521
 31
0.000000000
  0
ARC
  5
B92
330
A02
100
AcDbEntity
  8
Body
100
AcDbCircle
 10
18.000000000
 20
3.499860730
 30
0.000000000
 40
1.000000000
100
AcDbArc
 50
-89.488867062
 51
-0.000000000
  0
LINE
  5
B93
330
A02
100
AcDbEntity
  8
Body
100
AcDbLine
 10
12.498426793
 20
-11.084213231
 30
0.000000000
 11
7.500000000
 21
-6.085786438
 31
0.000000000
  0
LINE
  5
B94
330
A02
100
AcDbEntity
  8
Body
100
AcDbLine
 10
12.498426793
 20
-11.084213231
 30
1.500000000
 11
12.498426793
 21
-11.084213231
 31
0.000000000
  0
LINE
  5
B95
330
A02
100
AcDbEntity
  8
Body
100
AcDbLine
 10
7.500000000
 20
-6.085786438
 30
1.500000000
 11
7.500000000
 21
-6.085786438
 31
0.000000000
  0
LINE
  5
B96
330
A02
100
AcDbEntity
  8
Body
100
AcDbLine
 10
12.498426793
 20
-11.084213231
 30
1.500000000
 11
7.500000000
 21
-6.085786438
 31
1.500000000
  0
ARC
  5
B97
330
A02
100
AcDbEntity
  8
Body
100
AcDbCircle
 10
18.031222920
 20
0.000000000
 30
0.000000000
 40
2.500000000
100
AcDbArc
 50
90.511132938
 51
-90.511132938
  0
LINE
  5
B98
330
A02
100
AcDbEntity
  8
Body
100
AcDbLine
 10
18.008920834
 20
2.499900521
 30
1.500000000
 11
18.008920834
 21
2.499900521
 31
0.000000000
  0
LINE
  5
B99
330
A02
100
AcDbEntity
  8
Body
100
AcDbLine
 10
18.008920834
 20
-2.499900521
 30
1.500000000
 11
18.008920834
 21
-2.499900521
 31
0.000000000
  0
ARC
  5
B9A
330
A02
100
AcDbEntity
  8
Body
100
AcDbCircle
 10
18.031222920
 20
0.000000000
 30
1.500000000
 40
2.500000000
100
AcDbArc
 50
90.511132938
 51
-90.511132938
  0
ARC
  5
B9B
330
A02
100
AcDbEntity
  8
Body
100
AcDbCircle
 10
13.912640356
 20
-9.669999669
 30
1.500000000
 40
2.000000000
100
AcDbArc
 50
-135.000000000
 51
-70.376933525
  0
LINE
  5
B9C
330
A02
100
AcDbEntity
  8
Body
100
AcDbLine
 10
12.498426793
 20
-11.084213231
 30
1.500000000
 11
12.498426793
 21
-11.084213231
 31
0.000000000
  0
LINE
  5
B9D
330
A02
100
AcDbEntity
  8
Body
100
AcDbLine
 10
14.584301959
 20
-11.553844325
 30
1.500000000
 11
14.584301959
 21
-11.553844325
 31
0.000000000
  0
ARC
  5
B9E
330
A02
100
AcDbEntity
  8
Body
100
AcDbCircle
 10
13.912640356
 20
-9.669999669
 30
0.000000000
 40
2.000000000
100
AcDbArc
 50
-135.000000000
 51
-70.376933525
  0
ARC
  5
B9F
330
A02
100
AcDbEntity
  8
Body
100
AcDbCircle
 10
18.000000000
 20
-3.499860730
 30
1.500000000
 40
1.000000000
100
AcDbArc
 50
-0.000000000
 51
89.488867062
  0
LINE
  5
BA0
330
A02
100
AcDbEntity
  8
Body
100
AcDbLine
 10
18.008920834
 20
-2.499900521
 30
1.500000000
 11
18.008920834
 21
-2.499900521
 31
0.000000000
  0
LINE
  5
BA1
330
A02
100
AcDbEntity
  8
Body
100
AcDbLine
 10
19.000000000
 20
-3.499860730
 30
1.500000000
 11
19.000000000
 21
-3.499860730
 31
0.000000000
  0
ARC
  5
BA2
330
A02
100
AcDbEntity
  8
Body
100
AcDbCircle
 10
18.000000000
 20
-3.499860730
 30
0.000000000
 40
1.000000000
100
AcDbArc
 50
-0.000000000
 51
89.488867062
  0
ARC
  5
BA3
330
A02
100
AcDbEntity
  8
Body
100
AcDbCircle
 10
16.263455967
 20
-16.263455967
 30
0.000000000
 40
5.000000000
100
AcDbArc
 50
73.176524783
 51
109.623066475
  0
LINE
  5
BA4
330
A02
100
AcDbEntity
  8
Body
100
AcDbLine
 10
14.584301959
 20
-11.553844325
 30
1.500000000
 11
14.584301959
 21
-11.553844325
 31
0.000000000
  0
LINE
  5
BA5
330
A02
100
AcDbEntity
  8
Body
100
AcDbLine
 10
17.710575995
 20
-11.477450992
 30
1.500000000
 11
17.710575995
 21
-11.477450992
 31
0.000000000
  0
ARC
  5
BA6
330
A02
100
AcDbEntity
  8
Body
100
AcDbCircle
 10
16.263455967
 20
-16.263455967
 30
1.500000000
 40
5.000000000
100
AcDbArc
 50
73.176524783
 51
109.623066475
  0
LINE
  5
BA7
330
A02
100
AcDbEntity
  8
Body
100
AcDbLine
 10
19.000000000
 20
-10.520249997
 30
0.000000000
 11
19.000000000
 21
-3.499860730
 31
0.000000000
  0
LINE
  5
BA8
330
A02
100
AcDbEntity
  8
Body
100
AcDbLine
 10
19.000000000
 20
-10.520249997
 30
1.500000000
 11
19.000000000
 21
-10.520249997
 31
0.000000000
  0
LINE
  5
BA9
330
A02
100
AcDbEntity
  8
Body
100
AcDbLine
 10
19.000000000
 20
-3.499860730
 30
1.500000000
 11
19.000000000
 21
-3.499860730
 31
0.000000000
  0
LINE
  5
BAA
330
A02
100
AcDbEntity
  8
Body
100
AcDbLine
 10
19.000000000
 20
-3.499860730
 30
1.500000000
 11
19.000000000
 21
-10.520249997
 31
1.500000000
  0
ARC
  5
BAB
330
A02
100
AcDbEntity
  8
Body
100
AcDbCircle
 10
18.000000000
 20
-10.520249997
 30
1.500000000
 40
1.000000000
100
AcDbArc
 50
-106.823475217
 51
-0.000000000
  0
LINE
  5
BAC
330
A02
100
AcDbEntity
  8
Body
100
AcDbLine
 10
19.000000000
 20
-10.520249997
 30
1.500000000
 11
19.000000000
 21
-10.520249997
 31
0.000000000
  0
LINE
  5
BAD
330
A02
100
AcDbEntity
  8
Body
100
AcDbLine
 10
17.710575995
 20
-11.477450992
 30
1.500000000
 11
17.710575995
 21
-11.477450992
 31
0.000000000
  0
ARC
  5
BAE
330
A02
100
AcDbEntity
  8
Body
100
AcDbCircle
 10
18.000000000
 20
-10.520249997
 30
0.000000000
 40
1.000000000
100
AcDbArc
 50
-106.823475217
 51
-0.000000000
  0
ARC
  5
BAF
330
A02
100
AcDbEntity
  8
Body
100
AcDbCircle
 10
-16.263455967
 20
16.263455967
 30
0.000000000
 40
5.000000000
100
AcDbArc
 50
-19.623066475
 51
0.000000000
  0
LINE
  5
BB0
330
A02
100
AcDbEntity
  8
Body
100
AcDbLine
 10
-11.553844325
 20
14.584301959
 30
1.500000000
 11
-11.553844325
 21
14.584301959
 31
0.000000000
  0
ARC
  5
BB1
330
A02
100
AcDbEntity
  8
Body
100
AcDbCircle
 10
-16.263455967
 20
16.263455967
 30
0.000000000
 40
5.000000000
100
AcDbArc
 50
0.000000000
 51
16.823475217
  0
ARC
  5
BB2
330
A02
100
AcDbEntity
  8
Body
100
AcDbCircle
 10
-16.263455967
 20
16.263455967
 30
1.500000000
 40
5.000000000
100
AcDbArc
 50
-19.623066475
 51
0.000000000
  0
LINE
  5
BB3
330
A02
100
AcDbEntity
  8
Body
100
AcDbLine
 10
-11.477450992
 20
17.710575995
 30
1.500000000
 11
-11.477450992
 21
17.710575995
 31
0.000000000
  0
ARC
  5
BB4
330
A02
100
AcDbEntity
  8
Body
100
AcDbCircle
 10
-16.263455967
 20
16.263455967
 30
1.500000000
 40
5.000000000
100
AcDbArc
 50
0.000000000
 51
16.823475217
  0
ARC
  5
BB5
330
A02
100
AcDbEntity
  8
Body
100
AcDbCircle
 10
-9.669999669
 20
13.912640356
 30
1.500000000
 40
2.000000000
100
AcDbArc
 50
160.376933525
 51
-135.000000000
  0
LINE
  5
BB6
330
A02
100
AcDbEntity
  8
Body
100
AcDbLine
 10
-11.553844325
 20
14.584301959
 30
1.500000000
 11
-11.553844325
 21
14.584301959
 31
0.000000000
  0
LINE
  5
BB7
330
A02
100
AcDbEntity
  8
Body
100
AcDbLine
 10
-11.084213231
 20
12.498426793
 30
1.500000000
 11
-11.084213231
 21
12.498426793
 31
0.000000000
  0
ARC
  5
BB8
330
A02
100
AcDbEntity
  8
Body
100
AcDbCircle
 10
-9.669999669
 20
13.912640356
 30
0.000000000
 40
2.000000000
100
AcDbArc
 50
160.376933525
 51
-135.000000000
  0
LINE
  5
BB9
330
A02
100
AcDbEntity
  8
Body
100
AcDbLine
 10
-6.085786438
 20
7.500000000
 30
0.000000000
 11
-11.084213231
 21
12.498426793
 31
0.000000000
  0
LINE
  5
BBA
330
A02
100
AcDbEntity
  8
Body
100
AcDbLine
 10
-11.084213231
 20
12.498426793
 30
1.500000000
 11
-11.084213231
 21
12.498426793
 31
0.000000000
  0
LINE
  5
BBB
330
A02
100
AcDbEntity
  8
Body
100
AcDbLine
 10
-6.085786438
 20
7.500000000
 30
0.000000000
 11
-6.085786438
 21
7.500000000
 31
1.500000000
  0
LINE
  5
BBC
330
A02
100
AcDbEntity
  8
Body
100
AcDbLine
 10
-6.085786438
 20
7.500000000
 30
1.500000000
 11
-11.084213231
 21
12.498426793
 31
1.500000000
  0
ARC
  5
BBD
330
A02
100
AcDbEntity
  8
Body
100
AcDbCircle
 10
-10.520249997
 20
18.000000000
 30
1.500000000
 40
1.000000000
100
AcDbArc
 50
90.000000000
 51
-163.176524783
  0
LINE
  5
BBE
330
A02
100
AcDbEntity
  8
Body
100
AcDbLine
 10
-10.520249997
 20
19.000000000
 30
1.500000000
 11
-10.520249997
 21
19.000000000
 31
0.000000000
  0
LINE
  5
BBF
330
A02
100
AcDbEntity
  8
Body
100
AcDbLine
 10
-11.477450992
 20
17.710575995
 30
1.500000000
 11
-11.477450992
 21
17.710575995
 31
0.000000000
  0
ARC
  5
BC0
330
A02
100
AcDbEntity
  8
Body
100
AcDbCircle
 10
-10.520249997
 20
18.000000000
 30
0.000000000
 40
1.000000000
100
AcDbArc
 50
90.000000000
 51
-163.176524783
  0
LINE
  5
BC1
330
A02
100
AcDbEntity
  8
Body
100
AcDbLine
 10
6.085786438
 20
7.500000000
 30
0.000000000
 11
-6.085786438
 21
7.500000000
 31
0.000000000
  0
LINE
  5
BC2
330
A02
100
AcDbEntity
  8
Body
100
AcDbLine
 10
-6.085786438
 20
7.500000000
 30
0.000000000
 11
-6.085786438
 21
7.500000000
 31
1.500000000
  0
LINE
  5
BC3
330
A02
100
AcDbEntity
  8
Body
100
AcDbLine
 10
6.085786438
 20
7.500000000
 30
1.500000000
 11
-6.085786438
 21
7.500000000
 31
1.500000000
  0
LINE
  5
BC4
330
A02
100
AcDbEntity
  8
Body
100
AcDbLine
 10
6.085786438
 20
7.500000000
 30
1.500000000
 11
6.085786438
 21
7.500000000
 31
0.000000000
  0
LINE
  5
BC5
330
A02
100
AcDbEntity
  8
Body
100
AcDbLine
 10
-3.499860730
 20
19.000000000
 30
0.000000000
 11
-10.520249997
 21
19.000000000
 31
0.000000000
  0
LINE
  5
BC6
330
A02
100
AcDbEntity
  8
Body
100
AcDbLine
 10
-10.520249997
 20
19.000000000
 30
1.500000000
 11
-10.520249997
 21
19.000000000
 31
0.000000000
  0
LINE
  5
BC7
330
A02
100
AcDbEntity
  8
Body
100
AcDbLine
 10
-3.499860730
 20
19.000000000
 30
1.500000000
 11
-3.499860730
 21
19.000000000
 31
0.000000000
  0
LINE
  5
BC8
330
A02
100
AcDbEntity
  8
Body
100
AcDbLine
 10
-10.520249997
 20
19.000000000
 30
1.500000000
 11
-3.499860730
 21
19.000000000
 31
1.500000000
  0
LINE
  5
BC9
330
A02
100
AcDbEntity
  8
Body
100
AcDbLine
 10
11.084213231
 20
12.498426793
 30
0.000000000
 11
6.085786438
 21
7.500000000
 31
0.000000000
  0
LINE
  5
BCA
330
A02
100
AcDbEntity
  8
Body
100
AcDbLine
 10
11.084213231
 20
12.498426793
 30
1.500000000
 11
11.084213231
 21
12.498426793
 31
0.000000000
  0
LINE
  5
BCB
330
A02
100
AcDbEntity
  8
Body
100
AcDbLine
 10
6.085786438
 20
7.500000000
 30
1.500000000
 11
6.085786438
 21
7.500000000
 31
0.000000000
  0
LINE
  5
BCC
330
A02
100
AcDbEntity
  8
Body
100
AcDbLine
 10
11.084213231
 20
12.498426793
 30
1.500000000
 11
6.085786438
 21
7.500000000
 31
1.500000000
  0
ARC
  5
BCD
330
A02
100
AcDbEntity
  8
Body
100
AcDbCircle
 10
-3.499860730
 20
18.000000000
 30
1.500000000
 40
1.000000000
100
AcDbArc
 50
0.511132938
 51
90.000000000
  0
LINE
  5
BCE
330
A02
100
AcDbEntity
  8
Body
100
AcDbLine
 10
-3.499860730
 20
19.000000000
 30
1.500000000
 11
-3.499860730
 21
19.000000000
 31
0.000000000
  0
LINE
  5
BCF
330
A02
100
AcDbEntity
  8
Body
100
AcDbLine
 10
-2.499900521
 20
18.008920834
 30
1.500000000
 11
-2.499900521
 21
18.008920834
 31
0.000000000
  0
ARC
  5
BD0
330
A02
100
AcDbEntity
  8
Body
100
AcDbCircle
 10
-3.499860730
 20
18.000000000
 30
0.000000000
 40
1.000000000
100
AcDbArc
 50
0.511132938
 51
90.000000000
  0
ARC
  5
BD1
330
A02
100
AcDbEntity
  8
Body
100
AcDbCircle
 10
9.669999669
 20
13.912640356
 30
1.500000000
 40
2.000000000
100
AcDbArc
 50
-45.000000000
 51
19.623066475
  0
LINE
  5
BD2
330
A02
100
AcDbEntity
  8
Body
100
AcDbLine
 10
11.084213231
 20
12.498426793
 30
1.500000000
 11
11.084213231
 21
12.498426793
 31
0.000000000
  0
LINE
  5
BD3
330
A02
100
AcDbEntity
  8
Body
100
AcDbLine
 10
11.553844325
 20
14.584301959
 30
1.500000000
 11
11.553844325
 21
14.584301959
 31
0.000000000
  0
ARC
  5
BD4
330
A02
100
AcDbEntity
  8
Body
100
AcDbCircle
 10
9.669999669
 20
13.912640356
 30
0.000000000
 40
2.000000000
100
AcDbArc
 50
-45.000000000
 51
19.623066475
  0
ARC
  5
BD5
330
A02
100
AcDbEntity
  8
Body
100
AcDbCircle
 10
0.000000000
 20
18.031222920
 30
0.000000000
 40
2.500000000
100
AcDbArc
 50
-179.488867062
 51
-0.511132938
  0
LINE
  5
BD6
330
A02
100
AcDbEntity
  8
Body
100
AcDbLine
 10
-2.499900521
 20
18.008920834
 30
1.500000000
 11
-2.499900521
 21
18.008920834
 31
0.000000000
  0
LINE
  5
BD7
330
A02
100
AcDbEntity
  8
Body
100
AcDbLine
 10
2.499900521
 20
18.008920834
 30
1.500000000
 11
2.499900521
 21
18.008920834
 31
0.000000000
  0
ARC
  5
BD8
330
A02
100
AcDbEntity
  8
Body
100
AcDbCircle
 10
0.000000000
 20
18.031222920
 30
1.500000000
 40
2.500000000
100
AcDbArc
 50
-179.488867062
 51
-0.511132938
  0
ARC
  5
BD9
330
A02
100
AcDbEntity
  8
Body
100
AcDbCircle
 10
16.263455967
 20
16.263455967
 30
0.000000000
 40
5.000000000
100
AcDbArc
 50
163.176524783
 51
-160.376933525
  0
LINE
  5
BDA
330
A02
100
AcDbEntity
  8
Body
100
AcDbLine
 10
11.553844325
 20
14.584301959
 30
1.500000000
 11
11.553844325
 21
14.584301959
 31
0.000000000
  0
LINE
  5
BDB
330
A02
100
AcDbEntity
  8
Body
100
AcDbLine
 10
11.477450992
 20
17.710575995
 30
1.500000000
 11
11.477450992
 21
17.710575995
 31
0.000000000
  0
ARC
  5
BDC
330
A02
100
AcDbEntity
  8
Body
100
AcDbCircle
 10
16.263455967
 20
16.263455967
 30
1.500000000
 40
5.000000000
100
AcDbArc
 50
163.176524783
 51
-160.376933525
  0
ARC
  5
BDD
330
A02
100
AcDbEntity
  8
Body
100
AcDbCircle
 10
3.499860730
 20
18.000000000
 30
1.500000000
 40
1.000000000
100
AcDbArc
 50
90.000000000
 51
179.488867062
  0
LINE
  5
BDE
330
A02
100
AcDbEntity
  8
Body
100
AcDbLine
 10
3.499860730
 20
19.000000000
 30
1.500000000
 11
3.499860730
 21
19.000000000
 31
0.000000000
  0
LINE
  5
BDF
330
A02
100
AcDbEntity
  8
Body
100
AcDbLine
 10
2.499900521
 20
18.008920834
 30
1.500000000
 11
2.499900521
 21
18.008920834
 31
0.000000000
  0
ARC
  5
BE0
330
A02
100
AcDbEntity
  8
Body
100
AcDbCircle
 10
3.499860730
 20
18.000000000
 30
0.000000000
 40
1.000000000
100
AcDbArc
 50
90.000000000
 51
179.488867062
  0
ARC
  5
BE1
330
A02
100
AcDbEntity
  8
Body
100
AcDbCircle
 10
10.520249997
 20
18.000000000
 30
1.500000000
 40
1.000000000
100
AcDbArc
 50
-16.823475217
 51
90.000000000
  0
LINE
  5
BE2
330
A02
100
AcDbEntity
  8
Body
100
AcDbLine
 10
10.520249997
 20
19.000000000
 30
1.500000000
 11
10.520249997
 21
19.000000000
 31
0.000000000
  0
LINE
  5
BE3
330
A02
100
AcDbEntity
  8
Body
100
AcDbLine
 10
11.477450992
 20
17.710575995
 30
1.500000000
 11
11.477450992
 21
17.710575995
 31
0.000000000
  0
ARC
  5
BE4
330
A02
100
AcDbEntity
  8
Body
100
AcDbCircle
 10
10.520249997
 20
18.000000000
 30
0.000000000
 40
1.000000000
100
AcDbArc
 50
-16.823475217
 51
90.000000000
  0
LINE
  5
BE5
330
A02
100
AcDbEntity
  8
Body
100
AcDbLine
 10
10.520249997
 20
19.000000000
 30
0.000000000
 11
3.499860730
 21
19.000000000
 31
0.000000000
  0
LINE
  5
BE6
330
A02
100
AcDbEntity
  8
Body
100
AcDbLine
 10
10.520249997
 20
19.000000000
 30
1.500000000
 11
10.520249997
 21
19.000000000
 31
0.000000000
  0
LINE
  5
BE7
330
A02
100
AcDbEntity
  8
Body
100
AcDbLine
 10
3.499860730
 20
19.000000000
 30
1.500000000
 11
3.499860730
 21
19.000000000
 31
0.000000000
  0
LINE
  5
BE8
330
A02
100
AcDbEntity
  8
Body
100
AcDbLine
 10
3.499860730
 20
19.000000000
 30
1.500000000
 11
10.520249997
 21
19.000000000
 31
1.500000000
  0
ARC
  5
BE9
330
A02
100
AcDbEntity
  8
Body
100
AcDbCircle
 10
-16.263455967
 20
-16.263455967
 30
0.000000000
 40
5.000000000
100
AcDbArc
 50
70.376933525
 51
106.823475217
  0
LINE
  5
BEA
330
A02
100
AcDbEntity
  8
Body
100
AcDbLine
 10
-14.584301959
 20
-11.553844325
 30
1.500000000
 11
-14.584301959
 21
-11.553844325
 31
0.000000000
  0
LINE
  5
BEB
330
A02
100
AcDbEntity
  8
Body
100
AcDbLine
 10
-17.710575995
 20
-11.477450992
 30
1.500000000
 11
-17.710575995
 21
-11.477450992
 31
0.000000000
  0
ARC
  5
BEC
330
A02
100
AcDbEntity
  8
Body
100
AcDbCircle
 10
-16.263455967
 20
-16.263455967
 30
1.500000000
 40
5.000000000
100
AcDbArc
 50
70.376933525
 51
106.823475217
  0
ARC
  5
BED
330
A02
100
AcDbEntity
  8
Body
100
AcDbCircle
 10
-13.912640356
 20
-9.669999669
 30
1.500000000
 40
2.000000000
100
AcDbArc
 50
-109.623066475
 51
-45.000000000
  0
LINE
  5
BEE
330
A02
100
AcDbEntity
  8
Body
100
AcDbLine
 10
-14.584301959
 20
-11.553844325
 30
1.500000000
 11
-14.584301959
 21
-11.553844325
 31
0.000000000
  0
LINE
  5
BEF
330
A02
100
AcDbEntity
  8
Body
100
AcDbLine
 10
-12.498426793
 20
-11.084213231
 30
1.500000000
 11
-12.498426793
 21
-11.084213231
 31
0.000000000
  0
ARC
  5
BF0
330
A02
100
AcDbEntity
  8
Body
100
AcDbCircle
 10
-13.912640356
 20
-9.669999669
 30
0.000000000
 40
2.000000000
100
AcDbArc
 50
-109.623066475
 51
-45.000000000
  0
ARC
  5
BF1
330
A02
100
AcDbEntity
  8
Body
100
AcDbCircle
 10
-18.000000000
 20
-10.520249997
 30
1.500000000
 40
1.000000000
100
AcDbArc
 50
180.000000000
 51
-73.176524783
  0
LINE
  5
BF2
330
A02
100
AcDbEntity
  8
Body
100
AcDbLine
 10
-19.000000000
 20
-10.520249997
 30
1.500000000
 11
-19.000000000
 21
-10.520249997
 31
0.000000000
  0
LINE
  5
BF3
330
A02
100
AcDbEntity
  8
Body
100
AcDbLine
 10
-17.710575995
 20
-11.477450992
 30
1.500000000
 11
-17.710575995
 21
-11.477450992
 31
0.000000000
  0
ARC
  5
BF4
330
A02
100
AcDbEntity
  8
Body
100
AcDbCircle
 10
-18.000000000
 20
-10.520249997
 30
0.000000000
 40
1.000000000
100
AcDbArc
 50
180.000000000
 51
-73.176524783
  0
LINE
  5
BF5
330
A02
100
AcDbEntity
  8
Body
100
AcDbLine
 10
-7.500000000
 20
-6.085786438
 30
0.000000000
 11
-12.498426793
 21
-11.084213231
 31
0.000000000
  0
LINE
  5
BF6
330
A02
100
AcDbEntity
  8
Body
100
AcDbLine
 10
-12.498426793
 20
-11.084213231
 30
1.500000000
 11
-12.498426793
 21
-11.084213231
 31
0.000000000
  0
LINE
  5
BF7
330
A02
100
AcDbEntity
  8
Body
100
AcDbLine
 10
-7.500000000
 20
-6.085786438
 30
0.000000000
 11
-7.500000000
 21
-6.085786438
 31
1.500000000
  0
LINE
  5
BF8
330
A02
100
AcDbEntity
  8
Body
100
AcDbLine
 10
-7.500000000
 20
-6.085786438
 30
1.500000000
 11
-12.498426793
 21
-11.084213231
 31
1.500000000
  0
LINE
  5
BF9
330
A02
100
AcDbEntity
  8
Body
100
AcDbLine
 10
-19.000000000
 20
-3.499860730
 30
0.000000000
 11
-19.000000000
 21
-10.520249997
 31
0.000000000
  0
LINE
  5
BFA
330
A02
100
AcDbEntity
  8
Body
100
AcDbLine
 10
-19.000000000
 20
-10.520249997
 30
1.500000000
 11
-19.000000000
 21
-10.520249997
 31
0.000000000
  0
LINE
  5
BFB
330
A02
100
AcDbEntity
  8
Body
100
AcDbLine
 10
-19.000000000
 20
-3.499860730
 30
1.500000000
 11
-19.000000000
 21
-3.499860730
 31
0.000000000
  0
LINE
  5
BFC
330
A02
100
AcDbEntity
  8
Body
100
AcDbLine
 10
-19.000000000
 20
-10.520249997
 30
1.500000000
 11
-19.000000000
 21
-3.499860730
 31
1.500000000
  0
LINE
  5
BFD
330
A02
100
AcDbEntity
  8
Body
100
AcDbLine
 10
-7.500000000
 20
6.085786438
 30
0.000000000
 11
-7.500000000
 21
-6.085786438
 31
0.000000000
  0
LINE
  5
BFE
330
A02
100
AcDbEntity
  8
Body
100
AcDbLine
 10
-7.500000000
 20
-6.085786438
 30
0.000000000
 11
-7.500000000
 21
-6.085786438
 31
1.500000000
  0
LINE
  5
BFF
330
A02
100
AcDbEntity
  8
Body
100
AcDbLine
 10
-7.500000000
 20
6.085786438
 30
1.500000000
 11
-7.500000000
 21
-6.085786438
 31
1.500000000
  0
LINE
  5
C00
330
A02
100
AcDbEntity
  8
Body
100
AcDbLine
 10
-7.500000000
 20
6.085786438
 30
1.500000000
 11
-7.500000000
 21
6.085786438
 31
0.000000000
  0
ARC
  5
C01
330
A02
100
AcDbEntity
  8
Body
100
AcDbCircle
 10
-18.000000000
 20
-3.499860730
 30
1.500000000
 40
1.000000000
100
AcDbArc
 50
90.511132938
 51
180.000000000
  0
LINE
  5
C02
330
A02
100
AcDbEntity
  8
Body
100
AcDbLine
 10
-19.000000000
 20
-3.499860730
 30
1.500000000
 11
-19.000000000
 21
-3.499860730
 31
0.000000000
  0
LINE
  5
C03
330
A02
100
AcDbEntity
  8
Body
100
AcDbLine
 10
-18.008920834
 20
-2.499900521
 30
1.500000000
 11
-18.008920834
 21
-2.499900521
 31
0.000000000
  0
ARC
  5
C04
330
A02
100
AcDbEntity
  8
Body
100
AcDbCircle
 10
-18.000000000
 20
-3.499860730
 30
0.000000000
 40
1.000000000
100
AcDbArc
 50
90.511132938
 51
180.000000000
  0
LINE
  5
C05
330
A02
100
AcDbEntity
  8
Body
100
AcDbLine
 10
-12.498426793
 20
11.084213231
 30
0.000000000
 11
-7.500000000
 21
6.085786438
 31
0.000000000
  0
LINE
  5
C06
330
A02
100
AcDbEntity
  8
Body
100
AcDbLine
 10
-12.498426793
 20
11.084213231
 30
1.500000000
 11
-12.498426793
 21
11.084213231
 31
0.000000000
  0
LINE
  5
C07
330
A02
100
AcDbEntity
  8
Body
100
AcDbLine
 10
-7.500000000
 20
6.085786438
 30
1.500000000
 11
-7.500000000
 21
6.085786438
 31
0.000000000
  0
LINE
  5
C08
330
A02
100
AcDbEntity
  8
Body
100
AcDbLine
 10
-12.498426793
 20
11.084213231
 30
1.500000000
 11
-7.500000000
 21
6.085786438
 31
1.500000000
  0
ARC
  5
C09
330
A02
100
AcDbEntity
  8
Body
100
AcDbCircle
 10
-18.031222920
 20
0.000000000
 30
0.000000000
 40
2.500000000
100
AcDbArc
 50
0.000000000
 51
89.488867062
  0
LINE
  5
C0A
330
A02
100
AcDbEntity
  8
Body
100
AcDbLine
 10
-18.008920834
 20
2.499900521
 30
1.500000000
 11
-18.008920834
 21
2.499900521
 31
0.000000000
  0
ARC
  5
C0B
330
A02
100
AcDbEntity
  8
Body
100
AcDbCircle
 10
-18.031222920
 20
0.000000000
 30
0.000000000
 40
2.500000000
100
AcDbArc
 50
-89.488867062
 51
-0.000000000
  0
ARC
  5
C0C
330
A02
100
AcDbEntity
  8
Body
100
AcDbCircle
 10
-18.031222920
 20
0.000000000
 30
1.500000000
 40
2.500000000
100
AcDbArc
 50
0.000000000
 51
89.488867062
  0
LINE
  5
C0D
330
A02
100
AcDbEntity
  8
Body
100
AcDbLine
 10
-18.008920834
 20
-2.499900521
 30
1.500000000
 11
-18.008920834
 21
-2.499900521
 31
0.000000000
  0
ARC
  5
C0E
330
A02
100
AcDbEntity
  8
Body
100
AcDbCircle
 10
-18.031222920
 20
0.000000000
 30
1.500000000
 40
2.500000000
100
AcDbArc
 50
-89.488867062
 51
-0.000000000
  0
ARC
  5
C0F
330
A02
100
AcDbEntity
  8
Body
100
AcDbCircle
 10
-13.912640356
 20
9.669999669
 30
1.500000000
 40
2.000000000
100
AcDbArc
 50
45.000000000
 51
109.623066475
  0
LINE
  5
C10
330
A02
100
AcDbEntity
  8
Body
100
AcDbLine
 10
-12.498426793
 20
11.084213231
 30
1.500000000
 11
-12.498426793
 21
11.084213231
 31
0.000000000
  0
LINE
  5
C11
330
A02
100
AcDbEntity
  8
Body
100
AcDbLine
 10
-14.584301959
 20
11.553844325
 30
1.500000000
 11
-14.584301959
 21
11.553844325
 31
0.000000000
  0
ARC
  5
C12
330
A02
100
AcDbEntity
  8
Body
100
AcDbCircle
 10
-13.912640356
 20
9.669999669
 30
0.000000000
 40
2.000000000
100
AcDbArc
 50
45.000000000
 51
109.623066475
  0
ARC
  5
C13
330
A02
100
AcDbEntity
  8
Body
100
AcDbCircle
 10
-16.263455967
 20
16.263455967
 30
0.000000000
 40
5.000000000
100
AcDbArc
 50
-106.823475217
 51
-70.376933525
  0
LINE
  5
C14
330
A02
100
AcDbEntity
  8
Body
100
AcDbLine
 10
-14.584301959
 20
11.553844325
 30
1.500000000
 11
-14.584301959
 21
11.553844325
 31
0.000000000
  0
LINE
  5
C15
330
A02
100
AcDbEntity
  8
Body
100
AcDbLine
 10
-17.710575995
 20
11.477450992
 30
1.500000000
 11
-17.710575995
 21
11.477450992
 31
0.000000000
  0
ARC
  5
C16
330
A02
100
AcDbEntity
  8
Body
100
AcDbCircle
 10
-16.263455967
 20
16.263455967
 30
1.500000000
 40
5.000000000
100
AcDbArc
 50
-106.823475217
 51
-70.376933525
  0
ARC
  5
C17
330
A02
100
AcDbEntity
  8
Body
100
AcDbCircle
 10
-18.000000000
 20
3.499860730
 30
1.500000000
 40
1.000000000
100
AcDbArc
 50
180.000000000
 51
-90.511132938
  0
LINE
  5
C18
330
A02
100
AcDbEntity
  8
Body
100
AcDbLine
 10
-18.008920834
 20
2.499900521
 30
1.500000000
 11
-18.008920834
 21
2.499900521
 31
0.000000000
  0
LINE
  5
C19
330
A02
100
AcDbEntity
  8
Body
100
AcDbLine
 10
-19.000000000
 20
3.499860730
 30
1.500000000
 11
-19.000000000
 21
3.499860730
 31
0.000000000
  0
ARC
  5
C1A
330
A02
100
AcDbEntity
  8
Body
100
AcDbCircle
 10
-18.000000000
 20
3.499860730
 30
0.000000000
 40
1.000000000
100
AcDbArc
 50
180.000000000
 51
-90.511132938
  0
ARC
  5
C1B
330
A02
100
AcDbEntity
  8
Body
100
AcDbCircle
 10
-18.000000000
 20
10.520249997
 30
1.500000000
 40
1.000000000
100
AcDbArc
 50
73.176524783
 51
180.000000000
  0
LINE
  5
C1C
330
A02
100
AcDbEntity
  8
Body
100
AcDbLine
 10
-19.000000000
 20
10.520249997
 30
1.500000000
 11
-19.000000000
 21
10.520249997
 31
0.000000000
  0
LINE
  5
C1D
330
A02
100
AcDbEntity
  8
Body
100
AcDbLine
 10
-17.710575995
 20
11.477450992
 30
1.500000000
 11
-17.710575995
 21
11.477450992
 31
0.000000000
  0
ARC
  5
C1E
330
A02
100
AcDbEntity
  8
Body
100
AcDbCircle
 10
-18.000000000
 20
10.520249997
 30
0.000000000
 40
1.000000000
100
AcDbArc
 50
73.176524783
 51
180.000000000
  0
LINE
  5
C1F
330
A02
100
AcDbEntity
  8
Body
100
AcDbLine
 10
-19.000000000
 20
10.520249997
 30
0.000000000
 11
-19.000000000
 21
3.499860730
 31
0.000000000
  0
LINE
  5
C20
330
A02
100
AcDbEntity
  8
Body
100
AcDbLine
 10
-19.000000000
 20
10.520249997
 30
1.500000000
 11
-19.000000000
 21
10.520249997
 31
0.000000000
  0
LINE
  5
C21
330
A02
100
AcDbEntity
  8
Body
100
AcDbLine
 10
-19.000000000
 20
3.499860730
 30
1.500000000
 11
-19.000000000
 21
3.499860730
 31
0.000000000
  0
LINE
  5
C22
330
A02
100
AcDbEntity
  8
Body
100
AcDbLine
 10
-19.000000000
 20
3.499860730
 30
1.500000000
 11
-19.000000000
 21
10.520249997
 31
1.500000000
  0
ARC
  5
C23
330
A02
100
AcDbEntity
  8
Body
100
AcDbCircle
 10
-16.263455967
 20
-16.263455967
 30
1.500000000
 40
5.000000000
100
AcDbArc
 50
0.000000000
 51
19.623066475
  0
ARC
  5
C24
330
A02
100
AcDbEntity
  8
Body
100
AcDbCircle
 10
-9.669999669
 20
-13.912640356
 30
1.500000000
 40
2.000000000
100
AcDbArc
 50
135.000000000
 51
-160.376933525
  0
ARC
  5
C25
330
A02
100
AcDbEntity
  8
Body
100
AcDbCircle
 10
-16.263455967
 20
-16.263455967
 30
1.500000000
 40
5.000000000
100
AcDbArc
 50
-16.823475217
 51
0.000000000
  0
LINE
  5
C26
330
A02
100
AcDbEntity
  8
Body
100
AcDbLine
 10
-11.084213231
 20
-12.498426793
 30
1.500000000
 11
-6.085786438
 21
-7.500000000
 31
1.500000000
  0
ARC
  5
C27
330
A02
100
AcDbEntity
  8
Body
100
AcDbCircle
 10
-10.520249997
 20
-18.000000000
 30
1.500000000
 40
1.000000000
100
AcDbArc
 50
163.176524783
 51
-90.000000000
  0
LINE
  5
C28
330
A02
100
AcDbEntity
  8
Body
100
AcDbLine
 10
-6.085786438
 20
-7.500000000
 30
1.500000000
 11
6.085786438
 21
-7.500000000
 31
1.500000000
  0
LINE
  5
C29
330
A02
100
AcDbEntity
  8
Body
100
AcDbLine
 10
-3.499860730
 20
-19.000000000
 30
1.500000000
 11
-10.520249997
 21
-19.000000000
 31
1.500000000
  0
LINE
  5
C2A
330
A02
100
AcDbEntity
  8
Body
100
AcDbLine
 10
6.085786438
 20
-7.500000000
 30
1.500000000
 11
11.084213231
 21
-12.498426793
 31
1.500000000
  0
ARC
  5
C2B
330
A02
100
AcDbEntity
  8
Body
100
AcDbCircle
 10
-3.499860730
 20
-18.000000000
 30
1.500000000
 40
1.000000000
100
AcDbArc
 50
-90.000000000
 51
-0.511132938
  0
ARC
  5
C2C
330
A02
100
AcDbEntity
  8
Body
100
AcDbCircle
 10
9.669999669
 20
-13.912640356
 30
1.500000000
 40
2.000000000
100
AcDbArc
 50
-19.623066475
 51
45.000000000
  0
ARC
  5
C2D
330
A02
100
AcDbEntity
  8
Body
100
AcDbCircle
 10
0.000000000
 20
-18.031222920
 30
1.500000000
 40
2.500000000
100
AcDbArc
 50
0.511132938
 51
179.488867062
  0
ARC
  5
C2E
330
A02
100
AcDbEntity
  8
Body
100
AcDbCircle
 10
16.263455967
 20
-16.263455967
 30
1.500000000
 40
5.000000000
100
AcDbArc
 50
160.376933525
 51
-163.176524783
  0
ARC
  5
C2F
330
A02
100
AcDbEntity
  8
Body
100
AcDbCircle
 10
3.499860730
 20
-18.000000000
 30
1.500000000
 40
1.000000000
100
AcDbArc
 50
-179.488867062
 51
-90.000000000
  0
ARC
  5
C30
330
A02
100
AcDbEntity
  8
Body
100
AcDbCircle
 10
10.520249997
 20
-18.000000000
 30
1.500000000
 40
1.000000000
100
AcDbArc
 50
-90.000000000
 51
16.823475217
  0
LINE
  5
C31
330
A02
100
AcDbEntity
  8
Body
100
AcDbLine
 10
10.520249997
 20
-19.000000000
 30
1.500000000
 11
3.499860730
 21
-19.000000000
 31
1.500000000
  0
LINE
  5
C32
330
A02
100
AcDbEntity
  8
Body
100
AcDbLine
 10
6.500000000
 20
-21.500000000
 30
1.500000000
 11
16.500000000
 21
-21.500000000
 31
1.500000000
  0
ARC
  5
C33
330
A02
100
AcDbEntity
  8
Body
100
AcDbCircle
 10
6.500000000
 20
-24.500000000
 30
1.500000000
 40
3.000000000
100
AcDbArc
 50
90.000000000
 51
180.000000000
  0
ARC
  5
C34
330
A02
100
AcDbEntity
  8
Body
100
AcDbCircle
 10
16.500000000
 20
-16.500000000
 30
1.500000000
 40
5.000000000
100
AcDbArc
 50
-90.000000000
 51
0.000000000
  0
LINE
  5
C35
330
A02
100
AcDbEntity
  8
Body
100
AcDbLine
 10
3.500000000
 20
-24.500000000
 30
1.500000000
 11
3.500000000
 21
-28.000000000
 31
1.500000000
  0
LINE
  5
C36
330
A02
100
AcDbEntity
  8
Body
100
AcDbLine
 10
21.500000000
 20
-16.500000000
 30
1.500000000
 11
21.500000000
 21
16.500000000
 31
1.500000000
  0
ARC
  5
C37
330
A02
100
AcDbEntity
  8
Body
100
AcDbCircle
 10
0.000000000
 20
-28.000000000
 30
1.500000000
 40
3.500000000
100
AcDbArc
 50
180.000000000
 51
0.000000000
  0
ARC
  5
C38
330
A02
100
AcDbEntity
  8
Body
100
AcDbCircle
 10
16.500000000
 20
16.500000000
 30
1.500000000
 40
5.000000000
100
AcDbArc
 50
0.000000000
 51
90.000000000
  0
LINE
  5
C39
330
A02
100
AcDbEntity
  8
Body
100
AcDbLine
 10
-3.500000000
 20
-24.500000000
 30
1.500000000
 11
-3.500000000
 21
-28.000000000
 31
1.500000000
  0
LINE
  5
C3A
330
A02
100
AcDbEntity
  8
Body
100
AcDbLine
 10
16.500000000
 20
21.500000000
 30
1.500000000
 11
-16.500000000
 21
21.500000000
 31
1.500000000
  0
ARC
  5
C3B
330
A02
100
AcDbEntity
  8
Body
100
AcDbCircle
 10
-6.500000000
 20
-24.500000000
 30
1.500000000
 40
3.000000000
100
AcDbArc
 50
0.000000000
 51
90.000000000
  0
ARC
  5
C3C
330
A02
100
AcDbEntity
  8
Body
100
AcDbCircle
 10
-16.500000000
 20
16.500000000
 30
1.500000000
 40
5.000000000
100
AcDbArc
 50
90.000000000
 51
180.000000000
  0
LINE
  5
C3D
330
A02
100
AcDbEntity
  8
Body
100
AcDbLine
 10
-16.500000000
 20
-21.500000000
 30
1.500000000
 11
-6.500000000
 21
-21.500000000
 31
1.500000000
  0
LINE
  5
C3E
330
A02
100
AcDbEntity
  8
Body
100
AcDbLine
 10
-21.500000000
 20
16.500000000
 30
1.500000000
 11
-21.500000000
 21
-16.500000000
 31
1.500000000
  0
ARC
  5
C3F
330
A02
100
AcDbEntity
  8
Body
100
AcDbCircle
 10
-16.500000000
 20
-16.500000000
 30
1.500000000
 40
5.000000000
100
AcDbArc
 50
-180.000000000
 51
-90.000000000
  0
CIRCLE
  5
C40
330
A02
100
AcDbEntity
  8
Body
100
AcDbCircle
 10
-18.596908345
 20
-18.596908345
 30
1.500000000
 40
0.800000000
  0
CIRCLE
  5
C41
330
A02
100
AcDbEntity
  8
Body
100
AcDbCircle
 10
-13.075900741
 20
-17.117558816
 30
1.500000000
 40
0.800000000
  0
CIRCLE
  5
C42
330
A02
100
AcDbEntity
  8
Body
100
AcDbCircle
 10
-16.263455967
 20
-16.263455967
 30
1.500000000
 40
1.750000000
  0
CIRCLE
  5
C43
330
A02
100
AcDbEntity
  8
Body
100
AcDbCircle
 10
-17.117558816
 20
-13.075900741
 30
1.500000000
 40
0.800000000
  0
LINE
  5
C44
330
A02
100
AcDbEntity
  8
Body
100
AcDbLine
 10
0.900000000
 20
-27.750000000
 30
1.500000000
 11
-0.900000000
 21
-27.750000000
 31
1.500000000
  0
ARC
  5
C45
330
A02
100
AcDbEntity
  8
Body
100
AcDbCircle
 10
0.900000000
 20
-28.500000000
 30
1.500000000
 40
0.750000000
100
AcDbArc
 50
-90.000000000
 51
90.000000000
  0
ARC
  5
C46
330
A02
100
AcDbEntity
  8
Body
100
AcDbCircle
 10
-0.900000000
 20
-28.500000000
 30
1.500000000
 40
0.750000000
100
AcDbArc
 50
90.000000000
 51
-90.000000000
  0
LINE
  5
C47
330
A02
100
AcDbEntity
  8
Body
100
AcDbLine
 10
0.900000000
 20
-29.250000000
 30
1.500000000
 11
-0.900000000
 21
-29.250000000
 31
1.500000000
  0
LINE
  5
C48
330
A02
100
AcDbEntity
  8
Body
100
AcDbLine
 10
0.900000000
 20
-26.250000000
 30
1.500000000
 11
-0.900000000
 21
-26.250000000
 31
1.500000000
  0
ARC
  5
C49
330
A02
100
AcDbEntity
  8
Body
100
AcDbCircle
 10
0.900000000
 20
-25.500000000
 30
1.500000000
 40
0.750000000
100
AcDbArc
 50
-90.000000000
 51
90.000000000
  0
ARC
  5
C4A
330
A02
100
AcDbEntity
  8
Body
100
AcDbCircle
 10
-0.900000000
 20
-25.500000000
 30
1.500000000
 40
0.750000000
100
AcDbArc
 50
90.000000000
 51
-90.000000000
  0
LINE
  5
C4B
330
A02
100
AcDbEntity
  8
Body
100
AcDbLine
 10
0.900000000
 20
-24.750000000
 30
1.500000000
 11
-0.900000000
 21
-24.750000000
 31
1.500000000
  0
ARC
  5
C4C
330
A02
100
AcDbEntity
  8
Body
100
AcDbCircle
 10
0.900000000
 20
-22.500000000
 30
1.500000000
 40
0.750000000
100
AcDbArc
 50
-90.000000000
 51
90.000000000
  0
LINE
  5
C4D
330
A02
100
AcDbEntity
  8
Body
100
AcDbLine
 10
0.900000000
 20
-21.750000000
 30
1.500000000
 11
-0.900000000
 21
-21.750000000
 31
1.500000000
  0
LINE
  5
C4E
330
A02
100
AcDbEntity
  8
Body
100
AcDbLine
 10
0.900000000
 20
-23.250000000
 30
1.500000000
 11
-0.900000000
 21
-23.250000000
 31
1.500000000
  0
ARC
  5
C4F
330
A02
100
AcDbEntity
  8
Body
100
AcDbCircle
 10
-0.900000000
 20
-22.500000000
 30
1.500000000
 40
0.750000000
100
AcDbArc
 50
90.000000000
 51
-90.000000000
  0
CIRCLE
  5
C50
330
A02
100
AcDbEntity
  8
Body
100
AcDbCircle
 10
0.000000000
 20
-18.031222920
 30
1.500000000
 40
1.200000000
  0
CIRCLE
  5
C51
330
A02
100
AcDbEntity
  8
Body
100
AcDbCircle
 10
13.075900741
 20
-17.117558816
 30
1.500000000
 40
0.800000000
  0
CIRCLE
  5
C52
330
A02
100
AcDbEntity
  8
Body
100
AcDbCircle
 10
18.596908345
 20
-18.596908345
 30
1.500000000
 40
0.800000000
  0
CIRCLE
  5
C53
330
A02
100
AcDbEntity
  8
Body
100
AcDbCircle
 10
16.263455967
 20
-16.263455967
 30
1.500000000
 40
1.750000000
  0
CIRCLE
  5
C54
330
A02
100
AcDbEntity
  8
Body
100
AcDbCircle
 10
17.117558816
 20
-13.075900741
 30
1.500000000
 40
0.800000000
  0
CIRCLE
  5
C55
330
A02
100
AcDbEntity
  8
Body
100
AcDbCircle
 10
-18.031222920
 20
0.000000000
 30
1.500000000
 40
1.200000000
  0
CIRCLE
  5
C56
330
A02
100
AcDbEntity
  8
Body
100
AcDbCircle
 10
-17.117558816
 20
13.075900741
 30
1.500000000
 40
0.800000000
  0
CIRCLE
  5
C57
330
A02
100
AcDbEntity
  8
Body
100
AcDbCircle
 10
-16.263455967
 20
16.263455967
 30
1.500000000
 40
1.750000000
  0
CIRCLE
  5
C58
330
A02
100
AcDbEntity
  8
Body
100
AcDbCircle
 10
-18.596908345
 20
18.596908345
 30
1.500000000
 40
0.800000000
  0
CIRCLE
  5
C59
330
A02
100
AcDbEntity
  8
Body
100
AcDbCircle
 10
-13.075900741
 20
17.117558816
 30
1.500000000
 40
0.800000000
  0
LINE
  5
C5A
330
A02
100
AcDbEntity
  8
Body
100
AcDbLine
 10
5.500000000
 20
5.500000000
 30
1.500000000
 11
5.500000000
 21
-5.500000000
 31
1.500000000
  0
LINE
  5
C5B
330
A02
100
AcDbEntity
  8
Body
100
AcDbLine
 10
-5.500000000
 20
5.500000000
 30
1.500000000
 11
5.500000000
 21
5.500000000
 31
1.500000000
  0
LINE
  5
C5C
330
A02
100
AcDbEntity
  8
Body
100
AcDbLine
 10
-5.500000000
 20
-5.500000000
 30
1.500000000
 11
-5.500000000
 21
5.500000000
 31
1.500000000
  0
LINE
  5
C5D
330
A02
100
AcDbEntity
  8
Body
100
AcDbLine
 10
5.500000000
 20
-5.500000000
 30
1.500000000
 11
-5.500000000
 21
-5.500000000
 31
1.500000000
  0
CIRCLE
  5
C5E
330
A02
100
AcDbEntity
  8
Body
100
AcDbCircle
 10
18.031222920
 20
0.000000000
 30
1.500000000
 40
1.200000000
  0
CIRCLE
  5
C5F
330
A02
100
AcDbEntity
  8
Body
100
AcDbCircle
 10
0.000000000
 20
18.031222920
 30
1.500000000
 40
1.200000000
  0
CIRCLE
  5
C60
330
A02
100
AcDbEntity
  8
Body
100
AcDbCircle
 10
17.117558816
 20
13.075900741
 30
1.500000000
 40
0.800000000
  0
CIRCLE
  5
C61
330
A02
100
AcDbEntity
  8
Body
100
AcDbCircle
 10
13.075900741
 20
17.117558816
 30
1.500000000
 40
0.800000000
  0
CIRCLE
  5
C62
330
A02
100
AcDbEntity
  8
Body
100
AcDbCircle
 10
16.263455967
 20
16.263455967
 30
1.500000000
 40
1.750000000
  0
CIRCLE
  5
C63
330
A02
100
AcDbEntity
  8
Body
100
AcDbCircle
 10
18.596908345
 20
18.596908345
 30
1.500000000
 40
0.800000000
  0
ARC
  5
C64
330
A02
100
AcDbEntity
  8
Body
100
AcDbCircle
 10
-16.263455967
 20
16.263455967
 30
1.500000000
 40
5.000000000
100
AcDbArc
 50
-106.823475217
 51
-70.376933525
  0
ARC
  5
C65
330
A02
100
AcDbEntity
  8
Body
100
AcDbCircle
 10
-13.912640356
 20
9.669999669
 30
1.500000000
 40
2.000000000
100
AcDbArc
 50
45.000000000
 51
109.623066475
  0
ARC
  5
C66
330
A02
100
AcDbEntity
  8
Body
100
AcDbCircle
 10
-18.000000000
 20
10.520249997
 30
1.500000000
 40
1.000000000
100
AcDbArc
 50
73.176524783
 51
180.000000000
  0
LINE
  5
C67
330
A02
100
AcDbEntity
  8
Body
100
AcDbLine
 10
-12.498426793
 20
11.084213231
 30
1.500000000
 11
-7.500000000
 21
6.085786438
 31
1.500000000
  0
LINE
  5
C68
330
A02
100
AcDbEntity
  8
Body
100
AcDbLine
 10
-19.000000000
 20
3.499860730
 30
1.500000000
 11
-19.000000000
 21
10.520249997
 31
1.500000000
  0
LINE
  5
C69
330
A02
100
AcDbEntity
  8
Body
100
AcDbLine
 10
-7.500000000
 20
6.085786438
 30
1.500000000
 11
-7.500000000
 21
-6.085786438
 31
1.500000000
  0
ARC
  5
C6A
330
A02
100
AcDbEntity
  8
Body
100
AcDbCircle
 10
-18.000000000
 20
3.499860730
 30
1.500000000
 40
1.000000000
100
AcDbArc
 50
180.000000000
 51
-90.511132938
  0
LINE
  5
C6B
330
A02
100
AcDbEntity
  8
Body
100
AcDbLine
 10
-7.500000000
 20
-6.085786438
 30
1.500000000
 11
-12.498426793
 21
-11.084213231
 31
1.500000000
  0
ARC
  5
C6C
330
A02
100
AcDbEntity
  8
Body
100
AcDbCircle
 10
-18.031222920
 20
0.000000000
 30
1.500000000
 40
2.500000000
100
AcDbArc
 50
0.000000000
 51
89.488867062
  0
ARC
  5
C6D
330
A02
100
AcDbEntity
  8
Body
100
AcDbCircle
 10
-13.912640356
 20
-9.669999669
 30
1.500000000
 40
2.000000000
100
AcDbArc
 50
-109.623066475
 51
-45.000000000
  0
ARC
  5
C6E
330
A02
100
AcDbEntity
  8
Body
100
AcDbCircle
 10
-18.031222920
 20
0.000000000
 30
1.500000000
 40
2.500000000
100
AcDbArc
 50
-89.488867062
 51
-0.000000000
  0
ARC
  5
C6F
330
A02
100
AcDbEntity
  8
Body
100
AcDbCircle
 10
-16.263455967
 20
-16.263455967
 30
1.500000000
 40
5.000000000
100
AcDbArc
 50
70.376933525
 51
106.823475217
  0
ARC
  5
C70
330
A02
100
AcDbEntity
  8
Body
100
AcDbCircle
 10
-18.000000000
 20
-3.499860730
 30
1.500000000
 40
1.000000000
100
AcDbArc
 50
90.511132938
 51
180.000000000
  0
ARC
  5
C71
330
A02
100
AcDbEntity
  8
Body
100
AcDbCircle
 10
-18.000000000
 20
-10.520249997
 30
1.500000000
 40
1.000000000
100
AcDbArc
 50
180.000000000
 51
-73.176524783
  0
LINE
  5
C72
330
A02
100
AcDbEntity
  8
Body
100
AcDbLine
 10
-19.000000000
 20
-10.520249997
 30
1.500000000
 11
-19.000000000
 21
-3.499860730
 31
1.500000000
  0
ARC
  5
C73
330
A02
100
AcDbEntity
  8
Body
100
AcDbCircle
 10
16.263455967
 20
-16.263455967
 30
1.500000000
 40
5.000000000
100
AcDbArc
 50
73.176524783
 51
109.623066475
  0
ARC
  5
C74
330
A02
100
AcDbEntity
  8
Body
100
AcDbCircle
 10
13.912640356
 20
-9.669999669
 30
1.500000000
 40
2.000000000
100
AcDbArc
 50
-135.000000000
 51
-70.376933525
  0
ARC
  5
C75
330
A02
100
AcDbEntity
  8
Body
100
AcDbCircle
 10
18.000000000
 20
-10.520249997
 30
1.500000000
 40
1.000000000
100
AcDbArc
 50
-106.823475217
 51
-0.000000000
  0
LINE
  5
C76
330
A02
100
AcDbEntity
  8
Body
100
AcDbLine
 10
12.498426793
 20
-11.084213231
 30
1.500000000
 11
7.500000000
 21
-6.085786438
 31
1.500000000
  0
LINE
  5
C77
330
A02
100
AcDbEntity
  8
Body
100
AcDbLine
 10
19.000000000
 20
-3.499860730
 30
1.500000000
 11
19.000000000
 21
-10.520249997
 31
1.500000000
  0
LINE
  5
C78
330
A02
100
AcDbEntity
  8
Body
100
AcDbLine
 10
7.500000000
 20
-6.085786438
 30
1.500000000
 11
7.500000000
 21
6.085786438
 31
1.500000000
  0
ARC
  5
C79
330
A02
100
AcDbEntity
  8
Body
100
AcDbCircle
 10
18.000000000
 20
-3.499860730
 30
1.500000000
 40
1.000000000
100
AcDbArc
 50
-0.000000000
 51
89.488867062
  0
LINE
  5
C7A
330
A02
100
AcDbEntity
  8
Body
100
AcDbLine
 10
7.500000000
 20
6.085786438
 30
1.500000000
 11
12.498426793
 21
11.084213231
 31
1.500000000
  0
ARC
  5
C7B
330
A02
100
AcDbEntity
  8
Body
100
AcDbCircle
 10
18.031222920
 20
0.000000000
 30
1.500000000
 40
2.500000000
100
AcDbArc
 50
90.511132938
 51
-90.511132938
  0
ARC
  5
C7C
330
A02
100
AcDbEntity
  8
Body
100
AcDbCircle
 10
13.912640356
 20
9.669999669
 30
1.500000000
 40
2.000000000
100
AcDbArc
 50
70.376933525
 51
135.000000000
  0
ARC
  5
C7D
330
A02
100
AcDbEntity
  8
Body
100
AcDbCircle
 10
18.000000000
 20
3.499860730
 30
1.500000000
 40
1.000000000
100
AcDbArc
 50
-89.488867062
 51
-0.000000000
  0
ARC
  5
C7E
330
A02
100
AcDbEntity
  8
Body
100
AcDbCircle
 10
16.263455967
 20
16.263455967
 30
1.500000000
 40
5.000000000
100
AcDbArc
 50
-109.623066475
 51
-73.176524783
  0
LINE
  5
C7F
330
A02
100
AcDbEntity
  8
Body
100
AcDbLine
 10
19.000000000
 20
10.520249997
 30
1.500000000
 11
19.000000000
 21
3.499860730
 31
1.500000000
  0
ARC
  5
C80
330
A02
100
AcDbEntity
  8
Body
100
AcDbCircle
 10
18.000000000
 20
10.520249997
 30
1.500000000
 40
1.000000000
100
AcDbArc
 50
0.000000000
 51
106.823475217
  0
ARC
  5
C81
330
A02
100
AcDbEntity
  8
Body
100
AcDbCircle
 10
16.263455967
 20
16.263455967
 30
1.500000000
 40
5.000000000
100
AcDbArc
 50
163.176524783
 51
-160.376933525
  0
ARC
  5
C82
330
A02
100
AcDbEntity
  8
Body
100
AcDbCircle
 10
9.669999669
 20
13.912640356
 30
1.500000000
 40
2.000000000
100
AcDbArc
 50
-45.000000000
 51
19.623066475
  0
ARC
  5
C83
330
A02
100
AcDbEntity
  8
Body
100
AcDbCircle
 10
10.520249997
 20
18.000000000
 30
1.500000000
 40
1.000000000
100
AcDbArc
 50
-16.823475217
 51
90.000000000
  0
LINE
  5
C84
330
A02
100
AcDbEntity
  8
Body
100
AcDbLine
 10
11.084213231
 20
12.498426793
 30
1.500000000
 11
6.085786438
 21
7.500000000
 31
1.500000000
  0
LINE
  5
C85
330
A02
100
AcDbEntity
  8
Body
100
AcDbLine
 10
3.499860730
 20
19.000000000
 30
1.500000000
 11
10.520249997
 21
19.000000000
 31
1.500000000
  0
LINE
  5
C86
330
A02
100
AcDbEntity
  8
Body
100
AcDbLine
 10
6.085786438
 20
7.500000000
 30
1.500000000
 11
-6.085786438
 21
7.500000000
 31
1.500000000
  0
ARC
  5
C87
330
A02
100
AcDbEntity
  8
Body
100
AcDbCircle
 10
3.499860730
 20
18.000000000
 30
1.500000000
 40
1.000000000
100
AcDbArc
 50
90.000000000
 51
179.488867062
  0
LINE
  5
C88
330
A02
100
AcDbEntity
  8
Body
100
AcDbLine
 10
-6.085786438
 20
7.500000000
 30
1.500000000
 11
-11.084213231
 21
12.498426793
 31
1.500000000
  0
ARC
  5
C89
330
A02
100
AcDbEntity
  8
Body
100
AcDbCircle
 10
0.000000000
 20
18.031222920
 30
1.500000000
 40
2.500000000
100
AcDbArc
 50
-179.488867062
 51
-0.511132938
  0
ARC
  5
C8A
330
A02
100
AcDbEntity
  8
Body
100
AcDbCircle
 10
-9.669999669
 20
13.912640356
 30
1.500000000
 40
2.000000000
100
AcDbArc
 50
160.376933525
 51
-135.000000000
  0
ARC
  5
C8B
330
A02
100
AcDbEntity
  8
Body
100
AcDbCircle
 10
-3.499860730
 20
18.000000000
 30
1.500000000
 40
1.000000000
100
AcDbArc
 50
0.511132938
 51
90.000000000
  0
ARC
  5
C8C
330
A02
100
AcDbEntity
  8
Body
100
AcDbCircle
 10
-16.263455967
 20
16.263455967
 30
1.500000000
 40
5.000000000
100
AcDbArc
 50
-19.623066475
 51
0.000000000
  0
LINE
  5
C8D
330
A02
100
AcDbEntity
  8
Body
100
AcDbLine
 10
-10.520249997
 20
19.000000000
 30
1.500000000
 11
-3.499860730
 21
19.000000000
 31
1.500000000
  0
ARC
  5
C8E
330
A02
100
AcDbEntity
  8
Body
100
AcDbCircle
 10
-16.263455967
 20
16.263455967
 30
1.500000000
 40
5.000000000
100
AcDbArc
 50
0.000000000
 51
16.823475217
  0
ARC
  5
C8F
330
A02
100
AcDbEntity
  8
Body
100
AcDbCircle
 10
-10.520249997
 20
18.000000000
 30
1.500000000
 40
1.000000000
100
AcDbArc
 50
90.000000000
 51
-163.176524783
  0
ENDSEC
  0
SECTION
  2
OBJECTS
  0
DICTIONARY
  5
F000
330
0
100
AcDbDictionary
  3
ACAD_GROUP
350
F001
  0
DICTIONARY
  5
F001
330
F000
100
AcDbDictionary
  0
ENDSEC
  0
EOF