0
SECTION
2
HEADER
9
$INSUNITS
70
4
9
$ACADVER
1
AC1014
9
$HANDSEED
5
FFFF
0
ENDSEC
0
SECTION
2
TABLES
0
TABLE
2
VPORT
5
8
100
AcDbSymbolTable
0
ENDTAB
0
TABLE
2
LTYPE
5
5
100
AcDbSymbolTable
0
LTYPE
5
14
100
AcDbSymbolTableRecord
100
AcDbLinetypeTableRecord
2
BYBLOCK
70
0
0
LTYPE
5
15
100
AcDbSymbolTableRecord
100
AcDbLinetypeTableRecord
2
BYLAYER
70
0
0
ENDTAB
0
TABLE
2
LAYER
5
2
100
AcDbSymbolTable
70
2
0
LAYER
5
50
100
AcDbSymbolTableRecord
100
AcDbLayerTableRecord
2
0
70
0
6
CONTINUOUS
0
ENDTAB
0
TABLE
2
STYLE
5
3
100
AcDbSymbolTable
70
1
0
STYLE
5
11
100
AcDbSymbolTableRecord
100
AcDbTextStyleTableRecord
2
STANDARD
70
0
0
ENDTAB
0
TABLE
2
VIEW
5
6
100
AcDbSymbolTable
70
0
0
ENDTAB
0
TABLE
2
UCS
5
7
100
AcDbSymbolTable
70
0
0
ENDTAB
0
TABLE
2
APPID
5
9
100
AcDbSymbolTable
70
2
0
APPID
5
12
100
AcDbSymbolTableRecord
100
AcDbRegAppTableRecord
2
ACAD
70
0
0
ENDTAB
0
TABLE
2
DIMSTYLE
5
A
100
AcDbSymbolTable
70
1
0
ENDTAB
0
TABLE
2
BLOCK_RECORD
5
1
100
AcDbSymbolTable
70
1
0
BLOCK_RECORD
5
1F
100
AcDbSymbolTableRecord
100
AcDbBlockTableRecord
2
*MODEL_SPACE
0
BLOCK_RECORD
5
1B
100
AcDbSymbolTableRecord
100
AcDbBlockTableRecord
2
*PAPER_SPACE
0
ENDTAB
0
ENDSEC
0
SECTION
2
BLOCKS
0
BLOCK
5
20
100
AcDbEntity
100
AcDbBlockBegin
2
*MODEL_SPACE
0
ENDBLK
5
21
100
AcDbEntity
100
AcDbBlockEnd
0
BLOCK
5
1C
100
AcDbEntity
100
AcDbBlockBegin
2
*PAPER_SPACE
0
ENDBLK
5
1D
100
AcDbEntity
100
AcDbBlockEnd
0
ENDSEC
0
SECTION
2
ENTITIES
0
LWPOLYLINE
5
100
100
AcDbEntity
8
0
100
AcDbPolyline
90
14
70
1
43
0.0
10
-31.883222147409306
20
-0.79327751614081687
42
-0.41421356237309515
10
-31.883222147409302
20
0.62093604623227883
10
-14.184906713047749
20
18.319251480593827
42
-0.63994540379304965
10
-12.480926441853873
20
17.691158906488116
42
-0.019776741861065886
10
-12.474673421868525
20
17.533130492326446
10
-12.47467342186853
20
15.91382951823096
42
-0.1683252019594266
10
-16.86521890000617
20
3.2414950636386042
42
-0.1241740753312673
10
-18.802347982652961
20
1.7484042076118012
42
0.65603676168633773
10
-18.802347994428324
20
-1.9207456428749394
42
-0.12417407260966336
10
-16.865218954529119
20
-3.413836469220124
42
-0.16832520306553242
10
-12.474673421868523
20
-16.086170993051464
10
-12.474673421947047
20
-17.705471962360267
42
-0.019776741824123093
10
-12.480926441916701
20
-17.86350037622697
42
-0.63994540382804543
10
-14.184906713118421
20
-18.491592950431681
0
LWPOLYLINE
5
101
100
AcDbEntity
8
0
100
AcDbPolyline
90
14
70
1
43
0.0
10
31.933875302314412
20
0.62093604623227783
42
-0.41421356237309631
10
31.933875302314412
20
-0.79327751614082009
10
14.235559406673126
20
-18.491593411782116
42
-0.63994517545039797
10
12.531579186680396
20
-17.863501483646992
42
-0.019776903189818479
10
12.525326064292761
20
-17.705471783411753
10
12.525326059542037
20
-16.086170695905313
42
-0.16832518277803565
10
16.915870290934176
20
-3.4138373376413922
42
-0.12417413918018411
10
18.853000380254947
20
-1.9207457902299434
42
0.65603687309466296
10
18.8530003823446
20
1.7484043083895489
42
-0.1241741386972081
10
16.915870300609843
20
3.2414958505336799
42
-0.16832518297432528
10
12.525326059542019
20
15.913829221084805
10
12.525326059542028
20
17.533130305923507
42
-0.019776905425918735
10
12.531579182878943
20
17.691160024002716
42
-0.6399451733336502
10
14.235559402397033
20
18.319251946149659
0
CIRCLE
5
102
100
AcDbEntity
8
0
100
AcDbCircle
10
43.380669094531548
20
-35.263589816254111
30
0
40
0.99999999999999645
210
0
220
-0
230
1
0
LWPOLYLINE
5
103
100
AcDbEntity
8
0
100
AcDbPolyline
90
8
70
1
43
0.0
10
54.49049691469348
20
-31.68208756176773
10
54.730782290002402
20
-31.021319049649165
42
0.32177127693775459
10
54.41537331443066
20
-29.898449206508715
10
46.717568686053603
20
-23.745268260722497
42
0.79441921772282187
10
45.953040087220643
20
-24.348878589579151
10
47.40549711089151
20
-27.432657459351692
42
0.13132919326769124
10
47.57210236607186
20
-27.629920044708868
10
53.734869083254999
20
-31.92152555441135
42
0.49243439593555477
0
CIRCLE
5
104
100
AcDbEntity
8
0
100
AcDbCircle
10
0.025326342979536957
20
17.945052182920424
30
0
40
1.0000000000000009
210
0
220
-0
230
1
0
LWPOLYLINE
5
105
100
AcDbEntity
8
0
100
AcDbPolyline
90
10
70
1
43
0.0
10
44.813395392670202
20
-26.248743254319375
10
36.533911747191148
20
-8.6701875363133478
42
0.070634088901562947
10
34.372968246218647
20
-5.380595865934672
42
0.44796948753933535
10
29.895884625600004
20
-5.3527416978798348
42
-0.025654238665269287
10
17.644300113233715
20
-17.589910378498441
42
0.45808364158563825
10
17.743468379627487
20
-22.132404753521424
42
0.062500652194949505
10
20.057047437361057
20
-23.599125479917991
10
38.606997068805512
20
-32.336134769064856
42
0.39237756922134931
10
39.903241901683089
20
-31.924257702360794
42
-0.14217131111446257
10
44.379869839664686
20
-27.556897721241373
42
0.39952323767480025
0
LWPOLYLINE
5
106
100
AcDbEntity
8
0
100
AcDbPolyline
90
8
70
1
43
0.0
10
-7.974673377843958
20
14.913829488563143
10
-6.9746733182393132
20
14.913829488563151
42
0.41421356237309614
10
-5.4746733182393124
20
16.413829488563149
10
-5.4746733182393124
20
23.413829637574764
42
0.4142135623730957
10
-6.9746733182393132
20
24.913829637574768
10
-7.974673377843958
20
24.913829637574771
42
0.4142135623730957
10
-9.4746733778439527
20
23.413829637574764
10
-9.4746733778439562
20
16.413829488563149
42
0.4142135623730942
0
LWPOLYLINE
5
107
100
AcDbEntity
8
0
100
AcDbPolyline
90
8
70
1
43
0.0
10
-1.0000000298023235
20
-4.0000000596046448
10
1.0000000298023213
20
-4.0000000596046492
42
0.41421356237309509
10
2.0000000298023246
20
-3.0000000596046461
10
2.0000000298023206
20
11.000000178813936
42
0.41421356237309692
10
1.0000000298023215
20
12.000000178813936
10
-1.0000000298023215
20
12.000000178813934
42
0.41421356237309453
10
-2.0000000298023184
20
11.000000178813936
10
-2.0000000298023242
20
-3.0000000596046439
42
0.4142135623730957
0
CIRCLE
5
108
100
AcDbEntity
8
0
100
AcDbCircle
10
-52.380662179028263
20
35.274746832492134
30
0
40
0.99999999999999645
210
0
220
-0
230
1
0
CIRCLE
5
109
100
AcDbEntity
8
0
100
AcDbCircle
10
10
20
9.9999999999999982
30
0
40
0.99999999999999867
210
0
220
-0
230
1
0
CIRCLE
5
110
100
AcDbEntity
8
0
100
AcDbCircle
10
47.87508712866088
20
-39.769164866621473
30
0
40
0.99999999999999645
210
0
220
-0
230
1
0
CIRCLE
5
111
100
AcDbEntity
8
0
100
AcDbCircle
10
-47.875087128660887
20
39.769164866621473
30
0
40
0.99999999999999645
210
0
220
-0
230
1
0
CIRCLE
5
112
100
AcDbEntity
8
0
100
AcDbCircle
10
-47.886244144898917
20
30.769171782124772
30
0
40
0.99999999999999645
210
0
220
-0
230
1
0
CIRCLE
5
113
100
AcDbEntity
8
0
100
AcDbCircle
10
-52.380662179028263
20
-35.274746832492141
30
0
40
0.99999999999999645
210
0
220
-0
230
1
0
CIRCLE
5
114
100
AcDbEntity
8
0
100
AcDbCircle
10
47.880665636779902
20
-35.26916832437314
30
0
40
2.4999999999999911
210
0
220
-0
230
1
0
CIRCLE
5
115
100
AcDbEntity
8
0
100
AcDbCircle
10
47.886244144898917
20
-30.769171782124772
30
0
40
0.99999999999999645
210
0
220
-0
230
1
0
CIRCLE
5
116
100
AcDbEntity
8
0
100
AcDbCircle
10
-47.886244144898917
20
-30.769171782124776
30
0
40
0.99999999999999645
210
0
220
-0
230
1
0
CIRCLE
5
117
100
AcDbEntity
8
0
100
AcDbCircle
10
47.880665636779938
20
35.269168324373112
30
0
40
2.4999999999999911
210
0
220
-0
230
1
0
CIRCLE
5
118
100
AcDbEntity
8
0
100
AcDbCircle
10
-9.9776260037766384
20
37.296905101321407
30
0
40
1.0000000000000009
210
0
220
-0
230
1
0
CIRCLE
5
119
100
AcDbEntity
8
0
100
AcDbCircle
10
47.886244144898917
20
30.769171782124772
30
0
40
0.99999999999999645
210
0
220
-0
230
1
0
CIRCLE
5
120
100
AcDbEntity
8
0
100
AcDbCircle
10
52.380662179028263
20
-35.274746832492141
30
0
40
0.99999999999999645
210
0
220
-0
230
1
0
CIRCLE
5
121
100
AcDbEntity
8
0
100
AcDbCircle
10
-47.87508712866088
20
-39.769164866621473
30
0
40
0.99999999999999645
210
0
220
-0
230
1
0
CIRCLE
5
122
100
AcDbEntity
8
0
100
AcDbCircle
10
-9.9776260037766367
20
-28.000000417232517
30
0
40
0.99999999999999978
210
0
220
-0
230
1
0
CIRCLE
5
123
100
AcDbEntity
8
0
100
AcDbCircle
10
43.380669094531548
20
35.263589816254104
30
0
40
0.99999999999999645
210
0
220
-0
230
1
0
CIRCLE
5
124
100
AcDbEntity
8
0
100
AcDbCircle
10
-43.380669094531534
20
-35.263589816254111
30
0
40
0.99999999999999645
210
0
220
-0
230
1
0
CIRCLE
5
125
100
AcDbEntity
8
0
100
AcDbCircle
10
-47.880665636779902
20
-35.26916832437314
30
0
40
2.4999999999999911
210
0
220
-0
230
1
0
CIRCLE
5
126
100
AcDbEntity
8
0
100
AcDbCircle
10
9.9776260037766384
20
-28.000000417232517
30
0
40
1.0000000000000009
210
0
220
-0
230
1
0
CIRCLE
5
127
100
AcDbEntity
8
0
100
AcDbCircle
10
-47.880665636779902
20
35.269168324373119
30
0
40
2.4999999999999911
210
0
220
-0
230
1
0
LWPOLYLINE
5
128
100
AcDbEntity
8
0
100
AcDbPolyline
90
9
70
1
43
0.0
10
44.486310592000613
20
-29.319553094828347
42
-0.57158434418485171
10
45.971218455540502
20
-30.194118337607389
10
45.971218455540495
20
-32.275263262569702
42
-0.20991410222553911
10
45.647834079084568
20
-33.01159966529341
42
0.010560774855767265
10
45.547213258864325
20
-33.108057416366051
10
45.488822190759265
20
-33.177210736709007
42
-0.22088553197401156
10
44.724764667709323
20
-33.5320626130422
10
42.633274180105687
20
-33.532062613042221
42
-0.57158434418486437
10
41.758708937326652
20
-32.047154749502297
42
-0.14048356061172898
0
CIRCLE
5
129
100
AcDbEntity
8
0
100
AcDbCircle
10
47.87508712866088
20
39.769164866621473
30
0
40
0.99999999999999645
210
0
220
-0
230
1
0
LWPOLYLINE
5
130
100
AcDbEntity
8
0
100
AcDbPolyline
90
9
70
1
43
0.0
10
45.547213258864325
20
32.935715946457506
10
45.488822190759272
20
33.004869266800483
42
0.22088553197401711
10
44.724764667709323
20
33.35972114313369
10
42.633274180105687
20
33.359721143133669
42
0.57158434418485493
10
41.758708937326652
20
31.87481327959377
42
0.14048356061172579
10
44.486310592000599
20
29.147211624919834
42
0.57158434418485216
10
45.971218455540509
20
30.021776867698865
10
45.971218455540502
20
32.102921792661178
42
0.20991410222552301
10
45.647834079084546
20
32.839258195384879
42
-0.010560774855765901
0
LWPOLYLINE
5
131
100
AcDbEntity
8
0
100
AcDbPolyline
90
8
70
1
43
0.0
10
39.849644049321697
20
-34.955899570754013
42
-0.13067430921086709
10
40.046169416682218
20
-35.121449078725824
10
44.366920199216054
20
-41.292120696430928
42
-0.49323460921486528
10
44.128219424569082
20
-42.048804275077963
10
43.460474892147467
20
-42.2916264475041
42
-0.3217712769377471
10
42.337605049007003
20
-41.976217471932358
10
36.184424103220792
20
-34.278412843555309
42
-0.79441921772284108
10
36.788034432077438
20
-33.513884244722327
0
CIRCLE
5
132
100
AcDbEntity
8
0
100
AcDbCircle
10
-43.380669094531569
20
35.263589816254104
30
0
40
0.99999999999999645
210
0
220
-0
230
1
0
CIRCLE
5
133
100
AcDbEntity
8
0
100
AcDbCircle
10
52.380662179028263
20
35.274746832492141
30
0
40
0.99999999999999645
210
0
220
-0
230
1
0
LWPOLYLINE
5
134
100
AcDbEntity
8
0
100
AcDbPolyline
90
8
70
1
43
0.0
10
54.730782290002402
20
30.848977579740637
10
54.49049691469348
20
31.509746091859213
42
0.49243439593555477
10
53.734869083254999
20
31.749184084502833
10
47.57210236607186
20
27.457578574800348
42
0.1313291932677019
10
47.40549711089151
20
27.260315989443164
10
45.953040087220643
20
24.176537119670641
42
0.79441921772282387
10
46.717568686053603
20
23.572926790813966
10
54.415373314430653
20
29.726107736600191
42
0.32177127693775615
0
LWPOLYLINE
5
135
100
AcDbEntity
8
0
100
AcDbPolyline
90
10
70
1
43
0.0
10
17.743468379627497
20
21.960063283612886
42
-0.062500652194945647
10
20.057047437361049
20
23.426784010009452
10
38.606997068805512
20
32.163793299156318
42
-0.39237756922134764
10
39.903241901683081
20
31.751916232452263
42
0.1421713111144611
10
44.379869839664678
20
27.384556251332842
42
-0.39952323767481207
10
44.813395392670216
20
26.076401784410844
10
36.533911747191141
20
8.4978460664048132
42
-0.070634088901563433
10
34.372968246218591
20
5.2082543960261791
42
-0.44796948753934762
10
29.895884625600146
20
5.1804002279713401
42
0.025654238665271507
10
17.644300113233726
20
17.417568908589907
42
-0.45808364158563969
0
CIRCLE
5
136
100
AcDbEntity
8
0
100
AcDbCircle
10
9.9776260037766384
20
37.296905101321407
30
0
40
1.0000000000000009
210
0
220
-0
230
1
0
LWPOLYLINE
5
137
100
AcDbEntity
8
0
100
AcDbPolyline
90
8
70
1
43
0.0
10
8.0253261478088547
20
24.913829463822278
10
7.0253261600053962
20
24.913829481025548
42
0.41421356044925334
10
5.525326134200494
20
23.41382951668308
10
5.5253259677986497
20
16.413829367671482
42
0.41421356429694373
10
7.0253259419937431
20
14.91382933201395
10
8.0253259801094003
20
14.913829314810679
42
0.41421356255440583
10
9.5253260059143141
20
16.413829289934327
10
9.5253261220039569
20
23.413829438945921
42
0.41421356219178146
0
LWPOLYLINE
5
138
100
AcDbEntity
8
0
100
AcDbPolyline
90
14
70
1
43
0.0
10
1.0938395019592575
20
21.007971341213004
42
-0.089392944459095583
10
0.74472699233122386
20
20.945052166019057
10
0.025326341839242428
20
20.945052183120442
10
-0.69407423505707111
20
20.945052183120442
42
-0.089392944459078902
10
-1.043186743189406
20
21.007971366613365
10
-2.8237857965693247
20
21.671339339314613
42
-0.313222680547591
10
-3.4746732884369917
20
22.608420155821687
10
-3.474673288436994
20
23.91182251579577
42
-0.41480096717597181
10
-2.4726681809228723
20
24.911820505565686
10
0.025326425725946955
20
24.906811747740907
10
2.52332103249383
20
24.91182044618412
42
-0.41480096717597653
10
3.5253261162363074
20
23.911822432594857
10
3.5253260852522255
20
22.608420072620767
42
-0.31322268054758873
10
2.8744385711085547
20
21.671339271586394
0
LWPOLYLINE
5
139
100
AcDbEntity
8
0
100
AcDbPolyline
90
10
70
1
43
0.0
10
-8.4746733629427968
20
-12.730408158739419
42
-0.29423201493055978
10
-7.8880593444548772
20
-11.819852267929145
10
-0.80144562399018993
20
-8.6025793931971943
42
-0.21636947838085269
10
0.85209830205813408
20
-8.6025793931971926
10
7.9387120225228269
20
-11.819852267929143
42
-0.29423201493055562
10
8.5253260410107465
20
-12.730408158739415
10
8.5253260410107483
20
-15.117393655211242
42
-0.41421356237308915
10
7.5253260410107456
20
-16.117393655211238
10
-7.4746733629427906
20
-16.117393655211238
42
-0.4142135623730947
10
-8.4746733629427933
20
-15.117393655211242
0
CIRCLE
5
140
100
AcDbEntity
8
0
100
AcDbCircle
10
0.025326339033977519
20
-18.117393655211238
30
0
40
1.0000000000000009
210
0
220
-0
230
1
0
CIRCLE
5
141
100
AcDbEntity
8
0
100
AcDbCircle
10
-18.005896581568255
20
-0.086170720187609282
30
0
40
0.99999999999999867
210
0
220
-0
230
1
0
CIRCLE
5
142
100
AcDbEntity
8
0
100
AcDbCircle
10
18.056549260106426
20
-0.086170740466601253
30
0
40
1.0000000000000009
210
0
220
-0
230
1
0
LWPOLYLINE
5
143
100
AcDbEntity
8
0
100
AcDbPolyline
90
10
70
1
43
0.0
10
-34.322315091313492
20
-5.3805958659347137
42
-0.44796948753935129
10
-29.845231470694991
20
-5.3527416978798925
42
0.025654238665271507
10
-17.593646958328595
20
-17.589910378498455
42
-0.45808364158564091
10
-17.692815224722381
20
-22.132404753521445
42
-0.06250065219494598
10
-20.006394282455933
20
-23.599125479917987
10
-38.556343913900392
20
-32.336134769064863
42
-0.39237756922134931
10
-39.852588746777961
20
-31.924257702360798
42
0.14217131111446094
10
-44.329216684759551
20
-27.556897721241388
42
-0.39952323767481207
10
-44.762742237765082
20
-26.24874325431939
10
-36.483258592286035
20
-8.6701875363133514
42
-0.070634088901564987
0
LWPOLYLINE
5
144
100
AcDbEntity
8
0
100
AcDbPolyline
90
10
70
1
43
0.0
10
-39.852588746777975
20
31.751916232452253
42
-0.1421713111144628
10
-44.329216684759572
20
27.384556251332832
42
0.39952323767480691
10
-44.762742237765096
20
26.076401784410837
10
-36.483258592286035
20
8.4978460664048114
42
0.070634088901565847
10
-34.322315091313527
20
5.2082543960261374
42
0.44796948753935367
10
-29.845231470694678
20
5.1804002279715515
42
-0.025654238665269842
10
-17.59364695832863
20
17.417568908589907
42
0.45808364158564091
10
-17.692815224722359
20
21.96006328361289
42
0.06250065219494251
10
-20.006394282455922
20
23.426784010009435
10
-38.556343913900392
20
32.163793299156332
42
0.39237756922134509
0
LWPOLYLINE
5
145
100
AcDbEntity
8
0
100
AcDbPolyline
90
9
70
1
43
0.0
10
-45.438169035854145
20
33.004869266800476
42
-0.22088553197401284
10
-44.674111512804203
20
33.359721143133648
10
-42.582621025200574
20
33.359721143133655
42
-0.57158434418486204
10
-41.708055782421233
20
31.874813279593589
42
-0.14048356061161013
10
-44.435657437095458
20
29.147211624919823
42
-0.5715843441848687
10
-45.920565300635388
20
30.021776867698851
10
-45.920565300635388
20
32.102921792661164
42
-0.20991410222551185
10
-45.597180924179447
20
32.839258195384872
42
0.010560774855748203
10
-45.496560103959204
20
32.935715946457485
0
LWPOLYLINE
5
146
100
AcDbEntity
8
0
100
AcDbPolyline
90
9
70
1
43
0.0
10
-45.920565300635388
20
-30.194118337607406
42
-0.57158434418485493
10
-44.435657437095621
20
-29.319553094828599
42
-0.14048356061130524
10
-41.708055782421532
20
-32.047154749502312
42
-0.57158434418486237
10
-42.582621025200574
20
-33.532062613042214
10
-44.674111512804203
20
-33.532062613042221
42
-0.22088553197401167
10
-45.438169035854131
20
-33.177210736709014
10
-45.496560103959204
20
-33.108057416366051
42
0.010560774855700875
10
-45.597180924179447
20
-33.01159966529341
42
-0.20991410222551105
10
-45.920565300635388
20
-32.275263262569716
0
LWPOLYLINE
5
147
100
AcDbEntity
8
0
100
AcDbPolyline
90
8
70
1
43
0.0
10
-54.439843759788332
20
31.509746091859192
10
-54.680129135097282
20
30.848977579740623
42
0.32177127693774532
10
-54.364720159525568
20
29.726107736600174
10
-46.666915531148476
20
23.572926790813952
42
0.79441921772285518
10
-45.902386932315544
20
24.176537119670627
10
-47.354843955986389
20
27.260315989443153
42
0.13132919326771014
10
-47.521449211166747
20
27.45757857480033
10
-53.684215928349886
20
31.749184084502808
42
0.49243439593556015
0
LWPOLYLINE
5
148
100
AcDbEntity
8
0
100
AcDbPolyline
90
8
70
1
43
0.0
10
-46.666915531148476
20
-23.745268260722536
42
-0.79441921772288882
10
-45.902386932315522
20
-24.348878589579179
10
-47.354843955986397
20
-27.432657459351706
42
-0.13132919326774317
10
-47.521449211166747
20
-27.629920044708879
10
-53.684215928349886
20
-31.921525554411389
42
-0.49243439593556892
10
-54.43984375978836
20
-31.682087561767752
10
-54.680129135097289
20
-31.021319049649172
42
-0.32177127693775848
10
-54.364720159525532
20
-29.898449206508737
0
LWPOLYLINE
5
149
100
AcDbEntity
8
0
100
AcDbPolyline
90
10
70
1
43
0.0
10
9.0757427814583185
20
-6.4683235843942288
42
-0.22106018875319286
10
5.9415984043872978
20
-5.8714479025461399
42
-0.24140291293574012
10
5.5253259963072621
20
-5.0594983361127808
10
5.5253259963072621
20
5.0594983361127808
42
-0.24140291293573707
10
5.941598404387296
20
5.8714479025461399
42
-0.2657928985131659
10
9.6794470722211443
20
6.2606062003328011
42
-0.19607018251525493
10
10.203970992758673
20
5.7172170346875308
10
12.362540279908053
20
0.32079381681408592
42
-0.20953503963853023
10
12.336380926352914
20
-0.48166926964472556
10
9.7336287538240729
20
-5.9297293982805934
42
-0.22314228291594382
0
CIRCLE
5
150
100
AcDbEntity
8
0
100
AcDbCircle
10
10
20
-9.9999999999999982
30
0
40
1.0000000000000009
210
0
220
-0
230
1
0
LWPOLYLINE
5
151
100
AcDbEntity
8
0
100
AcDbPolyline
90
8
70
1
43
0.0
10
-44.077566269663954
20
-42.048804275077984
42
-0.49323460921486351
10
-44.316267044310955
20
-41.292120696430956
10
-39.995516261777098
20
-35.121449078725831
42
-0.13067430921089329
10
-39.798990894416562
20
-34.955899570754021
10
-36.737381277172318
20
-33.513884244722348
42
-0.79441921772283874
10
-36.133770948315657
20
-34.278412843555323
10
-42.28695189410189
20
-41.976217471932372
42
-0.32177127693775848
10
-43.409821737242346
20
-42.291626447504115
0
CIRCLE
5
152
100
AcDbEntity
8
0
100
AcDbCircle
10
-10
20
10
30
0
40
0.99999999999999867
210
0
220
-0
230
1
0
LWPOLYLINE
5
153
100
AcDbEntity
8
0
100
AcDbPolyline
90
10
70
1
43
0.0
10
-12.285728248284959
20
-0.48166926964472889
10
-9.6763895812417093
20
-5.9435161961671525
42
0.22869831306395774
10
-8.9979470463566216
20
-6.4870616972616002
42
0.22143905766233585
10
-5.8727546013170207
20
-5.8207654747805542
42
0.23543448265873709
10
-5.4746733182393106
20
-5.0222081141491319
10
-5.4746733182393124
20
5.0222081141491355
42
0.23543448265873768
10
-5.8727546013170242
20
5.8207654747805604
42
0.26545206469150823
10
-9.5964066607718213
20
6.296097721280427
42
0.20227262671677695
10
-10.142872984801745
20
5.7433303594099741
10
-12.311887601840098
20
0.32079381681408004
42
0.20953503963853057
0
LWPOLYLINE
5
154
100
AcDbEntity
8
0
100
AcDbPolyline
90
8
70
1
43
0.0
10
42.337605049007003
20
41.803876002023841
10
36.184424103220771
20
34.10607137364677
42
0.79441921772283186
10
36.788034432077438
20
33.341542774813803
10
39.849644049321682
20
34.783558100845489
42
0.13067430921084783
10
40.046169416682218
20
34.949107608817293
10
44.36692019921604
20
41.119779226522397
42
0.49323460921486989
10
44.128219424569046
20
41.876462805169453
10
43.460474892147445
20
42.119284977595591
42
0.32177127693775542
0
LWPOLYLINE
5
155
100
AcDbEntity
8
0
100
AcDbPolyline
90
8
70
1
43
0.0
10
-39.798990894416576
20
34.783558100845475
10
-36.737381277172325
20
33.341542774813789
42
0.79441921772283675
10
-36.133770948315671
20
34.106071373646778
10
-42.286951894101897
20
41.803876002023813
42
0.32177127693774743
10
-43.409821737242346
20
42.119284977595584
10
-44.077566269663954
20
41.876462805169439
42
0.49323460921487822
10
-44.316267044310955
20
41.119779226522404
10
-39.995516261777112
20
34.949107608817293
42
0.13067430921087109
0
CIRCLE
5
156
100
AcDbEntity
8
0
100
AcDbCircle
10
-9.9999999999999982
20
-10
30
0
40
1.0000000000000009
210
0
220
-0
230
1
0
LWPOLYLINE
5
157
100
AcDbEntity
8
0
100
AcDbPolyline
90
8
70
1
43
0.0
10
-5
20
-23.500000342726711
42
-0.41421356237309537
10
-4.5000000000000009
20
-23.000000342726711
10
4.5000000000000027
20
-23.000000342726715
42
-0.41421356237309598
10
5
20
-23.500000342726711
10
4.9999999999999929
20
-28.272078366721551
42
-0.51763809168948371
10
4.3333333311257594
20
-28.743482886732075
42
0.15870994411491091
10
-3.7142857106364513
20
-28.541907406423807
42
-0.50186313761649259
10
-5.0000000000000036
20
-27.583592560011894
0
LINE
5
158
100
AcDbEntity
8
0
100
AcDbLine
10
-49.778811667092107
20
41.399331645362601
30
0
11
-42.282641778512556
21
44.125278723684772
31
0
0
ARC
5
159
100
AcDbEntity
8
0
100
AcDbCircle
10
-41.940891283517523
20
43.185488002741728
30
0
40
0.99999999999999523
210
0
220
-0
230
1
100
AcDbArc
50
38.147607213077549
51
109.98355961891319
0
LINE
5
160
100
AcDbEntity
8
0
100
AcDbLine
10
-41.154469229869576
20
43.803177531175017
30
0
11
-31.468384550547391
21
31.471172122824829
31
0
0
ARC
5
161
100
AcDbEntity
8
0
100
AcDbCircle
10
-31.075173523723411
20
31.780016887041469
30
0
40
0.50000000000000111
210
0
220
0
230
1
100
AcDbArc
50
218.1476072130767
51
244.77960735368188
0
LINE
5
162
100
AcDbEntity
8
0
100
AcDbLine
10
-31.28822417850737
20
31.327679160894153
30
0
11
-16.752977350572287
21
24.481591215690379
31
0
0
ARC
5
163
100
AcDbEntity
8
0
100
AcDbCircle
10
-15.474673421868527
20
27.195617572574292
30
0
40
3.0000000000000071
210
0
220
0
230
1
100
AcDbArc
50
244.779607353682
51
360
0
LINE
5
164
100
AcDbEntity
8
0
100
AcDbLine
10
-12.474673421868527
20
27.195617572574285
30
0
11
-12.474673421868527
21
37.296905101153897
31
0
0
ARC
5
165
100
AcDbEntity
8
0
100
AcDbCircle
10
-9.9746734218685216
20
37.296905101321407
30
0
40
2.5000000000000027
210
0
220
0
230
1
100
AcDbArc
50
90.067668208531856
51
180
0
ARC
5
166
100
AcDbEntity
8
0
100
AcDbCircle
10
-9.9776260037766384
20
37.296905101321407
30
0
40
2.5000000000000009
210
0
220
0
230
1
100
AcDbArc
50
0
51
90.000000000000099
0
LINE
5
167
100
AcDbEntity
8
0
100
AcDbLine
10
-7.477626003776642
20
33.419547168054279
30
0
11
-7.4776260037766376
21
37.296905101321407
31
0
0
ARC
5
168
100
AcDbEntity
8
0
100
AcDbCircle
10
-1.4776260037766551
20
33.419547168054279
30
0
40
5.9999999999999867
210
0
220
0
230
1
100
AcDbArc
50
180
51
223.50580745542797
0
ARC
5
169
100
AcDbEntity
8
0
100
AcDbCircle
10
0.025326574019080009
20
34.846085461384632
30
0
40
8.0721674530405743
210
0
220
0
230
1
100
AcDbArc
50
223.50580745542788
51
316.49419255577544
0
ARC
5
170
100
AcDbEntity
8
0
100
AcDbCircle
10
1.52827915209377
20
33.419547168348146
30
0
40
5.9999999999999734
210
-0
220
0
230
1
100
AcDbArc
50
-43.505807444224587
51
0
0
LINE
5
171
100
AcDbEntity
8
0
100
AcDbLine
10
7.52827915209373
20
33.419547168348146
30
0
11
7.5282791501940061
21
37.296905100186812
31
0
0
ARC
5
172
100
AcDbEntity
8
0
100
AcDbCircle
10
10.028279150194004
20
37.296905101411696
30
0
40
2.4999999999999964
210
0
220
0
230
1
100
AcDbArc
50
90.067679868348804
51
180
0
ARC
5
173
100
AcDbEntity
8
0
100
AcDbCircle
10
10.025326059542037
20
37.296905101411689
30
0
40
2.4999999999999867
210
0
220
0
230
1
100
AcDbArc
50
0
51
90.000000000258723
0
LINE
5
174
100
AcDbEntity
8
0
100
AcDbLine
10
12.525326059542024
20
37.296905101411689
30
0
11
12.525326059542028
21
27.195617328958683
31
0
0
ARC
5
175
100
AcDbEntity
8
0
100
AcDbCircle
10
15.525326059542035
20
27.195617328958683
30
0
40
3.0000000000000071
210
0
220
0
230
1
100
AcDbArc
50
180
51
295.22039264631786
0
LINE
5
176
100
AcDbEntity
8
0
100
AcDbLine
10
16.803629988245788
20
24.481590972074763
30
0
11
31.338877333412483
21
31.327679160894167
31
0
0
ARC
5
177
100
AcDbEntity
8
0
100
AcDbCircle
10
31.125826678628531
20
31.78001688704148
30
0
40
0.49999999999999234
210
-0
220
0
230
1
100
AcDbArc
50
295.22039264631746
51
321.85239278692285
0
LINE
5
178
100
AcDbEntity
8
0
100
AcDbLine
10
31.519037705452501
20
31.471172122824843
30
0
11
41.205122384774668
21
43.803177531175017
31
0
0
ARC
5
179
100
AcDbEntity
8
0
100
AcDbCircle
10
41.991544438422643
20
43.185488002741728
30
0
40
1.0000000000000024
210
0
220
-0
230
1
100
AcDbArc
50
70.016440381086937
51
141.85239278692347
0
LINE
5
180
100
AcDbEntity
8
0
100
AcDbLine
10
49.82946482199722
20
41.399331645362601
30
0
11
42.333294933417676
21
44.125278723684779
31
0
0
ARC
5
181
100
AcDbEntity
8
0
100
AcDbCircle
10
49.48771432700218
20
40.459540924419571
30
0
40
1.0000000000000042
210
0
220
-0
230
1
100
AcDbArc
50
45.000000000000568
51
70.016440381086142
0
LINE
5
182
100
AcDbEntity
8
0
100
AcDbLine
10
50.194821108188719
20
41.166647705606124
30
0
11
53.7781450180129
21
37.583323795781929
31
0
0
ARC
5
183
100
AcDbEntity
8
0
100
AcDbCircle
10
53.071038236826354
20
36.876217014595376
30
0
40
1.000000000000004
210
0
220
-0
230
1
100
AcDbArc
50
19.983559618913436
51
45.000000000000291
0
LINE
5
184
100
AcDbEntity
8
0
100
AcDbLine
10
54.010828957769405
20
37.217967509590416
30
0
11
56.736776036091577
21
29.72179762101085
31
0
0
ARC
5
185
100
AcDbEntity
8
0
100
AcDbCircle
10
55.79698531514854
20
29.38004712601581
30
0
40
1.0000000000000022
210
-0
220
0
230
1
100
AcDbArc
50
-51.852392786923147
51
19.983559618913734
0
LINE
5
186
100
AcDbEntity
8
0
100
AcDbLine
10
56.414674843581821
20
28.593625072367853
30
0
11
44.082669435231679
21
18.907540393045696
31
0
0
ARC
5
187
100
AcDbEntity
8
0
100
AcDbCircle
10
44.391514199448316
20
18.51432936622172
30
0
40
0.49999999999999389
210
0
220
0
230
1
100
AcDbArc
50
128.14760721307664
51
154.77960735368174
0
LINE
5
188
100
AcDbEntity
8
0
100
AcDbLine
10
43.939176473300996
20
18.727380021005683
30
0
11
35.479397949086653
21
0.76603188418156831
31
0
0
ARC
5
189
100
AcDbEntity
8
0
100
AcDbCircle
10
37.288748853675926
20
-0.086170734954269371
30
0
40
2.0000000000000009
210
0
220
0
230
1
100
AcDbArc
50
154.77960735368202
51
205.22039264631798
0
LINE
5
190
100
AcDbEntity
8
0
100
AcDbLine
10
35.47939794908666
20
-0.93837335409010347
30
0
11
43.939176473301018
21
-18.899721490914214
31
0
0
ARC
5
191
100
AcDbEntity
8
0
100
AcDbCircle
10
44.391514199448316
20
-18.686670836130247
30
0
40
0.4999999999999869
210
0
220
0
230
1
100
AcDbArc
50
205.22039264631968
51
231.85239278692242
0
LINE
5
192
100
AcDbEntity
8
0
100
AcDbLine
10
44.082669435231672
20
-19.07988186295422
30
0
11
56.414674843581849
21
-28.765966542276399
31
0
0
ARC
5
193
100
AcDbEntity
8
0
100
AcDbCircle
10
55.79698531514854
20
-29.552388595924345
30
0
40
1.000000000000004
210
-0
220
0
230
1
100
AcDbArc
50
-19.983559618913581
51
51.852392786921492
0
LINE
5
194
100
AcDbEntity
8
0
100
AcDbLine
10
54.010828957769412
20
-37.390308979498954
30
0
11
56.736776036091584
21
-29.894139090919385
31
0
0
ARC
5
195
100
AcDbEntity
8
0
100
AcDbCircle
10
53.071038236826276
20
-37.04855848450385
30
0
40
1.0000000000000893
210
-0
220
0
230
1
100
AcDbArc
50
315.00000000000057
51
340.01644038108475
0
LINE
5
196
100
AcDbEntity
8
0
100
AcDbLine
10
50.194821108188741
20
-41.338989175514634
30
0
11
53.778145018012893
21
-37.755665265690453
31
0
0
ARC
5
197
100
AcDbEntity
8
0
100
AcDbCircle
10
49.48771432700201
20
-40.631882394327796
30
0
40
1.0000000000003362
210
-0
220
0
230
1
100
AcDbArc
50
289.98355961891798
51
314.99999999999568
0
LINE
5
198
100
AcDbEntity
8
0
100
AcDbLine
10
49.829464821997234
20
-41.571673115271125
30
0
11
42.333294933417669
21
-44.297620193593303
31
0
0
ARC
5
199
100
AcDbEntity
8
0
100
AcDbCircle
10
41.991544438422643
20
-43.357829472650252
30
0
40
1.0000000000000022
210
0
220
0
230
1
100
AcDbArc
50
218.14760721307701
51
289.98355961891264
0
LINE
5
200
100
AcDbEntity
8
0
100
AcDbLine
10
41.205122384774683
20
-43.975519001083541
30
0
11
31.519037705452511
21
-31.64351359273337
31
0
0
ARC
5
201
100
AcDbEntity
8
0
100
AcDbCircle
10
31.125826678628531
20
-31.952358356950015
30
0
40
0.50000000000000111
210
0
220
-0
230
1
100
AcDbArc
50
38.147607213077038
51
64.779607353682096
0
LINE
5
202
100
AcDbEntity
8
0
100
AcDbLine
10
31.338877333412491
20
-31.500020630802695
30
0
11
16.803630021344432
21
-24.653932457572733
31
0
0
ARC
5
203
100
AcDbEntity
8
0
100
AcDbCircle
10
15.525326092640679
20
-27.367958814456639
30
0
40
2.999999999999996
210
0
220
-0
230
1
100
AcDbArc
50
64.779607353682039
51
180
0
LINE
5
204
100
AcDbEntity
8
0
100
AcDbLine
10
12.525326092640674
20
-27.367958814456639
30
0
11
12.525326098989337
21
-29.531923117793024
31
0
0
ARC
5
205
100
AcDbEntity
8
0
100
AcDbCircle
10
11.525326098989353
20
-29.531923120726844
30
0
40
0.99999999999998113
210
-0
220
0
230
1
100
AcDbArc
50
-57.994614489605816
51
0
0
LINE
5
206
100
AcDbEntity
8
0
100
AcDbLine
10
12.055325073067555
20
-30.37992140343502
30
0
11
5.3088042127998847
21
-34.596497318093547
31
0
0
ARC
5
207
100
AcDbEntity
8
0
100
AcDbCircle
10
4.7788052387216684
20
-33.748499035385336
30
0
40
1.0000000000000144
210
0
220
0
230
1
100
AcDbArc
50
220.92824207609593
51
302.00538551039375
0
ARC
5
208
100
AcDbEntity
8
0
100
AcDbCircle
10
0.025326339033977519
20
-37.870194570471675
30
0
40
5.2915765698055806
210
0
220
-0
230
1
100
AcDbArc
50
40.928242076095032
51
139.07175792390501
0
ARC
5
209
100
AcDbEntity
8
0
100
AcDbCircle
10
-4.7281525606537134
20
-33.748499035385336
30
0
40
1.0000000000000118
210
0
220
0
230
1
100
AcDbArc
50
237.99461448960642
51
319.07175792390399
0
LINE
5
210
100
AcDbEntity
8
0
100
AcDbLine
10
-12.004672396598776
20
-30.379921402435535
30
0
11
-5.2581515347319243
21
-34.596497318093547
31
0
0
ARC
5
211
100
AcDbEntity
8
0
100
AcDbCircle
10
-11.474673422520565
20
-29.531923119727352
30
0
40
0.99999999999999423
210
0
220
0
230
1
100
AcDbArc
50
180
51
237.9946144896056
0
LINE
5
212
100
AcDbEntity
8
0
100
AcDbLine
10
-12.47467342252056
20
-29.531923119678854
30
0
11
-12.474673422415616
21
-27.367959042886003
31
0
0
ARC
5
213
100
AcDbEntity
8
0
100
AcDbCircle
10
-15.474673422415615
20
-27.367959042740516
30
0
40
2.9999999999999982
210
-0
220
0
230
1
100
AcDbArc
50
0
51
115.22039264631812
0
LINE
5
214
100
AcDbEntity
8
0
100
AcDbLine
10
-16.752977351119377
20
-24.65393268585661
30
0
11
-31.288224178507352
21
-31.500020630802695
31
0
0
ARC
5
215
100
AcDbEntity
8
0
100
AcDbCircle
10
-31.0751735237234
20
-31.952358356950015
30
0
40
0.49999999999999828
210
0
220
0
230
1
100
AcDbArc
50
115.22039264631717
51
141.85239278692245
0
LINE
5
216
100
AcDbEntity
8
0
100
AcDbLine
10
-31.468384550547373
20
-31.64351359273337
30
0
11
-41.154469229869562
21
-43.975519001083541
31
0
0
ARC
5
217
100
AcDbEntity
8
0
100
AcDbCircle
10
-41.940891283517523
20
-43.357829472650252
30
0
40
1.0000000000000024
210
0
220
0
230
1
100
AcDbArc
50
250.01644038108694
51
321.85239278692291
0
LINE
5
218
100
AcDbEntity
8
0
100
AcDbLine
10
-49.7788116670921
20
-41.571673115271146
30
0
11
-42.282641778512556
21
-44.297620193593303
31
0
0
ARC
5
219
100
AcDbEntity
8
0
100
AcDbCircle
10
-49.437061172097046
20
-40.631882394328102
30
0
40
1.0000000000000042
210
0
220
0
230
1
100
AcDbArc
50
225.00000000000028
51
250.01644038108566
0
LINE
5
220
100
AcDbEntity
8
0
100
AcDbLine
10
-50.144167953283592
20
-41.338989175514655
30
0
11
-53.72749186310778
21
-37.755665265690453
31
0
0
ARC
5
221
100
AcDbEntity
8
0
100
AcDbCircle
10
-53.020385081921226
20
-37.048558484503921
30
0
40
1.0000000000000024
210
0
220
0
230
1
100
AcDbArc
50
199.98355961891357
51
224.99999999999912
0
LINE
5
222
100
AcDbEntity
8
0
100
AcDbLine
10
-53.960175802864271
20
-37.390308979498961
30
0
11
-56.506285974114618
21
-30.388678408416713
31
0
0
ARC
5
223
100
AcDbEntity
8
0
100
AcDbCircle
10
-55.566495253171567
20
-30.046927913421669
30
0
40
0.99999999999999867
210
0
220
0
230
1
100
AcDbArc
50
128.14760721307732
51
199.9835596189136
0
LINE
5
224
100
AcDbEntity
8
0
100
AcDbLine
10
-56.184184781604856
20
-29.260505859773716
30
0
11
-44.600368726376288
21
-20.162081110084383
31
0
0
ARC
5
225
100
AcDbEntity
8
0
100
AcDbCircle
10
-45.218058254809598
20
-19.375659056436405
30
0
40
1.0000000000000344
210
-0
220
0
230
1
100
AcDbArc
50
308.14760721307738
51
334.77960735368094
0
LINE
5
226
100
AcDbEntity
8
0
100
AcDbLine
10
-44.313382802514944
20
-19.801760366004352
30
0
11
-35.428744794181547
21
-0.93837335409012068
31
0
0
ARC
5
227
100
AcDbEntity
8
0
100
AcDbCircle
10
-37.238095698770792
20
-0.086170734954269371
30
0
40
1.9999999999999822
210
-0
220
0
230
1
100
AcDbArc
50
-25.220392646318668
51
25.220392646318214
0
LINE
5
228
100
AcDbEntity
8
0
100
AcDbLine
10
-35.42874479418154
20
0.76603188418156787
30
0
11
-43.888523318395876
21
18.727380021005668
31
0
0
ARC
5
229
100
AcDbEntity
8
0
100
AcDbCircle
10
-44.340861044543196
20
18.514329366221702
30
0
40
0.500000000000003
210
0
220
-0
230
1
100
AcDbArc
50
25.220392646318633
51
51.852392786921804
0
LINE
5
230
100
AcDbEntity
8
0
100
AcDbLine
10
-44.032016280326545
20
18.907540393045675
30
0
11
-56.364021688676701
21
28.59362507236785
31
0
0
ARC
5
231
100
AcDbEntity
8
0
100
AcDbCircle
10
-55.746332160243426
20
29.380047126015807
30
0
40
1.000000000000004
210
0
220
0
230
1
100
AcDbArc
50
160.01644038108657
51
231.85239278692345
0
LINE
5
232
100
AcDbEntity
8
0
100
AcDbLine
10
-53.960175802864292
20
37.217967509590409
30
0
11
-56.686122881186478
21
29.721797621010847
31
0
0
ARC
5
233
100
AcDbEntity
8
0
100
AcDbCircle
10
-53.020385081921155
20
36.876217014595312
30
0
40
1.0000000000000893
210
0
220
0
230
1
100
AcDbArc
50
135.0000000000006
51
160.01644038108518
0
LINE
5
234
100
AcDbEntity
8
0
100
AcDbLine
10
-50.144167953283613
20
41.16664770560611
30
0
11
-53.727491863107772
21
37.583323795781915
31
0
0
ARC
5
235
100
AcDbEntity
8
0
100
AcDbCircle
10
-49.437061172096932
20
40.45954092441935
30
0
40
1.0000000000002429
210
0
220
0
230
1
100
AcDbArc
50
109.98355961891683
51
134.99999999999685
0
ENDSEC
0
SECTION
2
OBJECTS
0
DICTIONARY
5
C
100
AcDbDictionary
3
ACAD_GROUP
350
D
3
ACAD_MLINESTYLE
350
17
0
DICTIONARY
5
D
100
AcDbDictionary
0
DICTIONARY
5
1A
330
C
100
AcDbDictionary
0
DICTIONARY
5
17
100
AcDbDictionary
0
ENDSEC
0
EOF
