0
SECTION
2
HEADER
9
$INSUNITS
70
4
9
$ACADVER
1
AC1014
9
$HANDSEED
5
FFFF
0
ENDSEC
0
SECTION
2
TABLES
0
TABLE
2
VPORT
5
8
100
AcDbSymbolTable
0
ENDTAB
0
TABLE
2
LTYPE
5
5
100
AcDbSymbolTable
0
LTYPE
5
14
100
AcDbSymbolTableRecord
100
AcDbLinetypeTableRecord
2
BYBLOCK
70
0
0
LTYPE
5
15
100
AcDbSymbolTableRecord
100
AcDbLinetypeTableRecord
2
BYLAYER
70
0
0
ENDTAB
0
TABLE
2
LAYER
5
2
100
AcDbSymbolTable
70
2
0
LAYER
5
50
100
AcDbSymbolTableRecord
100
AcDbLayerTableRecord
2
0
70
0
6
CONTINUOUS
0
ENDTAB
0
TABLE
2
STYLE
5
3
100
AcDbSymbolTable
70
1
0
STYLE
5
11
100
AcDbSymbolTableRecord
100
AcDbTextStyleTableRecord
2
STANDARD
70
0
0
ENDTAB
0
TABLE
2
VIEW
5
6
100
AcDbSymbolTable
70
0
0
ENDTAB
0
TABLE
2
UCS
5
7
100
AcDbSymbolTable
70
0
0
ENDTAB
0
TABLE
2
APPID
5
9
100
AcDbSymbolTable
70
2
0
APPID
5
12
100
AcDbSymbolTableRecord
100
AcDbRegAppTableRecord
2
ACAD
70
0
0
ENDTAB
0
TABLE
2
DIMSTYLE
5
A
100
AcDbSymbolTable
70
1
0
ENDTAB
0
TABLE
2
BLOCK_RECORD
5
1
100
AcDbSymbolTable
70
1
0
BLOCK_RECORD
5
1F
100
AcDbSymbolTableRecord
100
AcDbBlockTableRecord
2
*MODEL_SPACE
0
BLOCK_RECORD
5
1B
100
AcDbSymbolTableRecord
100
AcDbBlockTableRecord
2
*PAPER_SPACE
0
ENDTAB
0
ENDSEC
0
SECTION
2
BLOCKS
0
BLOCK
5
20
100
AcDbEntity
100
AcDbBlockBegin
2
*MODEL_SPACE
0
ENDBLK
5
21
100
AcDbEntity
100
AcDbBlockEnd
0
BLOCK
5
1C
100
AcDbEntity
100
AcDbBlockBegin
2
*PAPER_SPACE
0
ENDBLK
5
1D
100
AcDbEntity
100
AcDbBlockEnd
0
ENDSEC
0
SECTION
2
ENTITIES
0
CIRCLE
5
100
100
AcDbEntity
8
0
100
AcDbCircle
10
0
20
22.000000327825546
30
0
40
1.0000000000000009
210
0
220
0
230
1
0
LINE
5
101
100
AcDbEntity
8
0
100
AcDbLine
10
-5.4029525847904667
20
26.600000433471692
30
0
11
5.6029525705586494
21
26.600000437731815
31
0
0
ARC
5
102
100
AcDbEntity
8
0
100
AcDbCircle
10
5.6029525697845015
20
28.600000437731808
30
0
40
1.9999999999999929
210
0
220
0
230
1
100
AcDbArc
50
270.00000002217769
51
360
0
LINE
5
103
100
AcDbEntity
8
0
100
AcDbLine
10
7.6029525697844944
20
28.600000433684585
30
0
11
7.602952574641173
21
31.000000438505964
31
0
0
LINE
5
104
100
AcDbEntity
8
0
100
AcDbLine
10
7.602952574641173
20
31.000000438505964
30
0
11
7.602952574641173
21
33.505717906242126
31
0
0
LINE
5
105
100
AcDbEntity
8
0
100
AcDbLine
10
7.602952574641173
20
33.505717906242126
30
0
11
7.6029525727414482
21
37.383075835141085
31
0
0
ARC
5
106
100
AcDbEntity
8
0
100
AcDbCircle
10
10.102952572741444
20
37.383075836365968
30
0
40
2.4999999999999964
210
0
220
0
230
1
100
AcDbArc
50
90.067679868348776
51
180
0
ARC
5
107
100
AcDbEntity
8
0
100
AcDbCircle
10
10.09999948208948
20
37.383075836365961
30
0
40
2.4999999999999867
210
-0
220
0
230
1
100
AcDbArc
50
0
51
90.000000000258765
0
LINE
5
108
100
AcDbEntity
8
0
100
AcDbLine
10
12.599999482089466
20
37.383075836365947
30
0
11
12.599999482089462
21
15.999999956039073
31
0
0
ARC
5
109
100
AcDbEntity
8
0
100
AcDbCircle
10
33.083211764056045
20
15.999999469118436
30
0
40
20.48321228196659
210
0
220
0
230
1
100
AcDbArc
50
179.99999879258175
51
219.44475859823905
0
ARC
5
110
100
AcDbEntity
8
0
100
AcDbCircle
10
21.126494683405763
20
6.1629887838682906
30
0
40
5.0000000000000453
210
0
220
0
230
1
100
AcDbArc
50
219.44475859823916
51
243.47154866871162
0
ARC
5
111
100
AcDbEntity
8
0
100
AcDbCircle
10
17.999999597668648
20
-0.099999997764825682
30
0
40
1.9999999999999993
210
0
220
0
230
1
100
AcDbArc
50
-65.808989500552315
51
63.471548668711712
0
ARC
5
112
100
AcDbEntity
8
0
100
AcDbCircle
10
20.868459040817772
20
-6.4852909404712928
30
0
40
5.0000000000000453
210
0
220
0
230
1
100
AcDbArc
50
114.1910104994478
51
142.08311362999396
0
ARC
5
113
100
AcDbEntity
8
0
100
AcDbCircle
10
33.08321176405606
20
-15.999999474030407
30
0
40
20.48321228196659
210
0
220
0
230
1
100
AcDbArc
50
142.08311362999407
51
180.00000120741828
0
LINE
5
114
100
AcDbEntity
8
0
100
AcDbLine
10
12.599999482089475
20
-15.999999960951028
30
0
11
12.59999952153677
21
-29.445752382838755
31
0
0
ARC
5
115
100
AcDbEntity
8
0
100
AcDbCircle
10
11.599999521536786
20
-29.445752385772579
30
0
40
0.99999999999998113
210
-0
220
0
230
1
100
AcDbArc
50
-57.994614489605816
51
0
0
LINE
5
116
100
AcDbEntity
8
0
100
AcDbLine
10
12.129998495614988
20
-30.293750668480754
30
0
11
5.383477635347317
21
-34.510326583139275
31
0
0
ARC
5
117
100
AcDbEntity
8
0
100
AcDbCircle
10
4.8534786612691017
20
-33.662328300431071
30
0
40
1.0000000000000127
210
0
220
0
230
1
100
AcDbArc
50
220.92824207609556
51
302.00538551039398
0
ARC
5
118
100
AcDbEntity
8
0
100
AcDbCircle
10
0.099999761581410773
20
-37.784023835517402
30
0
40
5.2915765698055832
210
0
220
-0
230
1
100
AcDbArc
50
40.928242076095039
51
139.07175792390498
0
ARC
5
119
100
AcDbEntity
8
0
100
AcDbCircle
10
-4.6534791381062792
20
-33.662328300431071
30
0
40
1.0000000000000122
210
0
220
0
230
1
100
AcDbArc
50
237.99461448960622
51
319.07175792390439
0
LINE
5
120
100
AcDbEntity
8
0
100
AcDbLine
10
-11.92999897405134
20
-30.293750667481266
30
0
11
-5.1834781121844911
21
-34.510326583139275
31
0
0
ARC
5
121
100
AcDbEntity
8
0
100
AcDbCircle
10
-11.399999999973128
20
-29.44575238477308
30
0
40
0.99999999999999423
210
0
220
0
230
1
100
AcDbArc
50
180
51
237.9946144896056
0
LINE
5
122
100
AcDbEntity
8
0
100
AcDbLine
10
-12.399999999973122
20
-29.445752384724582
30
0
11
-12.399999999321082
21
-16.000000258097192
31
0
0
ARC
5
123
100
AcDbEntity
8
0
100
AcDbCircle
10
-32.883212281287669
20
-16.000000258097213
30
0
40
20.48321228196659
210
0
220
-0
230
1
100
AcDbArc
50
0
51
37.332678377614407
0
ARC
5
124
100
AcDbEntity
8
0
100
AcDbCircle
10
-20.572080863971728
20
-6.6103300938147225
30
0
40
5.0000000000000169
210
0
220
-0
230
1
100
AcDbArc
50
37.332678377614528
51
68.442167022925759
0
ARC
5
125
100
AcDbEntity
8
0
100
AcDbCircle
10
-17.999999597668648
20
-0.099999997764826515
30
0
40
2
210
0
220
0
230
1
100
AcDbArc
50
113.61325346565121
51
248.44216702292579
0
ARC
5
126
100
AcDbEntity
8
0
100
AcDbCircle
10
-20.803926540037576
20
6.313890685888655
30
0
40
4.9999999999999485
210
0
220
0
230
1
100
AcDbArc
50
293.61325346565104
51
321.27465249982055
0
ARC
5
127
100
AcDbEntity
8
0
100
AcDbCircle
10
-32.883212281287669
20
16.000000253185242
30
0
40
20.48321228196658
210
-0
220
0
230
1
100
AcDbArc
50
321.27465249982043
51
360
0
LINE
5
128
100
AcDbEntity
8
0
100
AcDbLine
10
-12.399999999321087
20
16.000000253185231
30
0
11
-12.399999999321086
21
37.383075836108169
31
0
0
ARC
5
129
100
AcDbEntity
8
0
100
AcDbCircle
10
-9.8999999993210785
20
37.38307583627568
30
0
40
2.5000000000000027
210
0
220
0
230
1
100
AcDbArc
50
90.067668208531799
51
180
0
ARC
5
130
100
AcDbEntity
8
0
100
AcDbCircle
10
-9.9029525812291972
20
37.383075836275687
30
0
40
2.5000000000000009
210
0
220
0
230
1
100
AcDbArc
50
0
51
90
0
LINE
5
131
100
AcDbEntity
8
0
100
AcDbLine
10
-7.402952581229199
20
33.505717903008552
30
0
11
-7.4029525812291963
21
37.383075836275687
31
0
0
LINE
5
132
100
AcDbEntity
8
0
100
AcDbLine
10
-7.402952581229199
20
33.505717903008552
30
0
11
-7.4029525807079466
21
31.000000432697536
31
0
0
LINE
5
133
100
AcDbEntity
8
0
100
AcDbLine
10
-7.4029525807079466
20
31.000000432697536
30
0
11
-7.4029525855646217
21
28.600000437518922
31
0
0
ARC
5
134
100
AcDbEntity
8
0
100
AcDbCircle
10
-5.4029525855646234
20
28.600000433471688
30
0
40
1.9999999999999984
210
0
220
0
230
1
100
AcDbArc
50
180
51
270.00000002217797
0
CIRCLE
5
135
100
AcDbEntity
8
0
100
AcDbCircle
10
9.9776260037766367
20
-28.000000417232517
30
0
40
1.0000000000000009
210
0
220
0
230
1
0
CIRCLE
5
136
100
AcDbEntity
8
0
100
AcDbCircle
10
9.9776260037766384
20
37.296905101321414
30
0
40
1.0000000000000009
210
0
220
0
230
1
0
LWPOLYLINE
5
137
100
AcDbEntity
8
0
100
AcDbPolyline
90
8
70
1
43
0.0
10
-7.8999999552965194
20
15.000000223517418
42
-0.41421356237309398
10
-9.3999999552965186
20
16.500000223517418
10
-9.3999999552965168
20
23.500000372529037
42
-0.41421356237309548
10
-7.8999999552965194
20
25.00000037252903
10
-6.899999895691872
20
25.000000372529026
42
-0.41421356237309398
10
-5.3999998956918729
20
23.50000037252903
10
-5.3999998956918729
20
16.500000223517418
42
-0.41421356237309548
10
-6.899999895691872
20
15.00000022351742
0
LWPOLYLINE
5
138
100
AcDbEntity
8
0
100
AcDbPolyline
90
8
70
1
43
0.0
10
9.59999942846175
20
16.500000024888593
42
-0.41421356255440411
10
8.099999402656838
20
15.000000049764946
10
7.0999993645411834
20
15.000000066968218
42
-0.41421356429694239
10
5.5999993903460883
20
16.500000102625755
10
5.5999995567479299
20
23.500000251637353
42
-0.41421356044924768
10
7.0999995825528384
20
25.00000021597981
10
8.0999995703562959
20
25.00000019877654
42
-0.41421356219178124
10
9.5999995445513964
20
23.500000173900194
0
LWPOLYLINE
5
139
100
AcDbEntity
8
0
100
AcDbPolyline
90
10
70
1
43
0.0
10
-8.4245601128805916
20
9.9385997177985246
42
-0.065843588456140578
10
-8.3603217674379628
20
10.05290437962147
10
-7.1999998956918745
20
11.600000208616258
42
-0.72075922005612791
10
-5.3999998956918738
20
11.000000208616258
10
-5.3999998956918738
20
-7.3727682832360317
42
-0.41421356237309503
10
-6.3999998956918738
20
-8.3727682832360308
10
-7.7694816444943813
20
-8.3727682832360308
42
-0.28893942539025713
10
-8.6717989818245034
20
-7.8038406933407352
10
-12.211054825737524
20
-0.39549853469045815
42
-0.20953503963853348
10
-12.237214179292661
20
0.40696455176835067
0
LWPOLYLINE
5
140
100
AcDbEntity
8
0
100
AcDbPolyline
90
10
70
1
43
0.0
10
12.437213702455489
20
0.40696455176835344
42
-0.20953503963853301
10
12.411054348900352
20
-0.39549853469045715
10
8.8717985049873267
20
-7.8038406933407352
42
-0.28893942539025741
10
7.9694811676572064
20
-8.3727682832360308
10
6.5999994188547007
20
-8.3727682832360344
42
-0.4142135623730957
10
5.5999994188546998
20
-7.3727682832360326
10
5.5999994188547007
20
11.00000020861626
42
-0.72075922005612614
10
7.3999994188547014
20
11.600000208616256
10
8.5603212906007862
20
10.052904379621474
42
-0.065843588456143701
10
8.6245596360434185
20
9.9385997177985246
0
LWPOLYLINE
5
141
100
AcDbEntity
8
0
100
AcDbPolyline
90
10
70
1
43
0.0
10
-7.3999999403953565
20
-16.031222920256969
10
7.5999994635581825
20
-16.031222920256969
42
0.41421356237309209
10
8.5999994635581825
20
-15.031222920256969
10
8.5999994635581842
20
-12.644237423785146
42
0.29423201493055712
10
8.0133854450702646
20
-11.73368153297487
10
0.92677172460557089
20
-8.5164086582429217
42
0.21636947838085177
10
-0.72677220144275356
20
-8.5164086582429253
10
-7.8133859219074386
20
-11.73368153297487
42
0.29423201493056039
10
-8.3999999403953574
20
-12.644237423785148
10
-8.3999999403953574
20
-15.031222920256969
42
0.41421356237309503
0
CIRCLE
5
142
100
AcDbEntity
8
0
100
AcDbCircle
10
-10.07762600377664
20
37.296905101321414
30
0
40
1.0000000000000007
210
0
220
0
230
1
0
CIRCLE
5
143
100
AcDbEntity
8
0
100
AcDbCircle
10
-10.077626003776638
20
-28.000000417232517
30
0
40
0.99999999999999922
210
0
220
0
230
1
0
CIRCLE
5
144
100
AcDbEntity
8
0
100
AcDbCircle
10
17.999999597668648
20
-0.099999997764825682
30
0
40
0.99999999999999867
210
0
220
0
230
1
0
CIRCLE
5
145
100
AcDbEntity
8
0
100
AcDbCircle
10
-17.999999597668648
20
-0.099999997764826515
30
0
40
0.99999999999999867
210
0
220
0
230
1
0
ENDSEC
0
SECTION
2
OBJECTS
0
DICTIONARY
5
C
100
AcDbDictionary
3
ACAD_GROUP
350
D
3
ACAD_MLINESTYLE
350
17
0
DICTIONARY
5
D
100
AcDbDictionary
0
DICTIONARY
5
1A
330
C
100
AcDbDictionary
0
DICTIONARY
5
17
100
AcDbDictionary
0
ENDSEC
0
EOF
